/* XPM */
static char *_ecce97ad58c4756d24bbee8700256e9Q05Oc3LiaCzAywID[] = {
/* columns rows colors chars-per-pixel */
"50 50 92 1 ",
"  c #A7C05A",
". c #AFC45F",
"X c #AFC560",
"o c #ADC660",
"O c #ADC661",
"+ c #AFC862",
"@ c #AFC863",
"# c #B1C661",
"$ c #B1C562",
"% c #B1C763",
"& c #B3C764",
"* c #B0C963",
"= c #B3C863",
"- c #B0C964",
"; c #B2C864",
": c #B2CB65",
"> c #B4C964",
", c #B4C865",
"< c #B5CA65",
"1 c #B5CB66",
"2 c #B5CB67",
"3 c #B6CB66",
"4 c #B3CC66",
"5 c #B3CC67",
"6 c #B7CC67",
"7 c #B8CA66",
"8 c #B7CB68",
"9 c #B4CD68",
"0 c #B5CE68",
"q c #B6CF69",
"w c #B6CF6A",
"e c #B8CD68",
"r c #B8CC69",
"t c #BBCD69",
"y c #B9CE69",
"u c #B9CD6A",
"i c #B8CE6A",
"p c #BACF6A",
"a c #BBCF6C",
"s c #BBD06B",
"d c #BBD16C",
"f c #B9D26C",
"g c #B8D26D",
"h c #B9D26D",
"j c #BAD36D",
"k c #BCD16C",
"l c #BCD06D",
"z c #BFD16D",
"x c #BCD26D",
"c c #BDD26D",
"v c #BDD16E",
"b c #BCD26E",
"n c #BDD36E",
"m c #BDD36F",
"M c #BED36E",
"N c #BED26F",
"B c #BBD46E",
"V c #BCD56F",
"C c #BED46F",
"Z c #BFD46F",
"A c #BFD370",
"S c #BFD570",
"D c #BFD571",
"F c #BDD670",
"G c #BED771",
"H c #BFD872",
"J c #BFD873",
"K c #C0D26E",
"L c #C1D36F",
"P c #C0D570",
"I c #C0D471",
"U c #C2D470",
"Y c #C3D571",
"T c #C0D671",
"R c #C1D671",
"E c #C1D572",
"W c #C0D672",
"Q c #C1D772",
"! c #C1D773",
"~ c #C2D772",
"^ c #C2D673",
"/ c #C4D672",
"( c #C5D773",
") c #C3D774",
"_ c #C0D973",
"` c #C2D873",
"' c #C3D873",
"] c #C2D874",
"[ c #C3D974",
"{ c #C4D974",
"} c #C4DA75",
"| c #C5DA75",
/* pixels */
" +fT'TTTT/'LnTTSTTTTTTTTTTTTs*1yTTTTTLTTTTVTTVTTTT",
"0fTTTVTTK/TTVTTSTTTTTLTTTVTTnyynTTTTTLTTTTTTTTTTTT",
"fVTTTVTTKTTTTTSSTTTTLLTTTnVTTnLTTTTTTTTTVTTnnTTLTT",
"*0nTTTTTKTTTTVVTTTTTTTTTTVVT'TT'TTTLTTTTVTn11nTLTT",
"*0nT'TTTTKTTTVnSTTTTTTTTTTVTTTTTTTTTTTTTVTn11nTLTT",
"VSTTTTTT/KsTTVVTTTTTTTTTTTTTTTTVTTTTTTTTVTTnnTTLTT",
"''TTTTTT/t1nTTS[TTTTTTTTTTTTTTTTTTTTTTTTTTTTTTTTVV",
"fBVSTTTT/7#yTTT}TTTTLTTTnTTTVTTTTTTTLLTTTTLTTVTTVV",
"o4nTTTTTTTTTTTSSTTTTTTLLTTTTTTTTLLTTTTTTTTTTTTTTTT",
":0nTTTTTTTTTTTSSTLLTTTTTTTTTTTTTTTTTTTLLTTTLTTTTTT",
"ffVSTTTTUUTTTTSSTTTTTTTTTTTTTTTTTTTTTTTTTTTLTTLTTT",
"HSSSTTTTUUTTTTSSTTTTTTTTTTTTTTTTTTTTTTTTTTTTTTTTLL",
"HSSSTTTTUUTTTTSSTTTTTTTTTTTTLTTTTTTTTTTTTTTLTTTTTT",
"ffVSTTTTUUTTTTSSTTTTTTTTTTTTTTTTLTTTTLLTTTTLTTTTTT",
":0nTTTTTTTTTTTSSTTTLTTTTTTLLTTTTTTTTTTTTTTTTTTTLTT",
"o1nTTTTTTTTTTTSSTTTLTLTTTTLTTTTTTTTTTTTTTTTTTTTLLV",
"aTTnnT)ASSSSUUUTTTTTTTTTLLTTTTTTTTTTTTTTTTTTTTTT::",
"nTTnATn8TSSSUUUTTTTTTTTTTTTTTLTTTLTTTTTTTTTTTTTT#+",
"AUTATTy#TTUUUUSTTTTTTTTTTTTTTTTTTLTTTTTTTTTTTTTTTT",
"TAATTTa,TUUUTTSSTTLTTTTTTTTTTTTTTTTTTTLLTTLTTTTTSS",
"TTUTTTnnTTUUSSTSTTTTTTLLTTLLTLLTTTTTTTTTTTTTTTLLnn",
")AnUTSATTTUUTTTSTTLLTTTTTTTTTTTTTTTTTTTLTTLLTTTT}}",
")arnTSTTUUUUUUUUTTTTTTTTTTTTTTTTLTTTTTTTTTTTTTTTnn",
"T8&yTTSTUUUUUUUUTTTTTTTTTTTTTTTTLTTTTTTTTTTTTTTTTT",
"nnATTTTTUTTSSSTUTTTTTTTTTTTTTTTTTTTTTLTTTnnnTTTTTT",
"nAATTTTTUUSSSSTUTTTTTTTTTTTTTTTTTTTTLLTTVVVLTTTVTT",
"AAATTTTTUUUUSTTUTTTTTTTTTLLTTTTLTTTTTTTTVTTTTTVnTT",
"AAATUTTTUUUUSTTUTTTLTTTTTTTTTTTTTTTLTTTTTTTTTTTVTT",
"AAATUTTTTSSUTUUUTTTTTTTLTTTTTTTTTTTTTTTTTTTTTTTTTT",
"AATTTTTTSTTTUTTULLTTTTTLTTTTTTTTTTTTTTTTTTLTTTVnTT",
"TUTTUUUUTUTTUUTUTTTTTTTTLLTTTTTTTTTTTTTTTTnTTTn1nn",
"UUUTTUUUTSSUUUTTTTTTTTTTTTTTTTLLTTTTTTTTTLnT'Ty#nn",
"TTnyynTTTTTTTTTTTTTLLTTTTTTTTTTTTTTTTTTTTTTTTVVVTT",
"nTnyynTLTTTTTTTTTTTTTTTTLLTTTTTTTTTTTTLLTTTTTVVVVV",
"VTVnnVTVTTTTTTTTTTTTTTTTTTTTLLTTTTLLTTTTTTTTTTVVTT",
"VTTnnTTVTTTTLTTTTTTTTTTTTTTTTTTTTTTTTTTTTTTTTTTTTT",
"VTTTTTTVTTTTTTTTTTTTTTTTTTTTTTTTTTTTTTTTTTTTTTTTTT",
"TTTTTTTTTTTTTTTTTTLLTTTTLTTTTTTTTTTTTTTLVVTTTTTTTT",
"TTTTTTTTTTLTTTTTTTTTLTTTTTTTLTTTTTTTTTTLVVVTTTTTVV",
"TTTTTTTTTTLLTTTTTTTTTTTTTTTTLTTTTTTLTTTTVVVTTTTTTT",
"TTnnVTTnnTTnnTTnTTTTTTTTTTTTTTTTTTLLTTTTTTTTTTTTTT",
"TTTTTTTTVTTVL'TnLLTTTTTTTTTTTTTTTTTTTTTLTTTTTTTTnn",
"TVTTVnn}VTTVT'TnTTTTTTTLTTLTTTTTTTTTTTTTTTTTLTTToo",
"TVVTs1yTnVVVVTTLTTTTTTTLTTTTTTTTTTTTTTTTTTTTLTTT11",
"TVVTy*1LVVTTVnVTTTTTTTLTTLLLTTTTTTTTTTTTTTTTTTTTTT",
"TTTTnynTTVVTTVT}TTTTTTTTTTTTTTTTTTLTTTTTTTTTTTTTSS",
"TTTTTTTTTsynTLT'TLTTTTTTTTTTTTTTTTLTTTLTTTTTTTTTTT",
"TLnnT'Tnn1.1nnnTTSTTTTTTTTTTTTTTSSSTTTLTTTLLTTTTTT",
"TTTTTTTTnnnnVVTT[0#yTTT[SSSSTTTSHfo1TTTTTTTTTTTTTT",
"TTTTTTTTnnnnVVTS[0*0TTT[SSSSTTTSHfo4TTTTTTTTTTTTTT"
};
