/* XPM */
static char *df29c21eeac44f34e209fc8768481db7mo7BW8h0TPgc1ko7[] = {
/* columns rows colors chars-per-pixel */
"50 50 210 2 ",
"   c #39334F",
".  c #363655",
"X  c #383756",
"o  c #353852",
"O  c #393856",
"+  c #37355E",
"@  c #36395B",
"#  c #3B3B5C",
"$  c #38365B",
"%  c #3C3E64",
"&  c #383562",
"*  c #433D5C",
"=  c #443665",
"-  c #423E63",
";  c #453B68",
":  c #3B425D",
">  c #3D4064",
",  c #3F4269",
"<  c #45425D",
"1  c #4A445D",
"2  c #56475B",
"3  c #424164",
"4  c #4A4563",
"5  c #44456B",
"6  c #4B466A",
"7  c #4C496B",
"8  c #474A67",
"9  c #534663",
"0  c #534A65",
"q  c #5B4C63",
"w  c #52476A",
"e  c #524B6C",
"r  c #5A4E6B",
"t  c #4D5063",
"y  c #52516D",
"u  c #5E536C",
"i  c #585365",
"p  c #4B4B70",
"a  c #524E71",
"s  c #594D74",
"d  c #4F5271",
"f  c #545274",
"g  c #5C5474",
"h  c #5D5875",
"j  c #5D5679",
"k  c #5C597A",
"l  c #545478",
"z  c #604E66",
"x  c #655163",
"c  c #695667",
"v  c #63546C",
"b  c #69566B",
"n  c #64596D",
"m  c #6C5969",
"M  c #735D6F",
"N  c #625573",
"B  c #645974",
"V  c #6A5C72",
"C  c #615678",
"Z  c #635C7C",
"A  c #6B5E7C",
"S  c #715E74",
"D  c #77616E",
"F  c #6D6375",
"G  c #6D617C",
"H  c #65607E",
"J  c #726375",
"K  c #7B6376",
"L  c #7D6A76",
"P  c #73647C",
"I  c #79667B",
"U  c #7D6A7E",
"Y  c #77687F",
"T  c #836B75",
"R  c #836C7C",
"E  c #8A6E7C",
"W  c #876C78",
"Q  c #85717B",
"!  c #8B727D",
"~  c #88777C",
"^  c #92757B",
"/  c #94797F",
"(  c #9B7B7D",
")  c #917277",
"_  c #625E82",
"`  c #6B5F81",
"'  c #676183",
"]  c #6C6382",
"[  c #736682",
"{  c #786681",
"}  c #746884",
"|  c #7C6B84",
" . c #797189",
".. c #747391",
"X. c #826E83",
"o. c #857284",
"O. c #8C7585",
"+. c #83728B",
"@. c #8A758A",
"#. c #877A8C",
"$. c #8C7B8B",
"%. c #8D7A83",
"&. c #937A85",
"*. c #9A7D84",
"=. c #937B8A",
"-. c #9A7E8A",
";. c #937684",
":. c #877E92",
">. c #947E91",
",. c #9E8285",
"<. c #95828D",
"1. c #9C828C",
"2. c #9F8A89",
"3. c #878B95",
"4. c #888599",
"5. c #958495",
"6. c #9C8392",
"7. c #9D8B94",
"8. c #90869F",
"9. c #9F9096",
"0. c #AB8686",
"q. c #AE8D86",
"w. c #A3858B",
"e. c #A9878A",
"r. c #A4898D",
"t. c #AD8D8D",
"y. c #A48584",
"u. c #B08F86",
"i. c #B18E8D",
"p. c #AF908E",
"a. c #B3918D",
"s. c #B8968F",
"d. c #B6948B",
"f. c #A38792",
"g. c #A58993",
"h. c #AD8E93",
"j. c #A38B98",
"k. c #A98C98",
"l. c #B28F90",
"z. c #A29296",
"x. c #AE9193",
"c. c #A3939A",
"v. c #AD939A",
"b. c #B29293",
"n. c #B99792",
"m. c #BB9A93",
"M. c #B29499",
"N. c #BA9E9A",
"B. c #BFA29C",
"V. c #BAA399",
"C. c #8A89A2",
"Z. c #868AA7",
"A. c #9F9FB9",
"S. c #9188A3",
"D. c #AC95A1",
"F. c #AF99A5",
"G. c #B499A0",
"H. c #9FA1BA",
"J. c #BBA4A2",
"K. c #BCA5AC",
"L. c #ABA5B6",
"P. c #C09F98",
"I. c #C4A095",
"U. c #C5A49C",
"Y. c #CBA69C",
"T. c #CCA99D",
"R. c #C3AC9E",
"E. c #D0AC9E",
"W. c #C4A5A3",
"Q. c #C9A7A2",
"!. c #CBAAA2",
"~. c #C6ABA9",
"^. c #D4AFA5",
"/. c #CEB4AC",
"(. c #CAB3A9",
"). c #D4B4A4",
"_. c #DAB6A6",
"`. c #D3B4AA",
"'. c #D8B4AA",
"]. c #DDBBAC",
"[. c #D5BAA8",
"{. c #C7AFB3",
"}. c #CEB6B3",
"|. c #CFB8B6",
" X c #D2B6B4",
".X c #D1BAB4",
"XX c #DCBBB2",
"oX c #D7BDBA",
"OX c #E0BCAC",
"+X c #E1BEB3",
"@X c #DDC0AB",
"#X c #DEC4B4",
"$X c #E3C2AE",
"%X c #E5C4B3",
"&X c #E9C6B4",
"*X c #EBC9B6",
"=X c #E4C4BA",
"-X c #E6CABD",
";X c #EBCABA",
":X c #C5BDD2",
">X c #BEC0D7",
",X c #C8C8D8",
"<X c #D1D1DD",
"1X c #C7CED1",
"2X c #EACEC1",
"3X c #CBCDE4",
"4X c #E7EFF1",
"5X c #F6F6FE",
"6X c #FCFDFE",
"7X c #F4FBFB",
/* pixels */
"7X7X<X3.t . $ & & + + + . o o o X X X X O O X X . X O . . X O X O O O O O O @ @ # X X .   0 S.<X6X6X",
"7X4X1X3.i < 3 6 4 4 4 4 1 1 1 1 1 1 1 1 1 1 1 1 4 4 4 1 4 4 4 < < < 3 3 4 4 4 4 4 4 1 < * i 8.:X5X5X",
"<X1XL.4.F u n F F F J J F F J F F F F F F F F F F F F F F F V n u n n F F F F F F F F V v F 4.L.,X,X",
"C.4.:.:.#.$.<.7.c.z.z.z.c.c.c.c.c.c.z.z.c.z.c.c.9.9.9.9.c.9.<.%.Q ~ <.7.c.c.c.c.c.c.c.5.#.o.#.:.4.4.",
"s s Z +.5.c.J.(..X/./.`. X X X X}..X.X.X}.}.}..X}.}.}..X.X}.~.N.r.x.V.(..XoX.X}..X|.{.K.D.5.o.V y y ",
"= = w G #.j.J./.#X%X%X%X%X+XXXXX=X-X-X-X-X-X-X-X-X-X-X-X2X-X].!.V.R.`.#X;X2X-X=X=XoX}.K.F.5.K q # O ",
"= = 4 r V Q r.V.).@X%X%X'.^.^.'.%X&X;X;X;X*X;X*X&X&X%X%X;X*X$X[.).[.].%X*X;X*X%X]./.J.v.7.@.V 0 # + ",
"; ; - 1 2 m ~ 2.B.).#X].E.I.I.Y.OX%X&X&X&X%X%X&X&X&X%X$X&X*X&X$X$X@X$X$X&X&X%X+X!.B.x.1.O.I N w % & ",
"% % - < 1 i J ~ 2.M.W.!.U.I.I.U.'.)._.].]._._.'.].$X%X&X&X&X&X$X%X%X].)._.].].`.U.M.1.$.X.J N e 3 > ",
"> > 3 7 y u V J R %.r.v.J.~.!.!.!.Y.Y.T.T.Y.Y.T.).].%X&X&X&X&X%X%X%X_.T.T.!.Q.B.x.1.O.X.| A g e 3 > ",
": : 8 l Z Z u q z m R -.G.}. X/.N.n.s.s.n.s.s.n.U.`.%X=X=X=X=X=X=XXX!.m.n.b.M.k.<.O.| { } ` j 7 3 > ",
": : 8 k ' H g 9 9 b K O.v.~.{.W.b.i.q.q.u.u.u.u.m.!.'.XXXXXXXXXXXX`.W.b.t.r.1.=.X.I A A [ ` j e 3 > ",
": : 7 k ' ' B v v I O.=.6.k.v.x.t.q.q.q.t.i.q.q.n.P.U.!.!.!.!.!.Q.W.N.M.w.;.R J v u r N ` ] C e - % ",
"# 3 7 j H G G J K O.6.6.&.;.&.*.e.t.i.i.i.i.i.q.s.s.n.n.n.n.n.s.n.n.M.x.1.R c 2 1 1 4 r Z A C e - % ",
"- - 7 j G P I K R &.f.f.*.! ! / e.t.a.i.q.i.i.u.u.a.a.q.u.a.u.u.u.i.t.r.&.L v q 0 0 r N A G v 9 3 % ",
"% - w C ] Y I K Q &.f.h.w.^ ^ *.e.i.b.i.q.q.i.a.q.u.u.q.q.q.q.q.u.e.y.*.~ L J F V G G P [ P v 4 3 % ",
"- 4 7 j ' P Y K R =.g.l.l.q.0.0.i.i.i.i.i.i.i.i.i.i.i.i.i.i.i.i.h.w.&.R R o.$.<.=.5.>.@.| G g 7 3 % ",
"% - 7 j ' [ [ I R &.f.l.l.i.i.i.i.i.i.i.i.i.i.i.i.i.i.i.i.i.i.l.h.f.&.Q R =.7.k.k.k.6.=.+.] h 7 > % ",
"% - 7 j ] [ [ I R &.f.l.b.l.i.i.i.i.i.i.i.i.i.i.i.i.i.i.i.i.i.l.l.e.*.^ ;.1.k.v.k.f.-.$.X.P g 7 3 % ",
"% - 7 k ] [ Y I X.=.g.h.l.b.i.i.i.i.i.i.i.i.i.i.i.i.i.i.i.i.i.i.i.t.e.w.w.g.h.g.-.;.E R I G g 7 3 % ",
"% 3 7 k ] ] J S U O.f.h.M.b.i.i.i.i.i.i.i.i.i.i.i.i.i.i.i.i.i.i.i.i.i.t.x.x.h.e.*.E K K I P g 7 3 % ",
"% > p k ' ] V b M ! w.h.M.b.i.i.i.i.i.i.i.i.i.i.i.i.i.i.i.i.i.i.i.i.i.i.b.M.h.g.*.E K K { G g 7 3 % ",
"% > p k ' Z v q c T 1.M.M.b.i.i.i.i.i.i.i.i.i.i.i.i.i.i.i.i.i.i.i.i.u.u.a.M.x.g.=.E K P [ H g 7 3 % ",
"% % 7 k Z B r 2 x T w.M.M.b.i.i.i.i.i.i.i.i.i.i.i.i.i.i.i.i.i.i.i.i.i.u.a.b.h.w.=.R S P [ ' j e 3 % ",
"> > 5 e j N n b K ! w.x.M.b.i.i.i.i.i.i.i.i.i.i.i.i.i.i.i.i.i.i.i.l.i.t.t.e.,.&.X.S C ` ] ] j 7 3 % ",
", % 3 4 e v J R &.1.g.M.b.l.i.i.i.i.i.i.i.i.i.i.i.i.i.i.i.i.i.i.h.h.l.q.e.,.^ R S u r j _ ' k 7 3 % ",
"% % % < 4 v | 6.k.k.h.h.i.t.i.i.i.i.i.i.i.i.i.i.i.i.i.i.i.i.i.t.h.h.h.t.y.*.W D v 9 6 f _ ' j 7 3 % ",
"% % 3 4 0 V o.j.D.M.h.t.q.t.i.i.i.i.i.i.i.i.i.i.i.i.i.i.i.i.i.t.h.h.h.t.e.,.! L v 9 4 a _ ] C 7 3 % ",
"% % 3 e v I $.j.M.M.h.t.i.i.i.i.i.i.i.i.i.i.i.i.i.i.i.i.i.i.i.t.h.h.h.i.i.e.*.O.V 0 4 a Z ' C e 3 % ",
"% % 4 y G | <.j.h.h.l.i.a.i.i.q.i.i.i.i.i.i.i.i.i.i.i.i.i.i.i.t.h.x.i.u.u.t.r.1.P r 4 a C A B 0 3 % ",
"% 3 6 g P o.=.1.w.e.t.i.i.i.u.u.i.i.i.i.i.i.i.i.i.i.i.i.i.i.i.t.h.h.i.u.d.a.t.f.U N e g Z G b 9 - % ",
"% 3 7 h P | o.O.*.w.e.t.i.i.u.i.i.i.i.i.i.i.i.i.i.i.i.i.i.i.i.t.t.t.u.u.d.a.h.g.O.J C Z ` P N 9 - % ",
"# 3 7 j G [ | R ! *.r.x.b.b.a.u.a.u.i.i.i.i.i.t.t.t.t.t.t.t.t.t.t.p.i.t.p.M.h.f.&.U J G [ ] C 4 3 > ",
"# 3 7 j G [ I I R &.r.h.b.a.a.i.i.u.i.i.i.i.i.t.t.t.t.t.t.t.t.t.q.t.t.t.t.M.h.w.=.R I P [ ] C 6 3 > ",
"# - 7 j H P J J R &.r.x.b.a.a.a.q.q.i.t.t.h.h.h.t.t.t.t.t.t.t.t.i.a.i.t.h.M.h.f.-.R I [ [ ] C 6 3 > ",
"# % 7 k ] P Y J R &.g.x.M.t.i.a.i.t.i.t.t.h.h.b.t.t.t.t.t.t.t.i.i.a.i.t.b.M.h.f.-.R K Y [ ] C 6 3 > ",
"# 3 7 k ] [ Y K R &.g.x.h.e.0.q.t.x.b.b.t.t.t.h.t.t.p.p.p.t.i.i.q.u.u.q.h.M.h.f.;.K S J P ] C 7 3 > ",
"% 3 7 k ] [ [ K X.=.f.k.w.( ( y.t.h.x.b.h.t.t.p.t.t.i.p.i.i.i.i.i.a.i.i.b.M.v.g.! M x V A G C 7 3 > ",
"% 3 7 h ' [ P I X.=.6.f.*.) ) ( e.e.x.b.h.t.i.i.i.i.i.i.i.i.i.i.i.a.i.t.h.M.k.f.R c q v A A C 7 - % ",
"% > 7 g Z ] P P X.$.6.6.&.W W ^ ,.r.h.x.h.t.i.i.i.i.u.u.i.i.i.i.q.t.t.e.g.k.f.<.U z 2 r Z A C 7 > % ",
"> # 3 7 g h A P | o.$.=.=.-.=.;.*.*.w.t.b.i.i.b.n.i.i.a.b.i.b.b.b.h.w.*.&.-.-.$.P v r N G ] C e % % ",
"> > 3 4 7 e N A Y | X.@.>.6.6.-.! ! &.w.h.M.M.b.l.i.i.l.b.b.M.M.h.g.*.! R R X.U Y A A A ] ] j 7 3 % ",
"# # # # < 4 j ] [ G J Y +.5.5.$.L T ! *.g.h.h.e.e.e.w.r.g.w.f.f.f.6.O.R K J F G G [ } ] ] Z g 4 % % ",
"@ @ O O * 7 k ] ] Z N N G | | | I L R O.-.1.-.-.1.-.=.&.O.R o.O.=.$.o.U F V N g Z ' ] ' k g e 3 O # ",
"# # # # * 7 j ' ' C e w e g j C G Y | o.o.o.o.o.O.o.X.K V v B J | | | } A g e e g Z ' Z f 7 3 # # # ",
"d d 7 3 3 7 g Z k f 6 - - - 6 e C H ] P P J J J P I G N 0 4 7 g H G ] ] Z a 6 4 f k _ k 7 3 4 7 y y ",
"Z.Z...k 4 4 a k a 7 4 - # # 4 7 a g j g g g g u N g g e 4 % 5 7 j j j j g 7 4 3 p f l a 3 3 k ..C.C.",
"3X>XH...7 # 3 6 6 4 - % % & - 5 6 p 7 7 7 e 7 4 e 7 6 6 5 % , 5 6 4 6 7 7 4 3 > 5 5 7 3 # 4 ..A.,X,X",
"6X5X,X4.y O # % % % > > % % > > 3 3 3 3 3 3 3 3 - % % % > , > % 3 3 3 3 > > > > > , % & # 7 C.,X5X5X",
"6X6X,X4.y O & & % % > > % % > % > > > > > > % % % % % % > > > % % % % % > > % % % % % @ # y C.,X5X6X"
};
