/* XPM */
static char *result[] = {
/* columns rows colors chars-per-pixel */
"50 50 240 2 ",
"   c #8D9BB8",
".  c #556281",
"X  c #384565",
"o  c #697795",
"O  c #8B99B6",
"+  c #3A4767",
"@  c #8592B0",
"#  c #657291",
"$  c #5C6989",
"%  c #808EAC",
"&  c #7A88A6",
"*  c #6D7A99",
"=  c #8492B0",
"-  c #616E8E",
";  c #6B7897",
":  c #657292",
">  c #455272",
",  c #5B6888",
"<  c #5E6B8B",
"1  c #5A6787",
"2  c #596686",
"3  c #5D6A8A",
"4  c #3A435F",
"5  c #323C5A",
"6  c #4E5B7B",
"7  c #4F5C7C",
"8  c #556282",
"9  c #485575",
"0  c #5D6A89",
"q  c #1D1B2D",
"w  c #364262",
"e  c #455271",
"r  c #5B6887",
"t  c #3A4360",
"y  c #3D4A6A",
"u  c #3C4969",
"i  c #2E3652",
"p  c #313C59",
"a  c #3B4868",
"s  c #394666",
"d  c #3C4968",
"f  c #191526",
"g  c #364261",
"h  c #313B59",
"j  c #2D2C3F",
"k  c #1F1E31",
"l  c #1E1D31",
"z  c #1C1A2D",
"x  c #1D1B2E",
"c  c #1E1D30",
"v  c #181425",
"b  c #1D1C30",
"n  c #737D98",
"m  c #4D5673",
"M  c #4B5471",
"N  c #292A3F",
"B  c #353951",
"V  c #1F1D30",
"C  c #404660",
"Z  c #445171",
"A  c #414E6E",
"S  c #546181",
"D  c #26283E",
"F  c #30354F",
"G  c #586585",
"H  c #1E1C2F",
"J  c #38415E",
"K  c #404D6D",
"L  c #424F6F",
"P  c #23253B",
"I  c #2B304A",
"U  c #1C1B2E",
"Y  c #313A57",
"T  c #3C4561",
"R  c #2D3652",
"E  c #364362",
"W  c #303957",
"Q  c #1F1F34",
"!  c #2C3451",
"~  c #303A57",
"^  c #354160",
"/  c #2F3855",
"(  c #374464",
")  c #3D4561",
"_  c #44475D",
"`  c #202034",
"'  c #1D1D32",
"]  c #23253C",
"[  c #24273D",
"{  c #1F2035",
"}  c #1A1729",
"|  c #1F1F33",
" . c #202137",
".. c #202036",
"X. c #22243A",
"o. c #24263D",
"O. c #1A1728",
"+. c #212338",
"@. c #5C627A",
"#. c #40455F",
"$. c #3E445D",
"%. c #24273F",
"&. c #202238",
"*. c #1C1A2E",
"=. c #23263D",
"-. c #282D46",
";. c #181526",
":. c #202239",
">. c #2A304A",
",. c #212339",
"<. c #292E48",
"1. c #22253C",
"2. c #495676",
"3. c #475474",
"4. c #3F4966",
"5. c #3D4763",
"6. c #394565",
"7. c #2E3754",
"8. c #29304B",
"9. c #262C46",
"0. c #1E1F34",
"q. c #282F4A",
"w. c #2C3551",
"e. c #242941",
"r. c #191527",
"t. c #262D47",
"y. c #282F49",
"u. c #333D5A",
"i. c #282E49",
"p. c #2D3551",
"a. c #25283F",
"s. c #252A44",
"d. c #242942",
"f. c #21233A",
"g. c #3F455F",
"h. c #1C192B",
"j. c #1E1E33",
"k. c #191628",
"l. c #1B192C",
"z. c #1A182A",
"x. c #454D68",
"c. c #363E5A",
"v. c #2C3450",
"b. c #343C58",
"n. c #2B344F",
"m. c #212239",
"M. c #2A2E45",
"N. c #303853",
"B. c #262A43",
"V. c #222338",
"C. c #2C3550",
"Z. c #2B334F",
"A. c #404761",
"S. c #434F6E",
"D. c #323D5A",
"F. c #505D7D",
"G. c #414964",
"H. c #3E4865",
"J. c #343F5E",
"K. c #2A2F49",
"L. c #1A172A",
"P. c #7A87A3",
"I. c #525E7D",
"U. c #374362",
"Y. c #4C5877",
"T. c #3A4564",
"R. c #35405F",
"E. c #2A324E",
"W. c #3F4864",
"Q. c #404C6B",
"!. c #2D3653",
"~. c #252A43",
"^. c #232840",
"/. c #1F2036",
"(. c #1C1B2F",
"). c #1F2137",
"_. c #242234",
"`. c #1F1D2F",
"'. c #1C192C",
"]. c #1E1C2E",
"[. c #1C1A2C",
"{. c #1B192B",
"}. c #1B182A",
"|. c #5F6C8C",
" X c #536080",
".X c #3E4B6B",
"XX c #374363",
"oX c #383C55",
"OX c #374463",
"+X c #2B314A",
"@X c #373C54",
"#X c #8C9AB7",
"$X c #5D6B8A",
"%X c #515E7E",
"&X c #282D45",
"*X c #2B314B",
"=X c #282C45",
"-X c #5E6B8A",
";X c #384564",
":X c #2D3552",
">X c #2B324C",
",X c #2C334D",
"<X c #29304A",
"1X c #272E48",
"2X c #292F4A",
"3X c #272D48",
"4X c #202136",
"5X c #21243B",
"6X c #7D88A4",
"7X c #535D7B",
"8X c #36415F",
"9X c #343E5C",
"0X c #1D1C2F",
"qX c #414863",
"wX c #505B78",
"eX c #3D4866",
"rX c #2B334E",
"tX c #2C334F",
"yX c #435070",
"uX c #48516D",
"iX c #465373",
"pX c #2F3956",
"aX c #303A58",
"sX c #2E3753",
"dX c #343C57",
"fX c #2B324E",
"gX c #2C314A",
"hX c #333B57",
"jX c #2E3551",
"kX c #1B1A2C",
"lX c #1A182B",
"zX c #191728",
"xX c #2E3854",
"cX c #3F4967",
"vX c #3E435D",
"bX c #45475D",
"nX c #202237",
"mX c #2D2C40",
"MX c #4F5D7C",
"NX c #5A6887",
/* pixels */
"                . X o                           O + X @                       o X .                 ",
"        # $ %   . X o         & *       = $ -   O + X @         ; $ &         o X .   % $ :         ",
"  > , < 1 2 3 < 4 5 6 6 7 < < $ , 8 9 < 3 2 1 < 0 q w 1 e 2 < < r 2 $ < < 7 6 6 5 t < 3 2 1 < , >   ",
"  y u y y y y y i p a + + y y y y a s y y y y y d f g u s u y y y y y y y + + a h i y y y y y u y   ",
"j k l l l l l l z x l l l l l l l l l l l l l l c v b l l l l l l l l l l l l l x z l l l l l l k j ",
"n m M M M M M M N v B M M M M M M M M M M M M M M M M M V v C M M M M M M M M B v N M M M M M M m n ",
"  $ 2 Z A S 2 9 D v F A A A A A A A A A A Z 2 G A A A A H v J A A A A A A A A F v D 9 2 S A Z 2 $   ",
"  $ Z s X K L a P v I X X X X X X X X X X s L A X X X X U v Y X X X X X X X X I v P a L K X s Z $   ",
"  T R E X X X W Q v I 5 ! ! ! ! ~ X ^ / X X X ( ! ! ( X U v Y X X ~ ! ! ! ! 5 I v Q W X X X E R )   ",
"_ ` ' ] [ [ [ { } v |  .' ' ' ' ..[ X.Q [ [ [ o.' ' o.[ O.v +.[ [ ..' ' ' '  .| v } { [ [ [ ] ' ` _ ",
"@.#.$.$.$.$.F I I %.&.*.v *.&.&.&.&.=.-.&.{ v ;.:.>.,.&.<.I 1.&.&.&.&.&.*.v *.&.%.I I F $.$.$.$.#.@.",
"  $ 2.3.4.5.6.p 7.8.9.0.v 0.9.9.9.9.q.w.9.e.v r.9.7.t.9.R 7.y.9.9.9.9.9.0.v 0.9.8.7.p 6.5.4.3.2.$   ",
"  $ u./ i.9.p.8.9.9.9.0.v 0.9.9.9.9.9.9.9.e.v r.9.9.9.9.9.9.9.9.9.9.9.9.0.v 0.9.9.9.8.p.9.i./ u.$   ",
"  $ a.s.9.9.9.9.9.9.9.0.v 0.9.9.9.9.d.f.9.e.v r.9.9.9.9.9.f. .d.9.9.9.9.0.v 0.9.9.9.9.9.9.9.s.a.$   ",
"@.g.h.{ &.&.&.&.&.&.&.*.v *.&.&.&.&.j.} &.{ v ;.&.&.&.&.&.k.v j.&.&.&.&.*.v *.&.&.&.&.&.&.&.{ h.#.@.",
"v v v v v v v v v v v v v v v v v v v v v v v v v v v v v v v v v v v v v v v v v v v v v v v v v v ",
"b b b b b b b k.v l.b z.v z.l.v v v v v v v v v v v v v v v v v v v v l.z.v z.b l.v k.b b b b b b b ",
"x.c.v.b.p.n.n.m.k.M.N.B.V.%.&.v v v v v v v v v v v v v v v v v v v v &.%.V.B.N.M.k.,.n.n.p.b.C.c.x.",
"  S L 6 u X X Z.b A.S.g X 5 =.v v v v v v v v v v v v v v v v v v v v =.D.X g S.A.b n.X X u 6 L S   ",
"  Z F.L s X X Z.{ G.H.5 w J.K.L.v v v v v v v v v v v v v v v v v v L.K.J.w 5 H.G.{ n.X X s L F.Z   ",
"P.I.U.Y.T.R.R.E.d.W.Q.R.!.~.^./.v v v v v v v v v v v v v v v v v v /.^.~.!.R.Q.W.d.E.R.R.T.Y.U.I.P.",
"e.e.e.e.e.e.e.e.(.).e.e.e.0.v v v v v v v v v v v v v v v v v v v v v v Q e.e.e.).(.e.e.e.e.e.e.e.e.",
"_.`.'.].[.{.{.{.{.} f v }.q {.} v v v v v v v v v v v v v v v v v v } {.q }.v f L.{.{.{.{.[.].'.`._.",
"  |.y  X.X+ s ( XXw.j.v oX2.OX+Xv v v v v v v v v v v v v v v v v v +XOX2.@Xv j.w.XX( s + .X Xy |.  ",
"  #X$Xy X %XK v.t.9.j.v &XX *X;.v v v v v v v v v v v v v v v v v v ;.*XX =Xv j.9.t.v.K %XX y -X#X  ",
"  3 u S .Xs X X ;X:Xj.v &XX ;X>Xv v v v v v v v v v v v v v v v v v >X;XX =Xv j.:X;XX X s .XS u 3   ",
",X<X1X2X1X3X3X3X3Xt.j.v 4X3X3X5Xv v v v v v v v v v v v v v v v v v 5X3X3X4Xv j.t.3X3X3X3X1X2X1X<X,X",
"k.k.k.k.k.k.k.k.k.k.f v r.k.k.r.v v v v v v v v v v v v v v v v v v r.k.k.r.v f k.k.k.k.k.k.k.k.k.k.",
"6X7X8X9X0Xv qXwXeX9X9XrXtXv.{ v v v v v v v v v v v v v v v v v v v v { v.tXrX9X9XeXwXqXv 0X9X8X7X6X",
"  yX%Xu l v uXiX+ X X E / i.s./.v v v v v v v v v v v v v v v v v v /.s.i.pXE X X + iXuXv l u %XyX  ",
"  8 A s l v uXS A X X aXpXsX5X} v v v v v v v v v v v v v v v v v v } 5XsX/ aXX X A S uXv l s A 8   ",
"G.dXtXfXl.v gXhXjXfXfXq.q.2X&.v v v v v v v v v v v v v v v v v v v v &.<Xq.q.fXfXjXhXgXv kXfXtXdXG.",
"(.(.(.(.r.v l.(.(.(.(.(.(.(.lXv v v v v v v v v v v v v v v v v v v v lX(.(.(.(.(.(.(.l.v r.(.(.(.(.",
"v v v v v v v v v v v v v v v v v v v v v v v v v v v v v v v v v v v v v v v v v v v v v v v v v v ",
"v v v v v v v v v v v v v v v v v v v v v v v v v v v v v v v v v v v v v v v v v v v v v v v v v v ",
"@.#.h.{ &.&.&.&.&.&.&.*.v *.&.&.&.&.j.} &.{ v ;.&.&.&.&.&.zXv j.&.&.&.&.*.v *.&.&.&.&.&.&.&.{ h.#.@.",
"  $ a.s.9.9.9.9.9.9.9.0.v 0.9.9.9.9.d.f.9.e.v r.9.9.9.9.9.f. .d.9.9.9.9.0.v 0.9.9.9.9.9.9.9.s.a.$   ",
"  $ u.pXi.9.p.8.9.9.9.0.v 0.9.9.9.9.9.9.9.e.v r.9.9.9.9.9.9.9.9.9.9.9.9.0.v 0.9.9.9.8.p.9.i.pXu.$   ",
"  $ 2.3.4.5.6.p xX8.9.0.v 0.9.9.9.9.q.w.9.e.v r.9.7.t.9.R xXy.9.9.9.9.9.0.v 0.9.8.xXp 6.5.cX3.2.$   ",
"@.g.vXvXvXvXF I I %.&.*.v *.&.&.&.&.=.-.&.{ v ;.&.>.,.&.<.I 1.&.&.&.&.&.*.v *.&.%.I I F vXvXvXvXg.@.",
"bX` ' ] [ [ [ { } v | nX' ' ' ' ..[ X.Q [ [ [ o.' ' o.[ O.v V.[ [ ..' ' ' ' nX| v } { [ [ [ ] ' ` bX",
"  ) R E X X X W Q v I 5 w.w.w.w.aXX ^ / X X X ( w.w.( X U v Y X X ~ w.w.w.w.5 I v Q W X X X E R )   ",
"  $ Z s X K L a P v I X X X X X X X X X X s L A X X X X U v Y X X X X X X X X I v P a L K X s Z $   ",
"  $ 2 Z A S 2 9 D v F A A A A A A A A A A Z 2 G A A A A H v J A A A A A A A A F v D 9 2 S A Z 2 $   ",
"n m M M M M M M N v B M M M M M M M M M M M M M M M M M V v C M M M M M M M M B v N M M M M M M m n ",
"mXk l l l l l l z x l l l l l l l l l l l l l l c v b l l l l l l l l l l l l l x z l l l l l l k mX",
"  y u y y y y y i p a + + y y y y a s y y y y y d f g u s u y y y y y y y + + a h i y y y y y u y   ",
"  > , < 1 2 3 < t 5 6 6 MX< < $ , 8 9 < 3 2 1 < 0 q w NX> 2 < < , 2 $ < < 7 6 6 5 t < 3 2 1 < , >   ",
"        # $ %   . X o         & *       = $ -   O + X @         ; $ &         o X .   % $ :         ",
"                . X o                           O + X @                       o X .                 "
};
