/* XPM */
static char *result[] = {
/* columns rows colors chars-per-pixel */
"50 50 159 2 ",
"   c #3F2832",
".  c #422C35",
"X  c #4B2E34",
"o  c #4E3135",
"O  c #46353C",
"+  c #49353E",
"@  c #47383F",
"#  c #4E393E",
"$  c #543335",
"%  c #5B3636",
"&  c #593A35",
"*  c #52373D",
"=  c #583639",
"-  c #56393B",
";  c #5C3B3B",
":  c #633B37",
">  c #693D37",
",  c #633C3A",
"<  c #6B3D39",
"1  c #743F39",
"2  c #614736",
"3  c #6A4437",
"4  c #644936",
"5  c #6D4837",
"6  c #6D423B",
"7  c #654939",
"8  c #74423B",
"9  c #7B453A",
"0  c #7B493A",
"q  c #4B3B43",
"w  c #523D45",
"e  c #4B4146",
"r  c #4F484C",
"t  c #534146",
"y  c #5B4445",
"u  c #54424A",
"i  c #59474E",
"p  c #514B4E",
"a  c #5A4C4E",
"s  c #524D50",
"d  c #5D4E55",
"f  c #575456",
"g  c #5A5759",
"h  c #5E5A5C",
"j  c #674242",
"k  c #6A4440",
"l  c #624847",
"z  c #6A4B4B",
"x  c #764742",
"c  c #734A45",
"v  c #734D4B",
"b  c #6B514E",
"n  c #73514F",
"m  c #78524F",
"M  c #624E55",
"N  c #655557",
"B  c #6A5556",
"V  c #63545A",
"C  c #625A5E",
"Z  c #6E595C",
"A  c #735553",
"S  c #7C5552",
"D  c #7F5855",
"F  c #725A59",
"G  c #795D5D",
"H  c #7C605A",
"J  c #625E61",
"K  c #6C5C62",
"L  c #715E61",
"P  c #666265",
"I  c #6B6165",
"U  c #6A6669",
"Y  c #6E696C",
"T  c #726366",
"R  c #7B6161",
"E  c #73656A",
"W  c #74696E",
"Q  c #7B6A6B",
"!  c #726D70",
"~  c #796E73",
"^  c #757074",
"/  c #7C7275",
"(  c #7C777B",
")  c #7F7A7C",
"_  c #844B3B",
"`  c #894F3C",
"'  c #81543B",
"]  c #8D523C",
"[  c #84583A",
"{  c #91553C",
"}  c #96583D",
"|  c #995A3F",
" . c #88613C",
".. c #8D6E3C",
"X. c #9C643D",
"o. c #9E6B3D",
"O. c #A7713E",
"+. c #A8713E",
"@. c #804E41",
"#. c #865141",
"$. c #8C5443",
"%. c #80564B",
"&. c #925543",
"*. c #945942",
"=. c #9C5D41",
"-. c #A05F43",
";. c #8B6142",
":. c #946243",
">. c #926E44",
",. c #8E6252",
"<. c #82615F",
"1. c #966856",
"2. c #A36244",
"3. c #A96547",
"4. c #A46C43",
"5. c #A56349",
"6. c #AA6649",
"7. c #AD684C",
"8. c #B16A4D",
"9. c #A67147",
"0. c #A67E41",
"q. c #AC7D4A",
"w. c #B17E42",
"e. c #BD7D41",
"r. c #826260",
"t. c #826867",
"y. c #8D6F66",
"u. c #866C6C",
"i. c #96776C",
"p. c #817071",
"a. c #817779",
"s. c #827B7F",
"d. c #8C7B7C",
"f. c #B59340",
"g. c #B99542",
"h. c #BE944D",
"j. c #C68645",
"k. c #CF8D43",
"l. c #C88C49",
"z. c #C39147",
"x. c #C49B46",
"c. c #CA914D",
"v. c #DB9A48",
"b. c #CC9751",
"n. c #D5A44D",
"m. c #DFB945",
"M. c #E0A34E",
"N. c #E2B84B",
"B. c #E5AD53",
"V. c #E6B752",
"C. c #EAB659",
"Z. c #867E82",
"A. c #8B7F82",
"S. c #878285",
"D. c #8D8385",
"F. c #8C878A",
"G. c #928384",
"H. c #918A8D",
"J. c None",
/* pixels */
"J.J.J.J.J.J.J.J.J..                                                               J.J.J.J.J.J.J.J.J.",
"J.J.J.J.J.J.J.J.J..                                               .               J.J.J.J.J.J.J.J.J.",
"J.J.J.J.J.J.J.J.J.X X X X X X o o * $ o o o o o o o X o o o o X X o o o X X X X . J.J.J.J.J.J.J.J.J.",
"J.J.J.J.J.J.J.J.X X o $ % : : < 6 8 k 8 6 6 3 : , , : : & : : : : , 6 1 6 , = $ o X J.J.J.J.J.J.J.J.",
"J.J.J.J.J.J.J.  X o : : < 9 _ @.$.*.*.*.$.%.0 0 0 0 0 0 0 0 0 0 1 _ #.&.$.9 < % % X   J.J.J.J.J.J.J.",
"J.J.J.J.J.J.    X % > 1 _ ` { -.6.8.7.8.7.3.=.] ] { ] { ] { { ] { | -.7.5.&.1 > $ X     J.J.J.J.J.J.",
"J.J.J.J.J.J.O + * , < 9 _ { | -.7.7.8.8.7.3.=.} } } } } } } } } *.-.-.7.5.&.@.1 , $ O q J.J.J.J.J.J.",
"J.J.J.J.J.q t u i j 1 9 _ { } -.5.3.6.3.6.2.=.} } } } } } } } } &.-.-.-.-.&.x 1 j i u w q J.J.J.J.J.",
"J.J.J.J.  q w J V z 8 1 _ { =.=.=.-.-.=.=.| } } } } } } } } } } } | -.-.} ` @.1 z V h i q   J.J.J.J.",
"J.J.J.  . q M K L A x 9 _ { } } } } } } } } } } } } } } } } } } } } } } { _ 1 x A L K d q     J.J.J.",
"J.J.J.w w i V L F n x 1 _ _ ] ] { { { } } } } } } } } } } } { { ] ] ] ] ` _ 1 9 n F L V i w w J.J.J.",
"J.J.t M K K Z A n c 9 1 9 _ _ _ _ ` ] } } } } } } } } } } } { ] ` _ _ _ _ 9 1 1 c n A K K K K w J.J.",
"    i K / Q <.v x x 1 1 1 9 _ 9 _ _ _ ] } } } } } } } } } } ] _ _ _ 1 _ 9 9 1 1 x c v G u.p.K w     ",
"    i W H.A.<.x 1 1 1 1 1 1 1 1 1 1 _ ] } } } } } } } } } } ] _ 1 1 1 1 1 1 1 1 1 1 x <.d.H.W i     ",
"    i W H.d.<.x 1 1 1 1 1 1 1 1 1 1 9 _ ] ] ] ] ` ] ` ] ] ] _ 0 1 1 1 1 1 1 1 1 1 1 x <.d.H.W i     ",
"    i ! H.d.<.x 1 1 1 1 1 1 1 1 1 1 1 _ _ _ _ _ _ _ _ _ _ _ _ 9 1 1 1 1 1 1 1 1 1 1 x <.A.H.W i     ",
"  . i W H.d.r.x 1 1 1 1 1 1 1 1 1 1 _ 1 9 9 9 9 9 9 9 9 9 9 9 1 8 1 1 1 1 1 1 1 1 1 x r.d.H.W i     ",
"  . i W H.d.r.x 8 1 8 1 8 8 8 8 1 1 9 1 8 8 x 9 8 8 1 1 x 1 1 x 1 8 1 8 1 8 1 1 8 1 v r.d.H.W i     ",
"    i W H.A.u.m v v v v v v v v v v m %.D D <.%.<.%.D <.%.<.%.m v v v v v v v v v v S t.A.H.W i     ",
"    i W H.G.~ G F F F F B F F F F F G t.u.u.u.u.u.u.u.u.u.u.u.L F F F F F F F F A F L p.G.H.W i     ",
"    i E H.F.( W T T T T T T T E T Q / d.D.G.D.D.G.G.A.D.A.A.A.p.E T T E E T T E T E W ( F.H.W i     ",
"    i W H.F.Z.! ! W ! Y Y Y Y Y Y ! ( S.H.H.H.H.H.H.H.H.H.H.Z.Z.! Y Y Y Y Y Y Y ! W ^ s.F.H.W i     ",
"  . i E H.F.Z.^ ! U P P P P P P K U ! ^ ) ) ) ( Z.( ( ( ( s.~ W U P P P P P P U U Y ~ s.F.H.W i     ",
"  . i W H.F.s.^ U P J h P h h h h J P P Y Y Y Y Y Y Y Y Y Y U J J h J C h h h J P Y ^ s.F.H.W i     ",
"    i W H.F.Z.! U P g f f f f f f f f g g g g g h g g g g g g g f f f f f f f g J U ~ Z.F.H.W i     ",
"    i T Z.Z.~ W P V s p p p p r p p p r s p p r p s p r s s p p s r r s s r r s h K W / Z.Z.L i     ",
"    u V E E L F B a e e e e e e e e e e e e e e q q q e e e e e q e q q e e e r d N F L E E C i     ",
"J.J.w i d M b n z y # O @ O O O @ O O O @ @ @ @ q q O O O @ O O O @ O O O O O q w z v z M d u w J.J.",
"J.J.J.O O $ , < > $ o   . . . .         . . .   . . . .     O   . . .   . . . . % < 6 , * O O J.J.J.",
"J.J.J.  . X : 8 1 : $ o X X X X X X # & & o X         . O & & o X X X X X X X $ : 1 1 , o     J.J.J.",
"J.J.J.  . o , 1 9 8 > : % $ $ $ $ & 4 0 0 5 $         $ 5 ' 0 2 % $ $ $ $ % : 3 8 9 9 : $     J.J.J.",
"J.J.J.  . $ 1 _ ` _ 9 1 1 > : : : > [ o.O.[ 2         2 [ +.X.' < : : : > 8 0 0 _ ` _ < $     J.J.J.",
"J.J.J.    $ 8 ] } { { ` _ 9 < < 1 9 X.e.k.o.5         5 o.k.e.X.9 < 1 1 9 _ ` { } } ] 3 $     J.J.J.",
"J.J.J.    = 8 } :.| } { _ 9 1 1 1 0 2.j.v.w. .2 2 2 2  .w.v.j.2._ 1 1 1 9 _ ] } } } ] 8 $ .   J.J.J.",
"J.J.J.    & x =.2.=.} { ` 1 1 1 1 _ 4.l.M.z.0.........0.z.M.l.4.0 1 1 1 9 _ ] } } } ] 8 $     J.J.J.",
"J.J.J.    & #.5.3.2.| { ` 9 1 1 1 0 4.c.B.n.x.f.f.f.f.x.n.B.c.4._ 1 1 1 9 _ { } } } ] 5 $     J.J.J.",
"J.J.J.    ; $.7.8.-.| { ` 9 1 1 1 0 9.b.C.V.N.m.m.m.N.N.V.C.c.1.0 1 1 1 9 _ { } } } { 8 %     J.J.J.",
"J.J.J.  . ; x 5.6.-.| { _ 1 1 1 8 9 :.q.h.h.g.g.f.f.g.g.h.z.f.:.9 1 1 1 9 _ { } } } ] 5 $ .   J.J.J.",
"J.J.J.    % 0 =.-.-.} { _ 9 1 1 1 9 #.;.>.>.............>.>.;.#.9 1 1 1 9 _ { } } } ] 5 $     J.J.J.",
"J.J.J.    $ 9 *.=.=.} { _ 9 1 1 8 9 6 7 7 7 4 4 4 4 4 4 7 4 7 8 8 1 1 1 9 _ { } } } ] 8 $     J.J.J.",
"J.J.J.    $ 8 $.| | *.{ _ 1 1 1 8 < % X . .                 o & < 8 8 8 9 _ &.*.} } ] 5 $     J.J.J.",
"J.J.J.    - c ,.1.1.1.1.%.x k c 7 j w - O O O O O O O O O O - ; j j 6 k c %.,.1.1.1.,.v -     J.J.J.",
"J.J.J.    w A y.i.i.i.i.G b l l l 7 r e q q q q e q q e q e e y y l y l b H y.i.i.i.y.A w     J.J.J.",
"J.J.J.. . t L A.A.A.G.i.Q N i d a a p p r r r r r r r r r r p p a a a a N Q d.G.G.G.d.R y     J.J.J.",
"J.J.J.    w L Z.H.H.H.Z.W h p s s s s s s s s s s s s s s s s s s s s s g Y Z.H.H.H.Z.L u     J.J.J.",
"J.J.J.    q V W ~ ~ ~ E V p e e r r e e e e e e e e e e e e e e e e e r i J E ~ ~ ~ W V q .   J.J.J.",
"J.J.J.    X u d V V V d u e @ @ e     e e   e e @ e q   q @ @ q @ @ @ @ w i M M V V M w O     J.J.J.",
"J.J.J.  . . O + # + q # O . O . e     e             q   . . . . O . . . . . q q q q + O .     J.J.J.",
"J.J.J.                                                                                        J.J.J.",
"J.J.J.                                                                                        J.J.J."
};
