/* XPM */
static char *a2395930093b4ca2c861023cc0d026b7fQtxzTu5gzJx9LZl[] = {
/* columns rows colors chars-per-pixel */
"50 50 240 2 ",
"   c #170C00",
".  c #1A1300",
"X  c #1C1A01",
"o  c #161701",
"O  c #230B00",
"+  c #2A1603",
"@  c #2B1B02",
"#  c #281905",
"$  c #381A05",
"%  c #1C2403",
"&  c #2C2804",
"*  c #332203",
"=  c #3A2309",
"-  c #382A09",
";  c #3A3407",
":  c #3A2916",
">  c #3D3A14",
",  c #2C2D0D",
"<  c #471902",
"1  c #521F02",
"2  c #4B230C",
"3  c #462906",
"4  c #453308",
"5  c #472914",
"6  c #592D16",
"7  c #453717",
"8  c #573619",
"9  c #55310A",
"0  c #65371C",
"q  c #4A3926",
"w  c #593A2B",
"e  c #573826",
"r  c #613D2A",
"t  c #713B21",
"y  c #394217",
"u  c #324002",
"i  c #454809",
"p  c #4D451A",
"a  c #58461A",
"s  c #515812",
"d  c #63441D",
"f  c #7B4B1A",
"g  c #76641B",
"h  c #564727",
"j  c #5C4736",
"k  c #56522B",
"l  c #664728",
"z  c #754529",
"x  c #655728",
"c  c #6B4C32",
"v  c #664734",
"b  c #764C35",
"n  c #68553A",
"m  c #79553A",
"M  c #735524",
"N  c #7B6826",
"B  c #6A6A39",
"V  c #79683B",
"C  c #75773B",
"Z  c #6E712A",
"A  c #586537",
"S  c #7C5844",
"D  c #6A5041",
"F  c #786446",
"G  c #6F7448",
"H  c #787847",
"J  c #696647",
"K  c #87592B",
"L  c #835639",
"P  c #8A5637",
"I  c #836927",
"U  c #846B31",
"Y  c #846439",
"T  c #946838",
"R  c #867939",
"E  c #97753B",
"W  c #825A42",
"Q  c #8C5F4A",
"!  c #925E46",
"~  c #866647",
"^  c #976949",
"/  c #8C7A44",
"(  c #867346",
")  c #9A7746",
"_  c #876853",
"`  c #9C6D52",
"'  c #966C56",
"]  c #877558",
"[  c #99765A",
"{  c #A16D49",
"}  c #A87747",
"|  c #A87958",
" . c #B17B5F",
".. c #9A7A67",
"X. c #A57B64",
"o. c #AA7E71",
"O. c #768C37",
"+. c #788748",
"@. c #7F8754",
"#. c #89893E",
"$. c #89854B",
"%. c #998848",
"&. c #989242",
"*. c #878757",
"=. c #968A56",
"-. c #9A945A",
";. c #859450",
":. c #A78648",
">. c #A2934B",
",. c #A39B4A",
"<. c #A88659",
"1. c #B68857",
"2. c #A99658",
"3. c #B5995D",
"4. c #99AF5B",
"5. c #B1AA5A",
"6. c #AA8469",
"7. c #B88A69",
"8. c #B99868",
"9. c #AC8B74",
"0. c #B38C74",
"q. c #B89279",
"w. c #AA926C",
"e. c #9CAB67",
"r. c #A1A26C",
"t. c #A9A969",
"y. c #B8A663",
"u. c #A9B568",
"i. c #BBB665",
"p. c #B7AC74",
"a. c #ADB77A",
"s. c #B8B577",
"d. c #AAA979",
"f. c #C28B66",
"g. c #C48D6C",
"h. c #C6926C",
"j. c #C79669",
"k. c #C79977",
"l. c #D09977",
"z. c #C5A76C",
"x. c #C9A873",
"c. c #D7A677",
"v. c #CDAF74",
"b. c #B5CD65",
"n. c #BACE65",
"m. c #B4CD6B",
"M. c #BCCE6B",
"N. c #B6C367",
"B. c #B3D463",
"V. c #BBD266",
"C. c #B6D36A",
"Z. c #BCD46D",
"A. c #BDD96D",
"S. c #BADA66",
"D. c #BCCD73",
"F. c #BDCD7B",
"G. c #B9C879",
"H. c #BDD572",
"J. c #BED972",
"K. c #BDD579",
"L. c #B9D374",
"P. c #ADCB64",
"I. c #AFD25E",
"U. c #C3CD6C",
"Y. c #C3CA68",
"T. c #C2D46D",
"R. c #C9D36A",
"E. c #C2D96D",
"W. c #C7D067",
"Q. c #C3CD73",
"!. c #CBCB74",
"~. c #C2CD7B",
"^. c #CCCD7B",
"/. c #C8C577",
"(. c #D3CD7C",
"). c #D3C77C",
"_. c #C2D472",
"`. c #CAD273",
"'. c #C3DA74",
"]. c #C4D47A",
"[. c #CAD37B",
"{. c #C3DA7B",
"}. c #CBDB7C",
"|. c #C8DA76",
" X c #D4D37A",
".X c #C7E27C",
"XX c #B99384",
"oX c #B28E82",
"OX c #AFAD89",
"+X c #C89A83",
"@X c #CC9C90",
"#X c #C9A587",
"$X c #D5A887",
"%X c #C9BB83",
"&X c #D9B48B",
"*X c #DBAD97",
"=X c #DAB997",
"-X c #E5B687",
";X c #EBBD93",
":X c #E5B899",
">X c #E9B58E",
",X c #E7B8A1",
"<X c #BAC683",
"1X c #C4CC82",
"2X c #CACC82",
"3X c #C3CC8A",
"4X c #CDCC8A",
"5X c #C7C686",
"6X c #D6C887",
"7X c #C4D383",
"8X c #CAD484",
"9X c #C9DA83",
"0X c #CCD489",
"qX c #C7D889",
"wX c #D3D381",
"eX c #D2D38B",
"rX c #D6D58A",
"tX c #C8C994",
"yX c #CBD696",
"uX c #D5D694",
"iX c #E8C28E",
"pX c #F2C18E",
"aX c #E7C693",
"sX c #F4CD96",
"dX c #F5CA9A",
"fX c #FBCD9C",
"gX c #F4C598",
"hX c #F7D49C",
"jX c #FBD29D",
"kX c #F7D097",
"lX c #D2D6A8",
"zX c #EEC6A7",
"xX c #FBCDA3",
"cX c #F7C9A8",
"vX c #FED3A3",
"bX c #FFD2A8",
"nX c #FCD8A8",
"mX c #F7CBB4",
"MX c #FBD6B5",
"NX c #EFD7AB",
/* pixels */
"u.N.n.W.R.T.E.A.J.C.{.{.D.Q.[.!.(.6Xx.E M K | h.g.} K f K 1.v.6X6XwX^.!.`.R.`.T.'.J.H.H._._._.T._._.",
"N.N.T.R.E.T.E.A.'.J.K.H.D.[.[.i.5.3.2.) ) | h.l.c.h.1.1.1.j.z.3.y.^.wX!.`.`._._._.H.H.H.H._.T.T._._.",
"b.M.T.E.E.E.E.J.H.{.L.D.D.[. X,.N I E <.c.;XgXdXxXgXpXiX-Xv.2.U #.i.(.!. X`.T.'.Z.C.C.L.Z.Z._.T.T._.",
"b.n.V.T.T.T.J.J.H.{.D.].^.wX(.,.g I ) x.dXbXbXbXbXvXvXvXhXaXz.%.R &.i.!.`.`.T.E.Z.C.C.L.H._._._._._.",
"b.C.V.Z.Z.Z.H.H.K.].Q.8XwX).z.:.E ) 8.iXvXvXxXxXfXdXsXkXkXkXiXv.%.N ,.!.`.U.T.V.Z.C.C.C.H._._._._.`.",
"C.V.A.A.Z.Z.L.L.].D.D.^.(.i.:.E } 1.c.gXbXvXxXvXvXjXjXsXsXhXhXaXy.g &. X`.U.E.V.Z.C.C.C.C.H.H.H.].].",
"S.S.A.J.H.H.L.L.L.D.Q./.).3.I T 1.f.c.-XgXxXxXfXfXjXjXkXkXnXnXhXz.N ,. X`.T.E.T.T.Z.Z.H.H.H.C.H._.`.",
"B.B.C.J.J.K.K.L.D.D.Q./.(.y.I E f.f.7.h.-XfXvXfXfXjXjXjXsXvXvXsX3.I ,.!.U.T.T.E.'.J.H.H.H.J.H.H._._.",
"I.B.C.J.J.K.K.K.D.].N.!.).y.U E h.f.f.g.h.h.h.j.c.-XfXjXjXfXxXvXz.N >.(.`.T.T.E.Z.Z.H.H.H.J.H.H.H.L.",
"I.B.C.H.K.K.K.K.K.{.Q.[.rXy.N E h.g.g.f.| T P { 1.l.pXfXdXxXxXdXz.U >.!.[.|.E.V.Z.Z.H.H.H.H.A.H.H.H.",
"B.B.V.H.H.K.K.H.H.Z.M.[.rX2.a Y 7. .! z ^ g.k.h.} } j.gXbXbXzX>X8.U %./.[.|.'.C.Z.Z.Z.Z.Z.Z.C.H.H.H.",
"A.E.'.'._._.H.H.'.Z._.[.rX%.3 l X.' z < L :XbX;X7.} 1.c.>X>X$Xk.) M %.^.].].H.J.Z.Z.T.T.Z.Z.C.C.H.L.",
"E.E._._._._.H.Z.'.Z.'.].8X$.; 7 _ S r < W :X:Xl.$Xc.f.| | | | 0.~ 9 R 2X9XH.C.'.Z.T.T.T.T.Z.A.Z.H._.",
"W.U.T._._._._.Z.A.V.A._.7Xr.B h h n v $ m *X*X$XpXpXl.1.| m m q.^ 3 N 5X9XK.H.C.Z.T.E.E.T.E.A.J._._.",
"n.Y.U.Q.`._.T.A.S.S.'.{.qX3XOXJ # j D $ w q.&XcXxX;Xj.&X:Xm 8 #X6.9 V 5X7XK.J.C.Z.T.E.T.T.T.A.A._._.",
"Y.Y.Q.`.`.]._.A.S.S.A.C.F.yXyXG X , : # w ..0.:XcX;Xk.:XMX~ 6 #X#Xl / 4X1XD.{.J.Z.Z.T.T.T.Z.V.Z.Z.Q.",
"Y.Q.`.].]._.H.Z.Z.V.E.'.D.qX<X@., X X # 7 n [ 0.:X:Xk.,XmXQ t #X#XV -.4X~.}.{.H.C.Z._._._.Z.C.V.M.M.",
"U.Q.].].].L.C.C.Z.n.R._.M.9X7Xu.@.y X   # 5 c [ q.$X+X@X*Xo.' k.w.V -.5X8X{.H.'.C.Z.H._.J.H.C.C.C.M.",
"U._.].].H.L.m.b.V.n.T._.H.K.7XqX<XG > X O + 5 c W X.o.9.XXXX0.6.( x =.4X0X].L.'.H.H.H.H.H.H.Z.H.H._.",
"_._.]._.L.L.m.b.n.V.T.E._.D.F.7XqXa.*.> + + $ $ 2 e S ..oXXX9.] h 4 R 1X~.D._.C.H.H.H.H.H.H.H.H._._.",
"_._._._.H.H.C.n.n.T.T.T._._.D.F.7XuXd.7 @ 5 8 2 $ $ 5 D _ F n h p x -.G.]._.H.C.'.Z.H.Z.Z.H.Z._._.`.",
"_._._.H.H.H.Z.Z.V.R.W.n.].}.{.~.D.0Xt.7 - l m c 2 $ $ $ $ : - & x p.2XG.9X}.C.'.Z.Z.H.Z.Z._.T._._.`.",
"_._.Z.Z.Z.A.A.T.E.T.T.T._.|.[.].[.0Xt.x h m m b 0 8 8 $ + k H H =.0XeXD._.H.b.V.Z.Z.Z.Z.Z.Z.T._._.[.",
"_._.Z.C.V.A.A.E.E.T.T.`._._._.Q.`.wXs.V V ~ W m Y L ~ l 4 *.tX5X5X1X7X9XH.C.A.V.Z.Z.Z.Z.T.T.Z.T.].[.",
"T.Z.Z.C.V.V.A.T.T.T.T._._._._._.`.(.p.V ~ 6.^ ^ 8.$X$X<.x =.5XeX8XF.].}.C.C.A.Z.Z.Z._._.T.T.T.T._._.",
"T.T.Z.V.Z.Z.Z.T.T.T._._._._._._.U.^.s.( ' 0.^ ^ c.vXvX8.U y.rX2X8XF.D.H.C.A.'.A.Z.T._.T.T.T.T.T._._.",
"_._._.Z.Z.A.Z.Z.T._._._._._._._.Q.wXs.~ _ 0.` ^ c.vXjX3.N 2.6X2X8X].].H.H.J.'.V.Z.T.T.T.T.T.T.Z._._.",
"`.`._.T.A.A.Z.Z._._._._._._._._.[.wXp.x c ` ` | -XfX-X:.U y.rXrX~.].].{.'.Z.C.C.T.T._._.T.T.Z.V._._.",
"[._._.T.E.A.Z.Z._._.].].]._._._.].0Xr.7 5 W ` f.-XpXx.) Y 8.%X4X2XF.D.H.'.Z.C.Z._._._._.E.T.Z.V.Z.H.",
"[.`._.T.E.A.A.Z._._.].]._._._._.L.0Xr.; = S | k.c.c.1.) M M ( s.eX7XD.D._.'.Z.'._._.T.T.E.T.Z.V.C.C.",
"[.[._.T.T.Z.Z.Z._._.].].]._.T.H.K.qXr.7 5 S ` 7.j.j.1.<.L 9 8 =.s.1X9XL.H.H.T.'._.T.T.T.E.T.V.n.M.m.",
"].`._.T.Z.Z.T.T._._.].]._._._.H.].qXr.> 3 m W ` | j.7.7.| F 8 p H s.uX7XD.C.C.'.T.T.U.T.T.T.V.b.M.M.",
"_._._.H.Z.T.T.T._._._._._._.H.H.L.0Xu.C a a c m  .k.$X&X+X[ c @ > @.a.3X].H.C.'.V.T.T._.T.T.T.M.M.D.",
"H.H.H.H.H.T.T.T.T.T._._._._.H._.D.~.1Xs./ 4 9 ~ ' +X,XMXzX6.l * . > *.<X7XL.Z.Z.Z.T._._._.T.T.V.H.H.",
"H.H.H.H.Z.T.T.T.T.T.T._._._._._.].].8X4Xs.( d 8 6.+X*XmXmX9.l -   X B 3XqX_.'.Z.Z.T._._._.E.E.T._._.",
"H.H.H.H.Z.Z.T.T.T.T._._._._._._._.Q.~.eXuXp.Y 9 ^ |  .k.#XX.c = @ & H 3X9XH.T.V.Z.T._._._._.T.T._._.",
"H.H.H.H._._._._._._._._._._._._.U.].8XeXuX6X<.d 6 0 0 z b m v = * p =.3X9XL.H.T.Z.T._._._._.T._._.H.",
"H.H.H.H.H._._._._._._._._._._.H.`.[.[./.%Xv.<.m 9 1 < < 2 l c $ - n r.3XqX{._.'.T.T._._._._._._.H.H.",
"H.H.H.H.H.H._._._._._._._._._._.}.M.~.2Xt./ ) 6.P z t z b S v $ - k -.<X7XL.Z.Z._._._._._._._._.H.H.",
"H.H.H.Z.Z.H._._.T.T.T.T._._._._.}.[.~.t.$./ <.<.| { P L L v w 7 - p $.G.]._.'.'._._._._._._.H.H.H.H.",
"T.T.T.Z.V.V.Z._._.M.Z._.T.Z.T.H.Q.~.u.R / 8.8.7.7.| ! L b e : j h ; C 3X9XH.'.C.T._._.]._._.H.C.H.H.",
"T.T.T.Z.V.Z._._._._.Z.Z.Z._.'.].N.#.Z C -.%XaX&Xk. .^ t 5 e e 7 k G t.7X]._.'.Z.T.T._._._.H.C.C.m.m.",
"R.T.T.T.V.Z._._.H.'.H.M.Z.'.'.{.G.s i $.%XNXMXzX$X| L 6 2 w j q J a.yX1X].'.Z.T.T.T._._._.H.C.C.m.m.",
"R.W.T.T.M.V.Z.H.Z.'._.C._._.H.{.a.i ; $.=XNXmXzX$X` 6 2 r e q ] d.tXyXF.{.'.n.E.T._._._.'.J.Z.C.m.m.",
"R.R.W.T.M.M.Z.Z.C.H.H.H.H.Z.H.{.<X*.B V w.=XzXcX:X7.t 6 w $ : OXlXyX<XF.H.Z.V.E.T._._._.'.J.A.A.C.L.",
"R.R.W.T.U.M.M.C.H.C.C.H.C.J.J.D.<XOX*.p c 9.=XmXmX:X7.m 5 O q OXlX<XG.K.C.C.'.E.Z.Z._.H.H.A.A.C.H.K.",
"W.R.R.W.T.T.Z.Z.H.m.C.H.C.'.H.4.C H n * $ b 9.:X,X*X+XX.v : : J H +.4.K.H.V.E.A.Z.Z.T.H.H.Z.C.C.J.J.",
"W.R.R.T.T.T.H.H.H.m.H.H.C..XC.O.u & - & @ = b q.q.6.6.9...h . X % u O.L..XZ.V.C.T.T.T.T.T.A.A.H.J.J.",
"W.T.T.E._._._._.Z.C.C.C.H.H.b.u.;.$.$.*.n @ : w e e v j q : o o y ;.e.P.'.V.C.Z.H.Z.T.Z.Z.Z.H.H.K.K.",
"W.T.E.E._._._._.H.Z.C.m.C.H.Z.D.7X3X5XtX*.& . + O O # # # X o % A a.G.m.'.'.'.'.H.Z.Z.V.Z.Z.H.K.H.K."
};
