/* XPM */
static char *result[] = {
/* columns rows colors chars-per-pixel */
"50 50 135 2 ",
"   c #3F2832",
".  c #432A33",
"X  c #4C2C34",
"o  c #442F38",
"O  c #552C34",
"+  c #5B2D34",
"@  c #4E3035",
"#  c #45323A",
"$  c #4A343C",
"%  c #47383F",
"&  c #4A393F",
"*  c #533235",
"=  c #5D3436",
"-  c #5D3836",
";  c #563538",
":  c #5A363A",
">  c #5C3A3A",
",  c #602F35",
"<  c #633436",
"1  c #693637",
"2  c #643A37",
"3  c #6B3A37",
"4  c #63363A",
"5  c #653A3A",
"6  c #6D3B38",
"7  c #733E39",
"8  c #6C4037",
"9  c #6D413A",
"0  c #754139",
"q  c #7B443A",
"w  c #77483F",
"e  c #7C493B",
"r  c #4B3C42",
"t  c #513D45",
"y  c #583D40",
"u  c #533F48",
"i  c #653D44",
"p  c #693E43",
"a  c #4D4147",
"s  c #4E4449",
"d  c #4F484B",
"f  c #534246",
"g  c #54444C",
"h  c #5A464C",
"j  c #53494E",
"k  c #5B4A4F",
"l  c #564C51",
"z  c #5A4C52",
"x  c #5C5156",
"c  c #5E5459",
"v  c #634045",
"b  c #6A4645",
"n  c #634846",
"m  c #6E4B43",
"M  c #624449",
"N  c #6B454A",
"B  c #65484E",
"V  c #6C4A4C",
"C  c #754742",
"Z  c #794A42",
"A  c #714E4B",
"S  c #7C4F4A",
"D  c #6D514F",
"F  c #644D53",
"G  c #6D4C53",
"H  c #734E51",
"J  c #665257",
"K  c #6D5153",
"L  c #63555B",
"P  c #6D545A",
"I  c #63595E",
"U  c #695A5D",
"Y  c #765553",
"T  c #7D5654",
"R  c #7C5957",
"E  c #72555B",
"W  c #78575D",
"Q  c #755A5B",
"!  c #7C5E5A",
"~  c #665C61",
"^  c #6C5D63",
"/  c #745C62",
"(  c #795D63",
")  c #676165",
"_  c #6D6166",
"`  c #6E6469",
"'  c #736366",
"]  c #7C6166",
"[  c #72656A",
"{  c #746A6E",
"}  c #7C6B6E",
"|  c #7C6D72",
" . c #7B7176",
".. c #7E797B",
"X. c #834C3B",
"o. c #894E3C",
"O. c #8C523C",
"+. c #90553E",
"@. c #824E40",
"#. c #894E40",
"$. c #875041",
"%. c #8C5443",
"&. c #8F5945",
"*. c #86574E",
"=. c #815B4E",
"-. c #935743",
";. c #935844",
":. c #9A5B46",
">. c #905E4A",
",. c #805957",
"<. c #865E59",
"1. c #8E6255",
"2. c #A46249",
"3. c #A9664C",
"4. c #806361",
"5. c #8C6B66",
"6. c #81686C",
"7. c #926F64",
"8. c #886F75",
"9. c #827276",
"0. c #8B7374",
"q. c #81757A",
"w. c #8A7B7C",
"e. c #917B7C",
"r. c #95817D",
"t. c #8B7E83",
"y. c #8A8285",
"u. c #8B8488",
"i. c #8E888B",
"p. c #918185",
"a. c #908589",
"s. c #958B8D",
"d. c #958E91",
"f. c #9A9093",
"g. c None",
/* pixels */
"g.g.g.g.g.g.g.g.g.g.g.g.g.g.g.g.g.      .           . .   .       g.g.g.g.g.g.g.g.g.g.g.g.g.g.g.g.g.",
"g.g.g.g.g.g.g.g.g.g.g.g.g.g.g.g.; - - - - - - - - * X X X * X X * * X g.g.g.g.g.g.g.g.g.g.g.g.g.g.g.",
"g.g.g.g.g.g.g.g.g.g.g.X X o @ - 8 8 8 0 8 0 0 8 8 3 2 2 = 2 2 = = = ; @ X o . . g.g.g.g.g.g.g.g.g.g.",
"g.g.g.g.g.g.g.g.g.5 m 0 9 9 6 8 8 8 0 X.O.X.X.X.q 8 8 7 3 3 3 2 ; 2 5 9 9 2 * O X . g.g.g.g.g.g.g.g.",
"g.g.g.g.g.g.g.> p w @.@.Z e 0 9 > - 8 o.+.O.X.e X.q 7 7 0 3 3 = * < 9 $.@.0 2 + O X . . g.g.g.g.g.g.",
"g.g.g.g.g.: 9 Z @.#.#.-.O.o.e 6 ; @ - e O.X.X.0 7 0 7 7 3 1 , * . = w O.-.X.0 1 < + X X . . g.g.g.g.",
"g.g.g.g.. ; 9 @.#.@.X.Z q q 7 4 * @ - e O.X.e q 7 7 0 3 1 < + O . * 9 o.%.X.q 7 < = + O X . . g.g.g.",
"g.g.g.X X : 9 e @.q 7 7 7 7 1 : @ @ - e o.e e 8 7 7 3 3 < + O X . * 2 e X.e 7 7 3 < + O X . X g.g.g.",
"g.g.* - 2 8 8 0 7 7 1 1 1 1 4 + X X : 6 X.7 p 1 1 3 < < < + O X X O = 3 7 6 3 1 1 1 < = O X X . .   ",
"    * 2 0 0 7 6 3 < < 4 i N N B h B K R <.,.,.H A w H N N i i h u u B N b p 4 , < < < < < , O X . . ",
"    * 2 q 0 7 1 1 1 4 p G E / / ^ ^ 6.0.e.8.6.( ! ( ( / ^ U L U ~ ^ ~ F B M i i 4 < < < < < = X . . ",
"    * - 3 1 1 , i N W ( / / ^ / ^ [ 9.p.f.t.q.[ ' ' _ _ ^ [ [ ^ ^ ~ J c z J P G M : = < 1 3 = X . . ",
"    @ = 6 3 < , p ( 8.8.[ ~ u h h z ^ q.t. .^ u z g g z L ) ~ c g g u r j L ' _ F t @ : 2 6 < * . . ",
"    @ = 3 3 1 , N ( t.t./ h r o . # z `  .~ z r o .   r j L l t r o     r z ` { L u # ; 6 3 - * . . ",
"    @ = 3 3 < , p / 9.| ~ u o o . o z ^  .~ g   . .   # d c l a o     . # g L ~ j r X ; 2 3 < X . . ",
"    X = 6 3 < , p E | [ J u o o . o z `  .~ g r o .   r l I x g # . . . o r l l u $ o * 2 3 - * . . ",
"    @ < 6 1 < , i P | [ L t o .   o z ` ..~ j o o .   r z ^ I d # .     # r d d r % o * < 6 = @   X ",
"    @ : 6 1 1 , i P | | L u o . . o u ~ ` c g o o .   r j ~ x u %         r d d r   o * 2 7 2 @     ",
"    X = 6 1 < , i E [ { L g r r r r j ~ ` c g $ #   o r l I x s % o o o % % d d r # o - 2 6 = @ X   ",
"    O = 6 3 < , i F ^ ^ L z j g t g c ~ ` c j r r r r r l c l d a % % % r d d d r # . * 2 3 = * X   ",
"    X = 6 3 1 < < M J L c x z z j z x L ~ x j a r r r s j x l l a r r r r a a a %   . * 2 8 = *   X ",
"    @ = 6 6 3 3 5 i h h h h z h z h z k h g f r t r r t s g g t r r r f r r r $ % # X * 2 3 = @     ",
"    @ = 3 6 6 7 6 2 = ; @ @ X X . o @ ; > ; ; ; $ X o X X X o .   o @ - - ; X X @ X X + 1 6 - * X   ",
"    @ < 3 7 0 q 0 7 3 2 < = O X . . : 6 q 0 6 2 < = + + O O X . . @ - 8 8 8 2 + * * * 2 3 7 < *     ",
"    @ = 3 0 q e X.7 7 7 7 3 < + X X 2 e O.X.X.7 7 6 1 1 , + O X . * 8 X.o.e 7 1 1 < 1 3 3 8 - *     ",
"    @ = 3 q X.O.o.X.X.7 7 7 1 = X X 2 X.-.#.X.X.7 7 7 1 1 , O X . * 8 X.O.X.q 0 7 7 7 0 0 8 8 * X   ",
"    X = 3 0 X.O.o.X.X.7 7 q 7 < * @ 7 %.2.-.#.7 q w 7 6 , + + X . * 8 X.O.X.q 8 q Z Z C 0 9 - *   X ",
"    @ = 3 0 X.O.o.X.X.q 7 7 3 , X @ p -.2.:.#.7 7 7 7 6 1 + + X . * 8 o.O.X.e e S T R Y D b y @     ",
"    * = 3 0 X.O.O.o.q 7 q 0 6 = @ $ 0 ;.3.:.#.Z q q 7 7 1 , , O . * 8 X.%.&.*.1.5.0.w.9.{ I l r X   ",
"    @ = 6 q X.+.o.X.q 7 7 0 6 = * X m &.3.:.#.7 7 7 7 7 3 3 , O . * 8 X.&.1.5.0.t.s.s.y...{ I f     ",
"    @ = 3 q X.O.O.o.e 7 0 7 6 = X * 0 &.3.:.#.q q 7 7 7 7 0 1 = @ * 8 X.>.7.r.s.s.s.s.i.r...^ f . . ",
"    @ = 3 0 X.+.o.X.q q 7 q 6 = * X p %.2.-.o.q q 7 0 7 7 7 3 * o ; 8 X.%.=.! '  .w.w.9.' U k ; . . ",
"    X = 3 0 X.O.o.X.q 7 7 7 7 < @ @ 8 o.:.O.X.q 7 7 7 7 7 7 1 * X * 8 o.O.e 8 m Y ! ! Q D n f @ X   ",
"    @ = 3 0 e o.X.X.q q q 7 3 , X @ 2 e O.o.e 0 q 7 q 7 0 7 3 = . * 8 o.O.e e 8 0 w 0 0 0 0 2 @     ",
"    @ = 3 0 0 q q q 7 0 7 0 3 2 @ X > e O.o.e 0 7 7 7 7 0 7 1 * . ; 8 X.o.X.q 0 0 8 0 0 0 7 = *     ",
"  . X = 1 7 7 7 7 7 7 7 0 0 3 = @ o 8 e O.o.e 0 7 q 7 7 7 7 2 = . ; 9 X.O.X.q 0 0 0 0 0 7 6 - O   O ",
"    X - 3 7 7 7 7 7 7 0 7 7 3 < @ X 2 e o.X.X.7 q 7 7 7 7 7 < * @ * 8 o.O.e q 0 7 7 7 7 7 3 < X     ",
"    * = 6 6 7 0 0 0 0 q 0 0 3 = @ X 2 e +.o.X.7 q 7 7 7 1 1 , O . * 8 X.O.X.q 0 0 7 7 7 1 < = X     ",
"    X = 3 7 7 7 0 q q q q q 8 2 O X 2 X.-.O.X.w 7 7 7 1 1 + + X . * 8 X.O.X.q 0 7 7 7 3 1 < O X     ",
"    X - 3 8 7 8 7 X.X.X.q q 3 < X $ 0 -.2.:.@.q q 7 q 7 1 , + X . * 8 o.O.X.q 0 q 7 7 7 7 3 = *     ",
"    @ = 6 7 7 7 0 X.X.X.q 7 7 < @ @ 8 ;.3.:.o.0 q q 7 7 7 1 + + X * 3 o.O.X.X.q 7 7 7 7 7 7 < *   O ",
"  . @ = 3 6 7 7 7 7 7 7 7 7 3 < @ @ 8 +.2.;.o.q 7 7 7 7 7 7 , + X * 8 o.O.X.7 7 q 7 7 7 7 7 < *     ",
"    @ = 6 6 6 7 7 7 7 7 7 7 7 = @ X 8 X.+.O.X.0 7 7 7 7 7 7 , + . * 7 X.O.X.q 7 7 7 7 7 7 6 < @     ",
"    @ - 6 6 7 7 7 7 7 7 7 7 3 = X X - e +.X.e 0 7 q 7 7 1 1 + + . * 3 X.O.X.q 7 7 7 7 7 3 < = X   O ",
"    X = 3 7 7 7 7 3 7 3 7 7 1 , O X 2 e O.X.q 7 7 7 7 1 + + +   . * 8 X.O.X.7 7 7 7 7 , < + O X     ",
"    X = 1 1 1 < < 1 , , < < , O . X - 0 o.q 7 , 1 , , , + + + O . * 8 o.o.7 7 < , , , + + + X .     ",
"    X * , < + + + + + + + + O X . X , 1 7 7 , + + + , , + + O O . X - 8 7 1 , + , + + + + O O .     ",
"  . . O O + + + + + O O + O O X . . X + + + + + + + + + O O O   . X X + + + + + + + O O + O O X     ",
"    . . . . X X X . X X X X   X       X X X   O   O   O O   O   . . . X . X X X X   O X   O         ",
"        . .                                                                                         "
};
