/* XPM */
static char *_db5677b812341a58003a1eb45f66b673cWNJUfEpwULuEj0[] = {
/* columns rows colors chars-per-pixel */
"50 50 242 2 ",
"   c #1C0C00",
".  c #0D1500",
"X  c #191803",
"o  c #270D00",
"O  c #380D00",
"+  c #241302",
"@  c #2C1A03",
"#  c #261905",
"$  c #381903",
"%  c #29210B",
"&  c #3C2402",
"*  c #352B01",
"=  c #3B2901",
"-  c #36260A",
";  c #2C3700",
":  c #363407",
">  c #212412",
",  c #372A16",
"<  c #3A3618",
"1  c #363822",
"2  c #481C09",
"3  c #452805",
"4  c #453506",
"5  c #533B0D",
"6  c #59350A",
"7  c #472A16",
"8  c #572D19",
"9  c #483616",
"0  c #553417",
"q  c #502A05",
"w  c #65361B",
"e  c #61300F",
"r  c #493923",
"t  c #5C3D2C",
"y  c #543A23",
"u  c #4C3B31",
"i  c #673B27",
"p  c #354020",
"a  c #364212",
"s  c #584318",
"d  c #514C19",
"f  c #614218",
"g  c #754A1E",
"h  c #4E4524",
"j  c #5D4323",
"k  c #584627",
"l  c #5C4D2F",
"z  c #664A28",
"x  c #7B4929",
"c  c #675626",
"v  c #765727",
"b  c #684A36",
"n  c #754B36",
"m  c #685A3B",
"M  c #755331",
"N  c #7E5B3E",
"B  c #765537",
"V  c #576031",
"C  c #796226",
"Z  c #776738",
"A  c #6E733A",
"S  c #79733C",
"D  c #6F662D",
"F  c #77671A",
"G  c #785741",
"H  c #6A5A44",
"J  c #757A46",
"K  c #746D48",
"L  c #835729",
"P  c #875A38",
"I  c #87662C",
"U  c #886536",
"Y  c #96693B",
"T  c #84763D",
"R  c #94743B",
"E  c #8A772D",
"W  c #8B5A46",
"Q  c #925E48",
"!  c #886545",
"~  c #9B6A4C",
"^  c #9C6744",
"/  c #887947",
"(  c #9C7746",
")  c #897657",
"_  c #977651",
"`  c #926E59",
"'  c #A26B49",
"]  c #A3734B",
"[  c #A67847",
"{  c #A97956",
"}  c #B37C5D",
"|  c #987A6B",
" . c #A97C66",
".. c #B67F61",
"X. c #758437",
"o. c #7B8748",
"O. c #968A3B",
"+. c #97913D",
"@. c #878949",
"#. c #9B8B4A",
"$. c #9B9449",
"%. c #898652",
"&. c #9A8758",
"*. c #9A9757",
"=. c #809248",
"-. c #A78A4D",
";. c #A6924C",
":. c #AA8656",
">. c #B4845B",
",. c #B7875A",
"<. c #A59859",
"1. c #B49658",
"2. c #99A95C",
"3. c #AFA25D",
"4. c #B9A55B",
"5. c #ADAD55",
"6. c #989766",
"7. c #8D8C67",
"8. c #A78968",
"9. c #BC8B62",
"0. c #B58968",
"q. c #A79A61",
"w. c #B79566",
"e. c #B98B72",
"r. c #B99977",
"t. c #A98D72",
"y. c #9CA866",
"u. c #A8A667",
"i. c #B8A767",
"p. c #B7AB76",
"a. c #B5B978",
"s. c #ADB070",
"d. c #C3895D",
"f. c #C3915E",
"g. c #C58A67",
"h. c #C99669",
"j. c #D19E6D",
"k. c #C79675",
"l. c #CF9576",
"z. c #C9A86A",
"x. c #CDA576",
"c. c #D8A87C",
"v. c #C7BA79",
"b. c #CFB36F",
"n. c #E2AE7E",
"m. c #A6CA5D",
"M. c #B3C85F",
"N. c #AEC969",
"B. c #B4CC66",
"V. c #BACE65",
"C. c #B4CC6A",
"Z. c #BCCE6D",
"A. c #BEC76E",
"S. c #BCD466",
"D. c #B9DA66",
"F. c #B6D36B",
"G. c #BDD46C",
"H. c #BDD96B",
"J. c #B6D565",
"K. c #BBCE73",
"L. c #BDCC7B",
"P. c #B8C877",
"I. c #B6D474",
"U. c #BDD472",
"Y. c #BDD972",
"T. c #BED37A",
"R. c #BAD879",
"E. c #B7D678",
"W. c #AFD163",
"Q. c #C3CD6E",
"!. c #C2D466",
"~. c #C1D46D",
"^. c #C2D96C",
"/. c #C2D965",
"(. c #C1CE74",
"). c #C2CE7B",
"_. c #CBCD7C",
"`. c #C9C877",
"'. c #D2CC7D",
"]. c #C2D473",
"[. c #C3D972",
"{. c #C4D47B",
"}. c #CBD37C",
"|. c #C3D97B",
" X c #C9DB77",
".X c #D1D47C",
"XX c #C9E077",
"oX c #B49681",
"OX c #ABAA86",
"+X c #BBA482",
"@X c #B6BA88",
"#X c #C79A83",
"$X c #D09D88",
"%X c #C6A787",
"&X c #D8A688",
"*X c #DAB489",
"=X c #D4AD92",
"-X c #D9B795",
";X c #CBB48A",
":X c #E2AC88",
">X c #E3B48D",
",X c #E4B989",
"<X c #F2BF8D",
"1X c #E5B897",
"2X c #F1B997",
"3X c #E0AE93",
"4X c #DFBDA1",
"5X c #BAC680",
"6X c #BED480",
"7X c #C2C482",
"8X c #C4CC83",
"9X c #CCCD83",
"0X c #CBCD8B",
"qX c #C2CB8A",
"wX c #D4CC88",
"eX c #C5D383",
"rX c #CBD384",
"tX c #CBD38A",
"yX c #C9D987",
"uX c #D3D589",
"iX c #C7CA95",
"pX c #CDD796",
"aX c #D6D894",
"sX c #DCC991",
"dX c #E8C787",
"fX c #F2C78E",
"gX c #EEC498",
"hX c #F4C594",
"jX c #F5CB95",
"kX c #FACD9B",
"lX c #F7C99C",
"zX c #FDD29B",
"xX c #F8D496",
"cX c #C7CDA1",
"vX c #EAC3A4",
"bX c #FDCDA2",
"nX c #F6CCA6",
"mX c #FED3A2",
"MX c #FAD5A9",
"NX c #F3CDB3",
"BX c #FFD7B4",
"VX c #E1E3BB",
/* pixels */
"m.m.J.S.!.!.~.].{.{.eXeXT.T.U. X.X`.wXdX1.L L Y { g.9.] P g Y x.sXwX0X9X].G.^.S././.!.!.~.].].].].].",
"m.W.S.^.^.!.~.].{.{.eXT.L.T.]. X.X5.3.z.z.,.>.,.j.c.c.h.>.( Y :.q.<.a.rX}.].^.^././.!.^.~.].].].].].",
"W.F.H.^.^.!.~.].{.T.{.T.K.]. XQ.i.O.E ;.b.dXhXhX<XlXlXhX,Xx.>.( I C $.9X}.Z.G.S.S.S.S.^.~.~.U.].].].",
"W.F.G.^.^.^.~.].].T.T.{.{.{.].5.$.O.O.4.dXzXmXmXkXmXMXmXkXhXc.:.I v #.wXuX].].H.H.S.S.H.G.~.G.~.].{.",
"B.F.G.G.^.^.~.G.U.U.K.{.{.}.Q.$.F #.b.dXxXzXjXjXkXkXmXzXkXzXfXh.[ R -.v.`.}. X].G.G.S.S.G.G.~.~.].].",
"C.F.G.G.^.^.G.G.I.I.K.{.{.}.`.+.F 1.dXxXxXxXxXzXzXjXjXkXzXmXfXj.,.-.( #.i.`.{.U.G.G.G.G.H.H.^.~.].].",
"K.G.U.].Y.Y.H.G.G.I.C.].(.}.`.+.E b.xXxXfXjXjXzXzXkXkXzXzXhXn.h.f.f.R I 3._.{.|.I.G.G.G.H.H.^.~.].].",
"U.U.U.].Y.H.G.F.F.G.B.Z.A.`.'.;.I z.zXzXxXzXzXzXzXzXzXmXhXn.h.d.d.h.Y C i.uX).T.U.I.G.G.G.^.^.~.].].",
"K.U.U.U.U.U.H.H.F.F.G.Z.}..X'.;.I z.mXmXkXkXkXzX,Xc.j.h.h.h.g.g.g.d.[ I 3.uXyXU.T.Y.U.G.G.H.^.^.~.].",
"Z.K.U.U.U.U.Y.Y.F.Y.G.G.}.'.'.;.U x.mXmXkXzXkX<Xh.[ I U Y ] ,.g.h.g.Y v <.rX{.yXT.U.U.G.G.H.H.^.~.].",
"Z.G.U.].].U.Y.Y.H.Y.[.].}._.wX;.I 9.>XlXbXbX<Xj.[ [ 9.c.9.P x P } ,.L f <.uXL.{.I.G.G.G.G.G.G.H.~.~.",
"U.].].|.].].U.H.H.H.[.].{.rX9X#.v _ k.*X>Xc.j.h.[ ,.*XBX1XP 2 i ~ { z 4 *.aX{.U.U.G.G.G.G.G.].~.~.~.",
"G.].]. X X].].G.H.H.G.].{.9X7X/ 5 ! 0.{ ( ] { h.c.x.k.1X1XN $ z ! ! 5 = @.uX{.U.U.G.G.G.].].].].].~.",
"C.G.U.].].].].~.^.H.~.].).9X7XS = ) t.M x >.>.h.gXgX*X-X-XB $ b B j s D u.rX{.].U.G.~.~.].].].].].].",
"B.C.G.].].].].~.^.S.~.].).rX7XS 9 t.+Xf U vX*Xk.>XMXvX=Xt.k $ b j 7 Z p.0XtX}. X].~.~.~.].].].].T.U.",
"V.G.U.].].~.~.G.^.S.]. X).tX0X/ k +X%Xq P BX>Xk.1XnXvXoX) u % , - @ J iXqXL.{.Z.~.~.~.~.].].].].U.U.",
"C.G.G.G.~.H.G.G.H.~.Z.}._.9XwX*.Z %Xr.f U vX1Xk.1XvXoX` H 1 > X X ; o.8XyXK.U.].~.~.].].].].].U.K.K.",
"Z.G.G.G.H.G.G.S.G.].(.}.`.9XwX*.Z r.p._ 8.&X$Xe.$X#X` b r # X . a J s.eX{.].].~.~.~.].].].].].G.Z.G.",
"G.G.G.G.H.H.G.S.G.].K.}._.rX`.#.z _ 8.r.r.e.e.0. .W b 7 + X > p J a.pXeX].].~.~.~.~.].].].].].G.G.G.",
"U.G.G.G.G.H.G.G.G.].Z.].}.rXP.@.4 z _ r.r.0. .W i 2 2 $   X 1 7.@XqXeXL.].].~.~.~.~.].].].].].U.G.G.",
"U.U.U.U.G.G.G.G.~.].~.].{.yXP.*.c 5 s M ! ! n 8 O O 7 7 , # < OXpXL.P.{.{.].~.H.~.~.].].].].].U.G.G.",
"U.U.U.U.].~.~.~.G.]. X].U.{.eXL.p.c = & & 3 $ $ $ 7 b G m - < s.pXP.L.yX].~.^.V.~.].].].].].].G.G.H.",
"U.I.I.U.].~.~.~.~.~. X].U.T.R.yXtX*.S / j @ $ 0 8 i n N N j z p.tXT.T.{.[.^.^.S.G.U.U.U.U.U.U.G.H.H.",
"I.I.I.U.].].].~. XQ.~.].T.R.I.T.eX0X0XaX%.= j ! ` W P P P M / p.tX|.K.C.XX X^.XXG.G.U.U.U.U.U.G.H.H.",
"I.I.I.U.].].].].].].].U.I.I.I.I.eXeXtX0Xq.c _ -X=Xk.P ^ 0.U U i.rX{.U.G.G.G.G.[.~.].].].U.U.U.G.H.H.",
"I.I.I.U.].].~.].].].].U.U.U.I.E.eX6X5XqXu.S r.NXBX&X^ ] 9.Y Y i.rX].U.G.G.H.H.[.].].].U.U.U.U.G.H.H.",
"I.I.U.].].].].].].].].U.T.R.R.R.T.eXeX5Xu.T p.nXBX&X^ ' 9.Y Y b.}.].U.].~.~.~.~.U.U.].].].].].~.H.H.",
"U.U.U.].].].].].].].].T.T.U.R.T.6XL.eX0Xu.Z :.*XbX:X{ ^ ( g v i.}.U.U.].[.].~.].U.U.].].].].~.~.G.H.",
"U.U.].].].~.].].].].].].T.U.T.T.yXP.7X;Xq.Z ( l.2X2Xl.] P q 5 <.rX].].].].].].].].].].].].~.^.^.G.G.",
"].].].].~.~.].].].].].].U.U.T.T.tXtXa.T c v ] g.l.&Xl.{ M 3 5 u.uX{.].].].~.G.Z.].].].].~.~.~.H.G.G.",
"~.~.~.~.G.G.].].].].].].U.{.{.{.8Xa.#.5 6 L >.g.g.g...~ M & 4 u.yX{.U.G.~.~.].].].{.].].~.~.~.H.G.G.",
"~.~.G.G.G.G.G.G.U.U.].].{.{.{.rX7X/ s 5 U { 0.g.g.} ~ ! M * : y.yX].Z.G.G.G.].].{.{.{.].].~.G.S.G.G.",
"~.~.G.G.G.G.G.G.H.G.].{.{.eXaXu./ 9 = z &.%X&X&Xk.{ ! z s d A y.T.Y.I.G.J.D.H.[.G.].].].].~.~.~.G.G.",
"~.~.~.G.G.G.G.G.H.H.].].).8X8X@.: # - z 8.4XNXvX%X .N 5 4 S a.eXT.Y.Y.H.D.D.H.H.G.].].{.].].~.^.~.~.",
"~.~.~.G.G.G.H.H.H.H.~.Z.{.tX7XA X   - b t.NXNX-X&X{ z s S a.aXeXT.I.Y.H.H.D.D.S.].].{.{.].].~.~.~.~.",
"].].~.G.G.G.G.G.S.G.~.Z.{.yX8XJ * + - m t.=X#X .0.W q M ;XaX0X8XT.I.I.H.H.D.S.S.].].{.{.].].~.~.~.~.",
"].].].].~.G.G.H.^.G.~.].{.eX8X%.h @ , b G n i w w w 6 ( sXwX).rXeX{.U.G.H.H.H.H.].].].].].].U.G.].].",
"].].].].~.G.~.H.^.H.G.].(.).eX6.m - - k z 7 $ 2 2 e P :.i.v.uX).eX{.U.G.H.H.H.^.~.].].].U.U.U.G.~.~.",
"].].].].].U.G.~.H.G.G.].{.).eX*.m , - k B B n n x P { ( R i.wX9XeX).K.G.G.H.S.S.~.].].].U.U.U.G.G.G.",
"].].].].G.].].G.~.H.~.].].(.L.@.h , 7 y b G W W ^ { 9.[ R -.u.9X8X8XL.U.G.H.S.S.].].].].U.U.U.H.U.U.",
"].].].].~.G.G.~.~.^.C.].].{.L.X.: r k 7 y B n W } h.9.9.1.T / u.L.rX{.{. XH.S.S.~.~.Z.U.].T.U.G.I.U.",
"].].].].~.~.~.~.G.^.H.].].{.eXu.K h r r r y i Q 0.c.:X,X*Xq./ Z @.a.L.K.].^.^.^.~.~.(.].].T.U.G.C.C.",
"].].].].K.G.~.~.H.^.~.G.].{.{.eX@Xm r l t 2 2 W { &XlXmXnX*X/ * c a.tX{.].G.^.S.~.~.].].{.].U.G.C.C.",
"].].].U.Z.G.~.~.[.^.G.G. X].C.eXiXOX) r 7 t 8 8 ~ c.lXbXnX-X) * d a.pX{.].V.^.!.~.].]. X{.].U.G.F.F.",
"].~.].Z.Z.Z.G.~.~.^.G.G. X].C.eXpXVXOX< @ t i i 0.:XbXlX-X8.K Z %.iXpXeX XV.^.!.~.].].].].].T.U.U.U.",
"~.~.].].Z.Z.G.~.V.^.G.G.].].T.L.iXcX6.r @ 7 b e.3XnXbX1X0.z y 7.@XqXqXeX X~.^.S.~.].].].].].T.Y.].].",
"].].].].].~.~.~.V.~.S.G.C.].|.2.o.J H - @ b | #X3X1X>X0.M & - H J A *.L. X[.!.^.~.~.].].].T.U.U.].].",
"].]. X X].].].~.G.~.M.V.V.U.I.X.; X X % u | oX8.e.e.0.M 3 & - - ; ; =.eX].~.H.~.V.Q.].].].].U.U. X].",
"G.G.].].].].].].~.~.G.V.G.U.C.N.o.< . X , u l t t t y - @ m 6.7.o.=.2.N.R.|.G.G.[.].].].].].].].].].",
"G.G.G.].].{.].].].~.G.G.G.].T.T.5XV X X X X + o o o o o - 7.iXpXtXP.P.I.U.Y.G.]. X].].].].].].].].]."
};
