/* XPM */
static char *_965550dc0924fdab1f23dafa42a1f03TXffhdK7cubO8Qs1[] = {
/* columns rows colors chars-per-pixel */
"50 50 234 2 ",
"   c #5F562F",
".  c #7A4E37",
"X  c #6B5435",
"o  c #6C5935",
"O  c #6C5A3B",
"+  c #645837",
"@  c #7D5135",
"#  c #7D553B",
"$  c #735D3B",
"%  c #755638",
"&  c #6A4E2D",
"*  c #6F6235",
"=  c #6D653A",
"-  c #74633C",
";  c #79643F",
":  c #766B3D",
">  c #7D4D44",
",  c #7C4B49",
"<  c #6B5C45",
"1  c #6D5C4A",
"2  c #755144",
"3  c #7B5344",
"4  c #755E40",
"5  c #775249",
"6  c #7B544C",
"7  c #715D4D",
"8  c #7E594C",
"9  c #785D40",
"0  c #774F50",
"q  c #7C5553",
"w  c #745F51",
"e  c #7C5A54",
"r  c #7E5758",
"t  c #7D5959",
"y  c #775353",
"u  c #6D6143",
"i  c #6F6647",
"p  c #756341",
"a  c #7D6444",
"s  c #73614B",
"d  c #77694C",
"f  c #796B4D",
"g  c #7C6946",
"h  c #7B7344",
"j  c #7F7944",
"k  c #7F734A",
"l  c #75714C",
"z  c #746051",
"x  c #7D6255",
"c  c #756E52",
"v  c #7B6D51",
"b  c #7E635B",
"n  c #797155",
"m  c #81563C",
"M  c #82524C",
"N  c #825B4B",
"B  c #84564A",
"V  c #845C52",
"C  c #8A5B53",
"Z  c #8C5E59",
"A  c #855654",
"S  c #804847",
"D  c #8C6B4C",
"F  c #886547",
"G  c #93644B",
"H  c #946B4D",
"J  c #9A6C4F",
"K  c #82744D",
"L  c #89744C",
"P  c #837649",
"I  c #866153",
"U  c #8B6353",
"Y  c #82645E",
"T  c #8C645A",
"R  c #89695C",
"E  c #936554",
"W  c #936B53",
"Q  c #9B6C54",
"!  c #93655A",
"~  c #946C5B",
"^  c #996C5C",
"/  c #98645E",
"(  c #847451",
")  c #8D7757",
"_  c #937253",
"`  c #9C7355",
"'  c #95705A",
"]  c #9D715A",
"[  c #9D7B5C",
"{  c #947955",
"}  c #92714E",
"|  c #A17455",
" . c #A4745C",
".. c #A47A5C",
"X. c #A97A5E",
"o. c #A77759",
"O. c #846462",
"+. c #896963",
"@. c #9D6E64",
"#. c #906E62",
"$. c #9D7464",
"%. c #9B7B69",
"&. c #977667",
"*. c #A37563",
"=. c #A57A64",
"-. c #AA7B63",
";. c #A57469",
":. c #A47A69",
">. c #AB7B6B",
",. c #AC7769",
"<. c #B07B6E",
"1. c #A66F6A",
"2. c #97875B",
"3. c #99945E",
"4. c #8B864F",
"5. c #998368",
"6. c #9B9664",
"7. c #9D9B64",
"8. c #9A946D",
"9. c #9C9C6A",
"0. c #949667",
"q. c #9B9671",
"w. c #9B9973",
"e. c #9E8571",
"r. c #AC8362",
"t. c #A48A65",
"y. c #AC836B",
"u. c #A5866A",
"i. c #B2876B",
"p. c #B78B69",
"a. c #A19E65",
"s. c #AE916D",
"d. c #A39E6E",
"f. c #A59468",
"g. c #A58874",
"h. c #B58C73",
"j. c #B88C73",
"k. c #A59E72",
"l. c #A79F78",
"z. c #AE957D",
"x. c #BD9275",
"c. c #B69975",
"v. c #BE957D",
"b. c #BE9C7B",
"n. c #B59575",
"m. c #A4A16C",
"M. c #A4A568",
"N. c #A6A073",
"B. c #A8A173",
"V. c #B5A678",
"C. c #B4B77B",
"Z. c #C19674",
"A. c #C59A75",
"S. c #C49B7B",
"D. c #C99E7C",
"F. c #C4997A",
"G. c #C4A17E",
"H. c #CBA07C",
"J. c #C9DF77",
"K. c #CCE577",
"L. c #C6E27B",
"P. c #CCE57C",
"I. c #CEE97D",
"U. c #D1E67D",
"Y. c #D2EA7D",
"T. c #D1E477",
"R. c #AE9181",
"E. c #B79784",
"W. c #BEA18F",
"Q. c #BDBE8C",
"!. c #BCB885",
"~. c #C39B82",
"^. c #CBA484",
"/. c #C7A683",
"(. c #D4AA84",
"). c #D3AC8A",
"_. c #D6AB87",
"`. c #C1BE8E",
"'. c #C0B08E",
"]. c #D9B18B",
"[. c #C8AC92",
"{. c #DBB391",
"}. c #D7B299",
"|. c #E1B694",
" X c #D8BBA9",
".X c #E1BCA1",
"XX c #BDC283",
"oX c #BDC48C",
"OX c #BBC48C",
"+X c #BEC493",
"@X c #C1C284",
"#X c #C2C48C",
"$X c #C4CB8C",
"%X c #CDC88E",
"&X c #CBD989",
"*X c #D1DF8D",
"=X c #C3C593",
"-X c #C6C994",
";X c #C8CB95",
":X c #C7C999",
">X c #CFD79A",
",X c #CEDA9A",
"<X c #CCD994",
"1X c #D2DC93",
"2X c #D4D79D",
"3X c #D4DB9C",
"4X c #DBDC9D",
"5X c #D4D297",
"6X c #D6CA98",
"7X c #CDE683",
"8X c #CEE883",
"9X c #CEE58A",
"0X c #CFE889",
"qX c #D2E683",
"wX c #D2E984",
"eX c #D2E58C",
"rX c #D2E98B",
"tX c #D8E68C",
"yX c #CEE391",
"uX c #D3E393",
"iX c #D9E497",
"pX c #D4E992",
"aX c #D9EA93",
"sX c #D5E39A",
"dX c #DAE49D",
"fX c #DAE99C",
"gX c #D4DDA2",
"hX c #DBD6A6",
"jX c #E7D8B5",
"kX c #E2CDB2",
"lX c #DBE5A2",
"zX c #DBE9A3",
"xX c #D7E3A1",
"cX c #E0E1A7",
/* pixels */
"# @ . & @ Q S..X}.g.a & & - P 7.@X1XiXuXuXeX9X9XeXeXeX9X9X7X7XP.I.I.8X8X8XeXpX1X4X4X6XV.) % % . . . ",
"m m @ @ m ` v.}.[.g.F X X * P 7.XX1XiXuXuXrX9X9XeXeXeXeX9X7X7XP.I.P.8X8X8XeXiX1X4X5X%XV.) # # # # m ",
"G G G G H ..h.~.E.u.) a $ * h 7.XX1XiXuXeXeX9X9X9XeXeXeXeX8X8X7XI.L.P.7X8XtXiX1X%X!.V.f.{ D D F G G ",
"-.-.-.-.-.r.y.y.y.u.5.) g * : 3.@X1XdXuXeX9X9X9X9X9XeXeXrXrX8X8XI.L.P.7X9XpXiX<XC.a.2.2.[ [ t.=.=.=.",
"x.x.x.x.x.y.[ W ' 5.z.g.( * : 3.@X3XdXuXeX9X8X8X9X9X9XeXrXrX8X8XP.L.P.7XeXaXiX&XM.4.: L 2.s.n.h.h.j.",
"F.F.S.D.S.i.` N U %.E.z.) - : 3.#X3XfXuX9X9X8X8X9X9X9XeXeXwX8X8XP.P.7X8XeXaXuX$XM.j * P t.c.b.v.S.F.",
"F.F.F.S.F.y.~ N I &.E.z.) p h 6.#X3XdXuX*X9X7XwXqXqX9XqXqX8X7XP.P.P.8X0XrXfXuX$XM.j * P t.c.b.F.S.S.",
"F.F.Z.F.x.y.~ N T &.R.g.) p h 6.#X3XdXuX&X9X8XwXwXqXqX9X8X7X7XL.L.P.0XrXpXfXsX$Xa.j - L t.c.b.D.S.S.",
"Z.Z.F.D.x.y.W N V #.g.e.) p k 8.#X2XdX*X9XqXwXwXwXqXqXqX7X7XL.L.7X8XrXpXpXfX1X#X7.h - L t.b.S.D.F.F.",
"Z.A.F.F.x.y.W 6 8 R &.&.v u d 8.#X2XdX1X9XwXwXwXwXqXqXqXqX7X7X7X8X7XrXpXuXsX1X#X7.h - L s.G.G.D.Z.Z.",
"A.A.S.D.S.i.~ 6 6 e +.Y 7 O d 8.`.2XdXuXeXwXwXwXY.qXqXqXqX8X8X7X8X8X9X9XuXsX>XOX9.h - L s./.G.D.Z.Z.",
"H.D.H.^.^.j.^ 8 6 q Y x 7 < d 8.`.2XdXuXeXwXwXU.U.U.U.qXqXwXwX8X0X9X9X9XuXsX>X#X9.h - L s././.G.F.F.",
"(.(.(.].).v.$.8 6 q Y b 7 < f 8.`.2XlXuXeXwXI.K.U.U.U.qXqXwXwX8X8X9X9XyXuXfX3X-Xd.h - ) c.].).).^.^.",
"].].{.|.{.~.*.V 6 e O.Y w < f 8.`.2XlXuXeXqXK.K.U.U.U.U.qXwXwXwX9X9X9XyXuXlXxX;Xd.k ; { c.].{.{.].].",
"(.(._.].).v.$.V q e O.Y w < f 8.`.2XlXuXeXwXU.K.T.T.U.U.wXwXrXwX9X9X9XyXsXzXxX;XN.k p ) s./.)._._._.",
"A.A.F.D.~.h.^ V q t O.b 7 < v 8.`.2XlXuXeXwXU.U.K.K.U.U.wXwXwXrX8X8X9XuXsXlXgX;XN.K - L t.b.S.H.D.D.",
"p.i.i.i.>.*.T A q t O.b 1 < f q.#X2XlXiXtXtXwXY.Y.U.U.wXwXwXwXwX7X7X9X9XuXdX2X-XN.K p F { r.i.p.p.p.",
"-.X.-.-.*.^ C 6 q t O.b 1 < f q.#X3XlXiXtXtXqXU.U.U.U.wXwXwXwXwX7X7X9X9XuXdX2X-XB.K ; a } ....r.r.r.",
"X.o.o. . .~ C 6 q t O.b 7 < d 8.Q.2XlXiXtXqXU.P.I.K.I.qXwXwXwXqX7X7X9X9X1XdX3X-XB.K - a D ` ` o.o.o.",
"o..... . .^ C M q t O.Y 7 < d 8.Q.2XlXiXtXqXP.J.K.L.P.qXwXwXwXwX7X7X9X9XuXdX3X-XN.K - a H [ | o.o.o.",
"| | |  . .~ C 6 y t O.b w < f 8.Q.2XlXiXtXqXP.J.J.L.L.7XwXwXwXwX7X7X9X9XuXfX3X;XN.K - ; D [ ` ..| | ",
"Q Q `  .] ~ C 6 y q O.b w < f 8.`.2XlXiXtXeX7XP.L.L.P.7XwXwXwXwX7X7XeXeXuXlXgX;Xk.k $ $ F _ J ` J J ",
"J J Q Q ^ ! C 6 y q Y b 7 < v q.`.2XlXuXeXeXqXqX7X7X7X7XqXwXwXqX7X8XeXuXiXlXgX:XN.k o $ F H H H J J ",
"G G G W E E C 6 y q Y b 7 < v q.=X2XlXuXeXtXqXwXwXwX8X7XqXqXqXqX7X8XeXuXiXlXgX:XN.k o $ F H H H G G ",
"W W Q Q ^ ! C 6 q t O.b 7 < v q.`.2XlXuXeXeXwXwXwXwXwX8X7X7X7X7X7X8XeXuXiXlXgX:Xk.k $ $ F H J J Q Q ",
"] ] ] ^ ^ ^ Z A q t O.b 7 < v q.=XgXlX1X*XqXqXwXwXwX8X8X7X7X7X7X7X7XeXuXsXlXgX:Xk.K $ ; D ` ` |  . .",
"=. . .*.*.^ ! A A t O.b 7 < f 8.=XgXlX1X*X9XqXwXwXwXwX7X7X7X7X7X7X7X9XeXsXlXgX:XN.K - a W [ .... . .",
"-.-.=.=.;.@.Z A q t O.b 7 < f 8.=XgXlXuXeXqXqXU.wXwX7X7X7X7X7X7X7X7X9XyXuXlXgX:XN.K - a _ ....-.X.X.",
"=.=.=.>.;.@.Z 6 y q Y b 7 < f 8.oX2XlXuXtXtXqXI.I.8X8X8X8X8X8X8X8X8XeXyXuXlXgX=Xk.K - a W [ ..X.X.X.",
"=.=.=.>.>.@.Z 0 0 y Y b 7 < f 8.Q.>XlXiXaXtXwXK.I.I.8X8X8X8XwXwXwX9XeXyXuXlX2X=Xk.K - a D [ ....X.-.",
"-.=.=.>.>.@.Z 0 0 q O.b z < v 8.Q.>XlXiXaXtXwXK.K.I.I.I.8X8XI.wXwX9XeXuXuXlXgX=Xk.K p a W ....X.X.X.",
"=.=.;.>.>.@.Z 6 y q O.b z 1 v 8.Q.>XdXuXrXwXU.K.K.K.I.I.7X8XI.8XwX9XeXuXsXlXgX:Xl.( p a _ ....X.X.X.",
"-.=.=.=.*.~ Z q q t +.Y x s n w.Q.>XlXuX9XqXK.K.K.K.K.I.8X8XwX8XrX0XrXuXsXxXgX:Xl.( p a _ =...X.-.-.",
" . .*.*.$.~ T q q t O.Y w s n w.+X2XlXuXeX7XK.K.K.K.K.I.8X8XqX8X8X9XeXuXsXxXgX:Xl.( 4 a W ..| o. . .",
"Q Q Q ^ ^ ! V q q r O.b 7 1 n w.+XgXzXuXeX7XI.I.I.I.I.I.7X7X7X7X8X9X9XyXsXxXgX=Xl.( $ 9 D ] Q Q Q Q ",
"G G E W W U V 6 q r O.t 7 1 c w.=XgXzXuX9XqXI.U.I.I.I.I.7X7X7X7X8X8X9XyXsXxXgX=Xk.f O $ F Q J J G G ",
"G G G W W U N 6 q e O.b 7 < c w.=XgXzXuX9XqXI.U.I.I.I.I.7X7X7X7X8X9X9XyXsXxXgX=Xk.f O $ F Q J E G G ",
"Q Q Q ] ^ ! V 6 q t O.b 7 < c q.+XgXlXuX9XqX8XU.I.I.I.I.7X7X7X7X8X7X9X9XuXlXgX=Xl.K $ 9 D ] Q Q Q Q ",
" . .*.=.*.~ V 6 y t O.Y w < c 8.OX>XsXuX9XqX8XU.I.I.I.P.P.7X7X7X8X7X9XyXuXlXgX:XN.K 4 a W =.*.*. . .",
"=.-.-.:.=.~ V 6 y e +.Y z < c q.OX>XsXyX9X7XI.U.I.I.I.P.7X7X7X7X7X8X9X9XuXlXgX;XN.K p a ' =.=.=.,.-.",
">.-.-.>.:.' V 6 6 e +.Y s u l 0.OX,XsX9X9XwXwXI.I.I.7X7X7X7X7X7X7X7X9X9XuXfX2X-Xk.K p a ' :.>.>.>.-.",
">.-.>.:.:.~ I 6 q e Y x 7 u l 9.oX3XfXuX9X8X8XI.I.8X7X7X7X7X7X7X8X7X9X9XuXsX3X#Xk.K p a ' =.:.>.>.<.",
">.>.>.=.$.~ I 6 6 6 x w < + l 9.$XsXzXuX9X8X7X8X8X8X8X8X8X8X8X8X8X7X8X9XuXsX3X#Xd.K - a ~ :.:.>.>.<.",
">.>.>.:.$.~ I 6 5 2 e 7 O + i 0.oX,XzXiXeX8X7X8X7X7X7X8X8X8X8X8X8X8X8X9XuXsX3X#Xd.k $ a ~ =.:.>.>.>.",
">.>.>.:.$.~ I 8 5 2 7 < +   = 0.OX<XfXpXrX0X7X8X7X7X7X7X8X8X8X8X8X8XrX9XuXfX3X$Xd.K p a ~ =.;.>.<.<.",
";.*.*.$.$.~ I 8 5 5 x s O * h 7.OX<XsXpXpXrX7X8X7X7X7X7X7X8X7X7X8X7XrXeXpXfX3X;Xm.K p a W $.*.;.;.1.",
"^ ~ ! ~ U I 8 6 V R %.5.5.2.6.C.$X,XsXuXrX0X7X7X7X8X8X8X8X8X7X7X8X7XwXeXpXfX3X-Xm.K $ 4 I ~ ! / / / ",
"C C N N N 8 6 6 R g.W.'.'.!.!.-X<XsXsXyX9X9X7X8X8X8X8X7X7X8X8X7X8X8X8X9XeXfX3X$Xd.k O % 8 U C C C C ",
"> M > 3 3 3 2 8 R R. XkXjXhXhX2XlXsXuXuX9X7X7X8X8X0X0X0X9X7X7X7XP.I.8XrXrXfXsX$Xm.h o X 3 N M M , S ",
"> 3 > > 3 2 2 6 &.E. XjXjXjXhXcXlXdXuXuX9X7X7X7X9X9XeXeX9X7X7X7XI.I.8XwXrXfXuX$Xm.h o X 3 A M M , , "
};
