/* XPM */
static char *result[] = {
/* columns rows colors chars-per-pixel */
"50 50 166 2 ",
"   c #353540",
".  c #3A3741",
"X  c #3D3A41",
"o  c #3E3E48",
"O  c #423A42",
"+  c #4C3B43",
"@  c #533C44",
"#  c #5C3F45",
"$  c #603F46",
"%  c #464142",
"&  c #4B4442",
"*  c #4D494C",
"=  c #44434D",
"-  c #534743",
";  c #524943",
":  c #584D43",
">  c #5D5044",
",  c #5C524A",
"<  c #4A4951",
"1  c #504A52",
"2  c #5C5553",
"3  c #5F5957",
"4  c #5A585F",
"5  c #644146",
"6  c #6B4247",
"7  c #6F4348",
"8  c #734448",
"9  c #794549",
"0  c #784E48",
"q  c #615344",
"w  c #6C5B45",
"e  c #60554B",
"r  c #725F46",
"t  c #725256",
"y  c #756246",
"u  c #7B6647",
"i  c #7A674C",
"p  c #7D6849",
"a  c #6E6253",
"s  c #7B6C59",
"d  c #7D6D57",
"f  c #5E5C62",
"g  c #615F65",
"h  c #6E6763",
"j  c #7B7166",
"k  c #7D746C",
"l  c #6E6B70",
"z  c #716E72",
"x  c #7B7574",
"c  c #797679",
"v  c #7D797C",
"b  c #81474A",
"n  c #85494B",
"m  c #8C4A4C",
"M  c #934C4D",
"N  c #9A4E4E",
"B  c #9A574D",
"V  c #955B5B",
"C  c #A14F4E",
"Z  c #A6504F",
"A  c #A8514F",
"S  c #AC5250",
"D  c #B25351",
"F  c #BA5552",
"G  c #BD5F51",
"H  c #826A47",
"J  c #876E48",
"K  c #886E48",
"L  c #8C7148",
"P  c #917448",
"I  c #977949",
"U  c #9D7D4A",
"Y  c #8A7456",
"T  c #907958",
"R  c #A17F4A",
"E  c #AA7A4C",
"W  c #BE7F4F",
"Q  c #8C7F6F",
"!  c #B76360",
"~  c #C25753",
"^  c #C75854",
"/  c #CA5954",
"(  c #CE665C",
")  c #CE6456",
"_  c #CE6861",
"`  c #A3824A",
"'  c #A9854B",
"]  c #AD884B",
"[  c #B18B4B",
"{  c #BB924C",
"}  c #A88958",
"|  c #B39058",
" . c #9E8763",
".. c #8F8271",
"X. c #AD9268",
"o. c #BC9A63",
"O. c #BFA375",
"+. c #C0954D",
"@. c #C5984D",
"#. c #CD9E4E",
"$. c #D78756",
"%. c #C29A56",
"&. c #D3A34E",
"*. c #D9A64F",
"=. c #DDA94F",
"-. c #DDA650",
";. c #DFAB50",
":. c #DFAF5C",
">. c #D3A557",
",. c #E2A750",
"<. c #E2AC50",
"1. c #E7B050",
"2. c #EDB551",
"3. c #DB8F6D",
"4. c #C09D64",
"5. c #DB957E",
"6. c #C3A36E",
"7. c #C9A873",
"8. c #DCB676",
"9. c #E9AE61",
"0. c #ECBE70",
"q. c #858283",
"w. c #8B8788",
"e. c #8F8B8B",
"r. c #928D8D",
"t. c #989089",
"y. c #9E9181",
"u. c #9E9998",
"i. c #989393",
"p. c #A7908F",
"a. c #AD9E8A",
"s. c #BB9591",
"d. c #BFAC8D",
"f. c #B7A58B",
"g. c #ACA6A4",
"h. c #AFAAA7",
"j. c #B2ACA9",
"k. c #BDB5AD",
"l. c #BFB8B3",
"z. c #CE9A94",
"x. c #DB9B90",
"c. c #C3AC89",
"v. c #CBB38E",
"b. c #DDBC85",
"n. c #CEBB9F",
"m. c #E9B980",
"M. c #C3B6A5",
"N. c #C3BCB7",
"B. c #E4C492",
"V. c #E9C49F",
"C. c #DDC8A8",
"Z. c #CAC2BD",
"A. c #EBD0A3",
"S. c #E9CEBE",
"D. c #E9D3B1",
"F. c #CEC6C0",
"G. c #D5CDC6",
"H. c #DBCFC7",
"J. c #DDD5CD",
"K. c #DCD1C4",
"L. c #E2D3C6",
"P. c #E8D6C7",
"I. c #E3DAD2",
"U. c #ECE3D9",
"Y. c #EBE2D7",
"T. c None",
/* pixels */
"T.T.T.T.        .                                             T.T.T.T.T.T.T.T.T.T.T.T.T.T.T.T.T.T.T.",
"T.T.T.T.      . . O O . . O + + O . O . . + O . . O . .     . T.T.T.T.T.T.T.T.T.T.T.T.T.T.T.T.T.T.T.",
"T.T.        O @ $ 9 9 9 $ $ m $ m $ $ m $ b m $ $ $ $ @ .       T.T.T.T.T.T.T.T.T.T.T.T.T.T.T.T.T.T.",
"            + 6 m S D D ~ D F D F D D D D D F D ~ Z m $ O           T.T.T.T.T.T.T.T.T.T.T.T.T.T.T.T.",
"    . O + @ $ 9 N A S D S S D F ~ / / / / / / / / F N 9 # @ + .       T.T.T.T.T.T.T.T.T.T.T.T.T.T.T.",
"    O # 8 n n n b $ $ 9 8 8 m C F / / / / / / / / ^ D C M 9 $ @ .     T.T.T.T.T.T.T.T.T.T.T.T.T.T.T.",
"    + 8 M F S n $ O . . . . $ n S / / / / / / / / / / ^ / D n $ .     T.T.T.T.T.T.T.T.T.T.T.T.T.T.T.",
"    O # 8 M n 6 + .         @ $ b N C D ~ / / / / ^ F A N m $ @ .       T.T.T.T.T.T.T.T.T.T.T.T.T.T.",
"    . O @ # @ + X           X + # $ b N F ^ / ^ / F Z b 5 @ + O                           T.T.T.T.T.",
"                    . o = < < < < 1 t V ! ( ( ) ) G B 0 ; & & & & % & % & & % & & % X       T.T.T.T.",
"                    < g c e.e.e.e.r.p.s.z.x.x.3.$.$.) ` I P P P P P P I P P P L L y > &     T.T.T.T.",
"T.T.T.T.T.T.T.      f q.g.G.G.G.G.G.H.H.L.S.V.m.9.,.;.=.*.&.*.&.&.*.&.*.&.*.&.*.&.` p ;     T.T.T.T.",
"T.T.T.T.T.T.T.T.    f e.l.U.I.G.N.N.l.l.l.l.d.O.%.{ +.+.{ +.+.+.{ @.{ { @.{ @.{ { P y ;       T.T.T.",
"T.T.T.T.T.T.T.T.    f e.N.U.F.h.r.v c c c c j s i u u i u u y u u u u u u y u u y w ; X             ",
"T.T.T.T.T.T.T.T.    f e.l.Y.k.w.f           . .   .                           . .     X             ",
"T.T.T.T.T.T.T.T.    3 Q d.A.f.Q 2 . < f z v v v v v v v c Q j d u u H H p u p u p p u u y w ; X     ",
"T.T.T.T.T.T.T.T.    , T o.0.o.T , . h q.g.N.N.N.N.N.N.N.N.M.c.6.{ @.@.@.@.@.@.@.@.@.@.@.{ I w &     ",
"T.T.T.T.T.T.T.T.    q P @.2.{ L , o l u.F.U.I.J.G.G.K.K.P.D.B.8.>.&.<.1.2.1.=.*.&.*.;.1.=.[ H ;     ",
"T.T.T.T.T.T.T.T.    q P { 2.{ L : o l u.F.I.Z.j.i.t.f.v.B.b.6.} P ` { *.2.>.{ ' L ' @.=.=.[ p ;     ",
"T.T.T.T.T.T.T.T.    q P { 2.{ L : o l u.F.J.j.q.4 2 Y | :.>.} p ; w I { 2.@.I w & y ` #.1.[ H ;     ",
"T.T.T.T.T.T.T.T.    q P @.2.{ L , o h y.M.C.a.k * ; u ] =.#.` w X > P { 2.{ P > X w ` @.;.[ p ;     ",
"T.T.T.T.T.T.T.T.    q L { 2.{ L > . a  .8.8.X.d * & u ] =.#.` r X > L { 2.@.P q . w ` #.;.[ p ;     ",
"T.T.T.T.T.T.T.T.    q P { 2.{ L > X r U #.=.] p & & p ] =.#.U w X > L { 2.{ P > . w ` @.;.[ p ;     ",
"T.T.T.T.T.T.T.T.    q P @.2.{ L > X w ` #.=.] u & ; u ] =.#.` w X > L { 2.@.P > X w I @.;.[ p :     ",
"T.T.T.T.T.T.T.T.    q P @.2.{ L > X w U &.=.] p ; & p ] =.#.` w X > L { 2.{ P > . w I #.<.[ p ;     ",
"T.T.T.T.T.T.T.T.    > P { 2.{ L > X w ` #.;.{ P w w P { ;.&.] J > u ` @.2.#.` u > H ] &.<.[ H ;     ",
"T.T.T.T.T.T.T.T.    > P { 2.{ L > X w ` #.1.&.{ ' ' { &.1.;.#.[ ` ] @.*.2.*.@.[ ` [ #.=.=.[ p ;     ",
"T.T.T.T.T.T.T.T.    q P @.2.{ L > X w ` #.2.2.1.1.1.1.2.2.2.2.1.<.1.1.1.2.2.1.1.1.1.2.2.<.[ p ;     ",
"T.T.T.T.T.T.T.T.    > P { 2.{ L > X > u ` ] ] [ [ [ [ ] [ ] [ [ [ [ [ [ [ [ [ [ [ ] [ [ ' J q &     ",
"T.T.T.T.T.T.T.T.    q P @.2.{ L >   % : > w w w w w w w w w w w w w w w w w w w w w w w w : & X     ",
"T.T.T.T.T.T.T.T.    > P { 2.{ I w % % % % % % % % % % % % % % % % % % % % % % % % X X               ",
"T.T.T.T.T.T.T.T.    q P @.2.&.[ ` L L L L L L L L L L L L L L L L L L L L J L L L y > %             ",
"T.T.T.T.T.T.T.T.    > P +.2.1.<.1.=.*.&.&.&.*.&.&.&.&.&.<.*.*.&.&.&.&.&.1.*.*.&.#.` u ;     T.T.T.T.",
"T.T.T.T.T.T.T.T.    q P +.2.2.2.2.2.2.2.2.2.2.2.2.2.2.2.2.2.2.2.2.2.2.2.2.2.2.2.1.{ J :     T.T.T.T.",
"T.T.T.T.T.T.T.T.    > P +.2.2.2.2.2.2.2.2.2.2.2.2.2.2.2.2.2.2.2.2.2.2.2.2.2.2.2.1.{ J :     T.T.T.T.",
"T.T.T.T.T.T.T.T.    q P +.2.2.2.2.2.2.2.2.2.2.2.2.2.2.2.2.2.2.2.2.2.2.2.2.2.2.2.1.{ J :     T.T.T.T.",
"T.T.T.T.T.T.T.T.    q P +.2.2.2.2.2.2.2.2.2.2.2.2.2.2.2.2.2.2.2.2.2.2.2.2.2.2.2.1.{ K :     T.T.T.T.",
"T.T.T.T.T.T.T.T.    q P +.2.2.2.2.2.2.2.2.2.2.2.2.2.2.2.2.2.2.2.2.2.2.2.2.2.2.2.1.{ K >     T.T.T.T.",
"T.T.T.T.T.T.T.T.    q P @.2.2.2.2.2.2.2.2.2.2.2.2.2.2.2.2.2.2.2.2.2.2.2.2.2.2.2.1.{ K ;     T.T.T.T.",
"T.T.T.T.T.T.T.T.    q P @.2.2.2.2.2.2.2.2.2.2.2.2.2.2.2.2.2.2.2.2.2.2.2.2.2.2.2.<.{ K :     T.T.T.T.",
"T.T.T.T.T.T.T.T.    q P +.2.2.2.2.2.2.2.2.2.2.2.2.2.2.2.2.2.2.2.2.2.2.2.2.2.2.2.1.{ L ;     T.T.T.T.",
"T.T.T.T.T.T.T.T.    q P +.2.2.2.2.2.=.&.@.{ { { +.{ { { { { { { { @.&.;.2.2.2.2.<.{ J :     T.T.T.T.",
"T.T.T.T.T.T.T.T.    > P +.2.2.2.2.1.#.' L y y y u y y y u y y y u L ] &.2.2.2.2.1.{ J >     T.T.T.T.",
"T.T.T.T.T.T.T.T.    q L +.2.2.2.2.=.] H ;                         > L { 2.2.2.2.<.[ J ;     T.T.T.T.",
"T.T.T.T.T.T.T.T.    q P +.2.=.@.[ U p q %                         > L { 2.*.@.[ ` H q &     T.T.T.T.",
"T.T.T.T.T.T.T.T.    q L +.2.+.` u > ; % X       T.T.T.T.T.T.      > L { 2.#.` u ; ; & X     T.T.T.T.",
"T.T.T.T.T.T.T.T.    : H ` #.` p ;             T.T.T.T.T.T.T.T.    ; p ' #.' H ;             T.T.T.T.",
"T.T.T.T.T.T.T.T.    & > y J y > %         T.T.T.T.T.T.T.T.T.T.    % > y J y > &         T.T.T.T.T.T.",
"T.T.T.T.T.T.T.T.    . . X % X .       T.T.T.T.T.T.T.T.T.T.T.T.      X X % X         T.T.T.T.T.T.T.T.",
"T.T.T.T.T.T.T.T.                      T.T.T.T.T.T.T.T.T.T.T.T.                      T.T.T.T.T.T.T.T."
};
