/* XPM */
static const char *cGVycw__[] = {
/* columns rows colors chars-per-pixel */
"50 50 242 2 ",
"   c #180F00",
".  c #1E1402",
"X  c #1F1009",
"o  c #241302",
"O  c #2A1A01",
"+  c #22120C",
"@  c #271805",
"#  c #361A04",
"$  c #261711",
"%  c #280E00",
"&  c #2C2C01",
"*  c #2D2400",
"=  c #362C07",
"-  c #3A3208",
";  c #392A10",
":  c #491901",
">  c #462704",
",  c #572709",
"<  c #443607",
"1  c #52380C",
"2  c #5A2C11",
"3  c #583619",
"4  c #483115",
"5  c #6A381C",
"6  c #622715",
"7  c #553923",
"8  c #653B22",
"9  c #763C2A",
"0  c #3F4112",
"q  c #4A4918",
"w  c #55491A",
"e  c #4A470A",
"r  c #654C1D",
"t  c #755216",
"y  c #5A4825",
"u  c #5B5727",
"i  c #684728",
"p  c #7B4C2B",
"a  c #74452A",
"s  c #675629",
"d  c #775927",
"f  c #664834",
"g  c #7C4B37",
"h  c #685438",
"j  c #785838",
"k  c #6A6835",
"l  c #7A6434",
"z  c #766C2E",
"x  c #76691B",
"c  c #725942",
"v  c #7E6A4A",
"b  c #766A48",
"n  c #8B5627",
"m  c #854C38",
"M  c #8B523C",
"N  c #875837",
"B  c #935939",
"V  c #8A512D",
"C  c #84682D",
"Z  c #89752C",
"A  c #8A6838",
"S  c #936738",
"D  c #887538",
"F  c #947637",
"G  c #92682C",
"H  c #A96E3F",
"J  c #895744",
"K  c #945941",
"L  c #8C6743",
"P  c #996748",
"I  c #867749",
"U  c #957541",
"Y  c #9B7B43",
"T  c #9B7749",
"R  c #966C54",
"E  c #897555",
"W  c #997556",
"Q  c #866C5D",
"!  c #A36A48",
"~  c #A5784B",
"^  c #B6794D",
"/  c #A66C54",
"(  c #A57A5B",
")  c #A87657",
"_  c #B67A5A",
"`  c #937868",
"'  c #A67C69",
"]  c #95853C",
"[  c #9A8547",
"{  c #9B8B54",
"}  c #8E9654",
"|  c #939658",
" . c #8F904E",
".. c #A7864A",
"X. c #B0884C",
"o. c #A3944D",
"O. c #A98658",
"+. c #B6835C",
"@. c #AA9859",
"#. c #B7975B",
"$. c #B1964F",
"%. c #9CA25E",
"&. c #A9A557",
"*. c #B4A75D",
"=. c #998E68",
"-. c #969666",
";. c #8F8762",
":. c #A58569",
">. c #B58364",
",. c #B68963",
"<. c #BD8969",
"1. c #B78968",
"2. c #A89863",
"3. c #BD916D",
"4. c #B79665",
"5. c #AD8771",
"6. c #B38F75",
"7. c #BC9877",
"8. c #AA967A",
"9. c #A8A667",
"0. c #B8A765",
"q. c #ACB46A",
"w. c #BBB768",
"e. c #AAAC77",
"r. c #B9BA78",
"t. c #CA855E",
"y. c #C38D65",
"u. c #C68D68",
"i. c #C19262",
"p. c #C3936D",
"a. c #C79A6A",
"s. c #C58E72",
"d. c #C49271",
"f. c #CA9B73",
"g. c #C89876",
"h. c #D79C76",
"j. c #D59B6D",
"k. c #E09D73",
"l. c #C8A569",
"z. c #C4BB6B",
"x. c #C1B068",
"c. c #CEA476",
"v. c #D3A37C",
"b. c #D5A679",
"n. c #C7BA75",
"m. c #D0BB7C",
"M. c #E2A579",
"N. c #B6CD5C",
"B. c #B9D25E",
"V. c #ABCA5B",
"C. c #BBCE63",
"Z. c #BDCD6B",
"A. c #B5CC69",
"S. c #B6D463",
"D. c #BAD365",
"F. c #BCDA66",
"G. c #B7D46D",
"H. c #BDD46D",
"J. c #BDD96C",
"K. c #B7D863",
"L. c #BDCA76",
"P. c #BDD572",
"I. c #BED973",
"U. c #BDD479",
"Y. c #BED879",
"T. c #AECE61",
"R. c #BFE06B",
"E. c #C2CD6D",
"W. c #C6C56E",
"Q. c #C2D46D",
"!. c #C3DA6C",
"~. c #C3D268",
"^. c #C9C374",
"/. c #C4CC72",
"(. c #CACD74",
"). c #C3CD7B",
"_. c #CCCD7A",
"`. c #C8C378",
"'. c #D2CD7D",
"]. c #D3C878",
"[. c #C2D472",
"{. c #CBD475",
"}. c #C3D973",
"|. c #C4D37A",
" X c #CCD37B",
".X c #C6DA79",
"XX c #CBDA7B",
"oX c #D2D17C",
"OX c #D0D475",
"+X c #C7E276",
"@X c #B49584",
"#X c #B7A587",
"$X c #BAB884",
"%X c #CAA586",
"&X c #D7A786",
"*X c #DEB38B",
"=X c #D5AE94",
"-X c #D8BB9A",
";X c #C7B591",
":X c #E5B789",
">X c #F3BC8E",
",X c #ECBB9A",
"<X c #E6BA95",
"1X c #FABE94",
"2X c #E3A783",
"3X c #D3BCA4",
"4X c #E8BDA4",
"5X c #BEC488",
"6X c #C3CD82",
"7X c #C9C989",
"8X c #D5CB85",
"9X c #C5D383",
"0X c #CBD383",
"qX c #CCD787",
"wX c #D5D281",
"eX c #D9D586",
"rX c #CBD491",
"tX c #D7D596",
"yX c #E6C88B",
"uX c #ECC394",
"iX c #ECC69A",
"pX c #F3CB9C",
"aX c #FBCD9C",
"sX c #F7C498",
"dX c #FCD29E",
"fX c #F6D599",
"gX c #EDD290",
"hX c #DBC5AB",
"jX c #DFDEA6",
"kX c #EAC7A6",
"lX c #F4CDA3",
"zX c #FDCCA3",
"xX c #F9C8A6",
"cX c #F5D1A3",
"vX c #FCD3A4",
"bX c #FED4AA",
"nX c #FDD9AC",
"mX c #FFD8A5",
"MX c #E8CCB4",
"NX c #FACCB0",
"BX c #F8D6B5",
"VX c #EFDBC0",
/* pixels */
"V.T.G.H.H.H.H.H.I.J.J.I.P.P.P.P./.(.oX_.&.x t n ^ u.t.H n t G l.8X'.W.|.[.I.+XP.[.[.[.[.[.[.[.Q.P.P.",
"V.T.G.H.P.P.P.P.I.J.J.I.I.Y.Y.|.(.oX(.w.&.o...X.j.M.h.u.+.H F ..0.wXoX X[.G.I.I.P.P.[.[.[.[.[.Q.P.P.",
"N.S.H.P.P.P.P.[.Q.Q.!.!.[.[.[.|./.^.w.*.z.yXgXyXsXsX1X>X:Xb.X.F ] z.'.(.[.G.H.}.P.P.P.[.[.Q.Q.Q.[.P.",
"T.D.H.[.P.[.[.[.}.Q.Q.Q.[.[.|./._.z.w.z.8XfXdXdXdXaXvXvXaXuXc...D o.w./.XX[.I.Y.H.H.P.P.H.H.H.Q.[.P.",
"D.D.H.[.[.[.}.}.Q.Q.Q.Q.[.[.[._.(.w.w.8XgXgXfXpXaXaXmXvXaXdXuXl.Y C o._. X}.}.}.H.H.P.P.H.H.P.H.[.[.",
"D.D.H.[.[.[.[.}.E.E.E.E.[.{. X XW.*.0.yXfXdXdXaXvXcXcXaXaXmXsXc...t [ wX XZ.[.}.P.P.P.P.P.P.H.H.[.[.",
"D.D.H.H.[.[.[.[.E.E.Z.E.(.{. X'.'.@.#.yXdXaXaXsXmXvXcXpXcXmX,Xf.~ d o.'._.E.Q.[.[.[.[.[.P.[.H.H.P.P.",
"D.D.H.H.P.P.[.[.Q.Z.Z.E./.(._._.^.F Y :XmXzXaXzXpXlXpXpXcXbXsXb.~ G $.].'. XE.Z.[.}.[.[.[.Q.Q.Q.P.P.",
"S.S.D.H.P.P.P.}.P.H.Z.Z./.{.(.W.0.D Y :XsXzXxXzXzXpXvXiXcXvXxXv.~ S S $.^.oXE.Q.[.[.}.}.}.Q.Q.H.H.P.",
"B.S.S.H.P.P.Y.Y.P.P.[.Q.[.{./.W.*.C S :XzXxXxXbXzXlXbXcXbXlX<Xh./ n t Z *.wXeXXXQ.Q.[.[.}.Q.Q.Q.[.[.",
"S.S.S.G.P.Y.Y.Y.P.P.[.[.{././._.m.Y A g.,XNXNXxXzXzXzXcXBX,X&Xg.) B G ..x.wX{.E.Q.Q.Q.Q.[.Q.Q.Q.[.P.",
"K.S.H.H.P.Y.Y.U.U.P.P.[.[./. XeXyXO.N ( g.<X4X<X,XuXuX<X<Xg.5.s.) B U 4.z.^./.XX[.[.[.[.Q.Q.Q.Q.H.P.",
"K.D.H.H.P.P.Y.Y.U.P.P.[.[./. XeX8XO.A :.5.( W ( p.v.v.3.T L R 5.) N U 0.^.(.[..XP.[.[.[.Q.Q.Q.Q.H.P.",
"D.D.H.H.P.P.U.U.P.P.[.|.[./._._.n.L s E :.:.j 8 ) ,.+.S i R 5.' R a d { w.0X.XA.G.H.P.[.Q.}.Q.}.P.P.",
"B.D.D.H.[.P.U.U.P.P.[.|.{. X(.^.@.r > s 8.hXE 2 W p.y.p 2 6.3X' i > 1 D &.|.qX}.H.H.H.H.Q.Q.Q.Q.P.P.",
"N.B.C.Q.[.[.|.|.|.|.P.P.[. X X`.9.1 O y #XVXE > ( *X:XN : @XBX' 3 # r @.r.L.P.Y.H.J.H.H.H.H.H.H.G.G.",
"N.C.Q.Q.[././.E.[.[.P.P.[.|.|.0Xr.u - y #XMXW 8 7.lXnXW 1 7.MXE 1 - v 7XrXL.|.P.P.P.P.J.H.H.H.H.Z.Z.",
"C.D.Q.[.[./.E.Z.Z.[.[.P.[.P.P.9X5Xe.E 4 j =X=X7.kXBXkX7.E %X@Xf y I r.7XqX9X|.|.P.H.H.H.H.Q.Q.Q.Z.Z.",
"D.H.H.[.Q.E.Z.Z.Z.H.}.P.P.P.U.6X7X;X=.y 3 W %XkXlXnXlX-X7.' g 3 s 2.7X8X0XqXXX[.H.H.H.H.H.Q.[.[.[.[.",
"H.H.P.[.[.Z.Z.Z.P.[.I.H.P.|.|.).7X2.l i 3 2 L &X,XbXbXuX1.a 2 i j D 4.8XwX X X/.H.H.H.H.Q.P.[.[.[.[.",
"I.J.P.P.P.P.H.H.}.H.P.H.P..X|.w.@.{ L L g 5 N ) 3.a.a.+.P p a L T F [ 0.n.^.(.{.[.Q.Q.Q.[.[.[.[.}.}.",
"I.I.P.H.P.[.P.P.H.G.H.P.[.XXL.&.z ..4.3.d.>./ S S S A N P ) >.>.+.#.F Z 0.'.(.{.[.Q.Q.[.[.[.[.[.}.}.",
"I.G.G.G.P.[.[.[.H.D.H.[.[. XW.o.z T ,.p.g.g.y.y.a.i.i.#.f.p.d.p.p.a.S t #.eX_.(.Q.Q.Q.[.[.[.|.[.}.}.",
"G.G.G.G.P.[.[.}.!.H.Q.[./.'.n.o.A ..p.p.y.u.v.zXaXaXdXaXpXc.<.<.i.i.~ F $.^.oX(.E.Q.Q.[.[.[.[.[.}.}.",
"G.G.G.P.H.[.[.}.}.C.{.{._.w.] F ..b.*Xf._ P h.bXvXmXdXmXpX,.P >.h.:Xa.X.F ] W.OXE.Q.Q.Q.Q.[.[.[.[.Q.",
"G.G.P.H.[.[.Q.Q.!.Q.{.(.'.*.C Y c.pXsXf.P V y.zXvXaXpXmXpXT a ) 2X1X>Xl.Z Z z.(.Q.Q.Q.Q.Q.[.[.[.[.Q.",
"H.P.P.[.[.[.Q.!.~.Q.{.(.eX*.C O.uXvXsXd.N 2 ~ lXmXdXpXnXuXN 2 P &XsXzX:XF Z W.(.[.Q.Q.Q.[.[.[.}.}.[.",
"P.[.[.[.}.Q.Q.Q.~.~.{.(.eX0.C 4.cXbX<X>.p : B *XpXmXpXpXv.p , M s.1XnXuX[ Z z.(.[.Q.Q.Q.Q.[.}.}.[.[.",
"P.P.[.[.[.Q.Q.Q.!.Q.{._.8X0.A O.uXzX:XP 6 : N g.<XvXpX*X<.5 : 9 _ ,XvX:X[ Z w. X[.H.H.H.Q.Q.Q.Q.Q.Q.",
"P.P.[.!.Q.Q.H.H.!.D.{. X8X0.A T v.v.d.N 2 : p g.iXnXcX:X,.5 : 5 / &X&X3.U D w.0X[.H.H.H.H.Q.Q.Q.H.H.",
"H.H.H.H.H.H.J.F.H.H.[._.eX2.d T v.g.<.K 8 , p 3.<XpXiX&X) a 6 9 / g.%X4.l z w.XX[.H.H.H.H.~.Q.Q.H.H.",
"P.P.H.H.H.H.J.J.J.}.P.).tX{ 1 L <XkX&XP a a N P 3.v.f.+.K a 9 m ' =XkX%Xs w q.XX[.[.[.Q.H.D.D.D.H.H.",
"|.|.|.P.P.H.H.H.G..X/.).7X{ < v MXMX%XR g M M m / / / P M m m J ' =XMX-Xs e 9.qXXX|.|.[.H.D.D.D.D.D.",
"|.|.|.P.P.P.H.H.H.Q.[.).rX| = I hX=X6.J g m m M B B K M m J J g Q @XhX;Xu e 9.0X|.|.|.[.[.H.H.D.D.D.",
"|.|.|.P.P.H.H.H.Q.Z.|.).rX .& k ;X8.v 3 3 m P / / P M p m J m 8 f Q #X#Xw e q.qX).).|.[.[.H.H.H.H.H.",
"|.|.|.|.P.H.H.H.!.D.}.|.6X| q u ;.v y # > N ) <.s._ K m J J a : 4 f E E u s q.9X).).|.|.[.P.J.J.J.J.",
"[.[.|.|.[.Q.J.J.J.D.Q.[.|.r.} k q - * o > N ) d.s.) B P ) R a # % ; = q z %.L.|.|.|.|.|.P.P.I.I.I.}.",
"[.[.[.|.[.H.J.J.J.F.!.}.|.|.6X .q q < < w A +.v.g.) B ! 1.( j > O q q u %.6X0X9X|.[.|.[.[.P.P.I.[.[.",
"(./.[.[.[.J.J.J.F.F.!.H.}.[.qXq.e.e.| l l O.v.:Xb._ V P ,.,.L > y =.e.9.L.9X|.|.|.[.[.[.[.[.P.I.[.[.",
"(././.Q.Q.J.J.F.K.K.!.D.[.Z.|.0X7XtX;XI A v.sXsXh._ V P i.a.T < s $XjXrX9X|.[.[.Z.E.[.[.}.[.[.[.[.[.",
"(.[.[.Q.H.H.J.F.R.N.F.!.Q.[./._.7X8X0.D O.>XvX1Xj.^ B ! y.f.~ 1 s $X7X9X|.P.[.}.Q.Q.Q.Q.}.[.[.H.[.[.",
"~.Q.Q.Q.H.H.J.J.K.F.J.C.Z.[./.0X`.0.{ Y i.sXaX1Xk.^ B ! y.p.P > w $XrX6X|..XH.Q.Q.Q.Q.Q.Q.Q.H.H.G.Z.",
"~.Q.Q.Q.H.H.J.J.D.+X!.D.[.[. XwXn.[ C ..c.>XsX1Xh._ B P y.v.O.r s 9.6X6X|..XH.}.Q.Q.Q.Q.Q.H.H.H.C.Z.",
"~.~.Q.H.H.H.J.J.J.}.G.}. X(.0X].m.U C X.a.f.h.h.y._ B B 1.*X&XO.s w  .6X|.|.[.H.Q.Q.Q.Q.Q.H.H.H.Z.Z.",
"~.~.Q.H.G.H.H.G.J.H.A.}. X_.eXn.4.U T a.b.c.f.<.u._ L ) %XMXBX-X=.u k | q.|..XH.Q.Q.Q.Q.[.[.P.P.H.Z.",
"~.~.D.H.H.H.G.G.G.G.Z././.'.`.4.U ~ a.uXlXlX*X3.3.W J 5.4XMXMXMX3X=.u q } 9X.X[.[.Q.[.[.[.[.[.[.Q.Q.",
"!.!.Q.H.H.H.G.G.G.G.Z./._.0.[ D T a.<XlXBXNX%XR J f 7 c ` ` ` ` b c - & | qX|.|.[.|.[.[.[.[.[.[.}.[.",
"!.!.Q.Q.P.P.Y.P.G.A.A.).wX[ < r O.%X-X-XkX-X:.f 4 ; % % # $ $ $ $ @   & | 6X9X|.|.[.[.[.[.[.[.[.[.}.",
"Q.Q.Q.H.H.Y.U.U.P.G.Z./.0X .= O y h c j h h 7 ; o o o + + + + X X . . & -.rX9XU.P.P.P.[.P.P.|.|.[.[.",
"Q.Q.Q.H.P.U.U.U.P.Z.G.[.9X} = o o O O o o O o   . X X + $ $ + + . . . & -.rXqX|.P.H.P.P.P.P.|.|.[.[."
};
