/* XPM */
static char *_2ddc246b9f14abbe9c36d0b387f790aaI323ZFIUcVdJ4aQ[] = {
/* columns rows colors chars-per-pixel */
"50 50 227 2 ",
"   c #6D4D3A",
".  c #724F3D",
"X  c #6F5639",
"o  c #735C3C",
"O  c #74553D",
"+  c #75653B",
"@  c #766A3D",
"#  c #76663A",
"$  c #744F43",
"%  c #7D4F46",
"&  c #764C4C",
"*  c #7B4D4C",
"=  c #755442",
"-  c #7B5345",
";  c #75544A",
":  c #7C524D",
">  c #7D5B4C",
",  c #7B5C45",
"<  c #6F4E59",
"1  c #744D53",
"2  c #7A4B55",
"3  c #734E5A",
"4  c #7C4D59",
"5  c #765157",
"6  c #7C5353",
"7  c #7D5A53",
"8  c #74515B",
"9  c #7B535C",
"0  c #7E595B",
"q  c #6F4F40",
"w  c #7B6544",
"e  c #7A6747",
"r  c #7C5861",
"t  c #81554D",
"y  c #8D5D4C",
"u  c #83594C",
"i  c #915E4E",
"p  c #9B5E4A",
"a  c #814D59",
"s  c #825554",
"d  c #835A55",
"f  c #8B5D54",
"g  c #84545C",
"h  c #88575D",
"j  c #845B5B",
"k  c #8B5D5C",
"l  c #945E53",
"z  c #945E5C",
"x  c #995F59",
"c  c #84664B",
"v  c #87694E",
"b  c #9D624C",
"n  c #92634E",
"m  c #83734D",
"M  c #8A744E",
"N  c #9F714E",
"B  c #8D6355",
"V  c #8E6A54",
"C  c #87615A",
"Z  c #8D635C",
"A  c #8D695C",
"S  c #866A57",
"D  c #946354",
"F  c #9C6354",
"G  c #936A53",
"H  c #9A6B54",
"J  c #92645C",
"K  c #9A645A",
"L  c #946A5B",
"P  c #9A6C5C",
"I  c #8C7353",
"U  c #897656",
"Y  c #9C7155",
"T  c #93745C",
"R  c #9C715C",
"E  c #957A5E",
"W  c #937355",
"Q  c #A3684E",
"!  c #A4764D",
"~  c #A36A54",
"^  c #A36B5B",
"/  c #A46859",
"(  c #A37454",
")  c #AB7255",
"_  c #A4745B",
"`  c #AC765D",
"'  c #A7785C",
"]  c #AA7A5E",
"[  c #A77B56",
"{  c #B0795D",
"}  c #835761",
"|  c #835B63",
" . c #8C5D63",
".. c #8C5E68",
"X. c #895760",
"o. c #915D63",
"O. c #905E69",
"+. c #856064",
"@. c #8C6263",
"#. c #8D6269",
"$. c #896763",
"%. c #936463",
"&. c #9B6663",
"*. c #956A63",
"=. c #9C6C64",
"-. c #93646A",
";. c #956D6A",
":. c #9C6D6A",
">. c #98676A",
",. c #9D7362",
"<. c #957A63",
"1. c #9A7A65",
"2. c #9D736C",
"3. c #96796B",
"4. c #9C7472",
"5. c #9C7A71",
"6. c #A26D65",
"7. c #A76F67",
"8. c #A27564",
"9. c #AC7563",
"0. c #A47A64",
"q. c #AC7963",
"w. c #A3746A",
"e. c #AC7469",
"r. c #A57C6B",
"t. c #AA7B6B",
"y. c #B27766",
"u. c #B27B64",
"i. c #B0786A",
"p. c #A17572",
"a. c #A67C74",
"s. c #AA7D72",
"d. c #A57B7B",
"f. c #A87770",
"g. c #8E864D",
"h. c #8E894F",
"j. c #91884F",
"k. c #8F8753",
"l. c #93825A",
"z. c #918852",
"x. c #AA8359",
"c. c #B4855B",
"v. c #9B8867",
"b. c #9C9265",
"n. c #9E8572",
"m. c #AB8966",
"M. c #A68766",
"N. c #B48A6B",
"B. c #B38769",
"V. c #A6946A",
"C. c #B9976E",
"Z. c #AC8373",
"A. c #AC8B7B",
"S. c #A78577",
"D. c #B48B75",
"F. c #B28D7D",
"G. c #B18578",
"H. c #A99776",
"J. c #B69375",
"K. c #BC9A74",
"L. c #B3917D",
"P. c #BE9579",
"I. c #BA9776",
"U. c #AFAF69",
"Y. c #AEB16A",
"T. c #B1B06B",
"R. c #AEA275",
"E. c #A7A373",
"W. c #B5AA77",
"Q. c #B6B175",
"!. c #B2AC6E",
"~. c #C49A6C",
"^. c #CD9E6E",
"/. c #C49767",
"(. c #C39C73",
"). c #CB9E72",
"_. c #C39B7A",
"`. c #C89B7A",
"'. c #C9A279",
"]. c #D9AC7C",
"[. c #DBB17F",
"{. c #BDD369",
"}. c #BCD266",
"|. c #BFCD6E",
" X c #C2CE6D",
".X c #C2D56D",
"XX c #C3D86D",
"oX c #C4CF74",
"OX c #C5CC7A",
"+X c #C9CD7B",
"@X c #C5D573",
"#X c #C7D479",
"$X c #CBD57B",
"%X c #CBD778",
"&X c #AB8484",
"*X c #B48D82",
"=X c #B58C85",
"-X c #B69383",
";X c #BB9485",
":X c #B59B87",
">X c #B8A984",
",X c #BBB685",
"<X c #C69989",
"1X c #C89D94",
"2X c #D7AC85",
"3X c #C3BA8B",
"4X c #DCB084",
"5X c #D3A998",
"6X c #C3B294",
"7X c #C7BB93",
"8X c #CEA589",
"9X c #E4B78B",
"0X c #E4B586",
"qX c #DCB0A3",
"wX c #E7B9A9",
"eX c #C7CB81",
"rX c #CACD83",
"tX c #C7C48C",
"yX c #CACA8D",
"uX c #C8C789",
"iX c #CCD284",
"pX c #CDD18D",
"aX c #C6D280",
"sX c #CCC795",
"dX c #D3D398",
"fX c #D3D294",
"gX c #F0C4B2",
/* pixels */
"$ $ .   X m H.3XdXdXfXpXeXOXoX.X.X.XXXXXXXXX{.{.}.}.}.{..XXXXX.X.X}. XoX|.aXpXfXdXdX7XH.m X     . $ ",
"- - = O o m V.,XsXfXfXpXrXOXoX X.X.XXXXXXX.X.X{.}.}.}.}..XXXXXXX.X X XoXOXiXpXpXdXsX3XH.I o O = - - ",
"B B v c v I b.R.,X,XyXyXrXrX+XoX@X@X@X%X@X@X@X@X.X.X.X@X@X@X@X@X@X@XoX#XeXiXpXuXtX,XR.V.T v v v B B ",
"r.r.0.M.v.l.l.k.b.E.,XyXyXrXiXiX$X$X$X$X$X$X#X#X@X@X#X$X$X$X$X$X$X$X$XiXrXyXuX,XR.b.l.l.v.v.M.0.0.0.",
"P.J.J.I.I.M.M @ m b.,XtXyXuXuXrX+XOXOXOXOXOXOXOXOXOXOXOX+X+X+X+XrX+XeXeXuXyXtX,XV.m w I M.J.I.J.J.J.",
"_.P.K.'.W.V.M o e b.,XtX3XQ.!.!.T.T.T.U.U.U.U.Y.Y.Y.T.T.T.T.T.T.!.!.!.Q.Q.3X7X,Xb.e o M m.K.'.P._._.",
"_.(.(.'.K.M.M w m V.6X7XW.b.k.g.z.j.j.g.g.g.h.h.h.h.z.h.g.g.g.g.z.k.k.l.b.>X7X6XH.m o I m.I._.(.(.(.",
"(.(.(.K.C.x.I c U H.6X6XH.U w + @ @ # # # # @ @ @ @ @ @ # + + # @ # # w U H.6X6XH.U w W m.C.K.(.(.(.",
"~.~.~.(.C.M.W c S n.:X:Xn.U e w e w w w w w w w w w w w w w w w w w w w U n.:X>Xn.I c I m.K.(.(.~.~.",
"/.~.~.~.C.M.M , , S 3.n.5.1.<.E 1.1.1.1.1.1.<.<.T T <.<.<.<.1.1.E E E <.3.n.n.n.A e , G m.C.(.~.~.~.",
"/./.~.(.K.m.V = q ; 7 S 3.S.L.L.F.F.-X-X-X-XF.A.S.S.A.A.F.-X-XL.D.L.L.A.S.5.$.7 ; = , G m.K.(.)././.",
"^.^.).'.(.B.G =   ; 7 C 3.A.-X-X*X;X;X;X;X;X-XF.F.A.F.F.;X;X;X-XF.L.;X*XA.5.@.7 ; $ - W N.(.'.'.).^.",
"].].].2X2XC.G - ; 7 ;.4.5.a.S.S.s.t.s.Z.Z.Z.Z.r.r.r.r.t.Z.Z.s.t.t.Z.s.a.a.d.4.;.d ; - W C.8X2X2X].].",
"9X9X9X9X2X_.R u 7 ;.&X&Xd.2.*.P P L L L P P P P P P P P P P L L L P L =.4.d.&X&X#.d u R P.2X9X9X9X0X",
"0X0X4X4X2XP.R u d ;.&X&Xd.;.J B D i y y n D D D G G D D D n i y D B B J :.d.&X&X;.j u R P.2X4X4X4X[.",
"^.).).'.`.N.L t : #.d.d.p.*.B f i y y y y D D D G D D D i i y i y f f J *.p.d.d.-.d t L D.`.'.'.~.~.",
"c.c.c.N.N.0.J s 6 j @.>.>.%.J D D D i i l l D K K K D D l l i i l D D J %.&.-.-.h 6 s J t.N.B.B.x.x.",
"! ! [ ] m.8.B : 2 g  .@.%.J D D F F D l x x x K x K K x x l l D D G K D J %.@. .g 9 s Z w.t.q.] ( ! ",
"N ( ( ] t.,.B 6 2 9 X. . .J J K K K K K K K K K x x x x K K K K K L J J J Z k h g 6 s Z =.0.0.( Y N ",
"( _ ] t.t.2.Z 6 9 9 |  .@.%.L P P P P K K K z z z x z x K K ^ ^ P P L J J @.@. .0 5 6 Z w.t.q.] _ _ ",
"' ' 0.0.w.=.k 6 9 } ..#.-.%.L P 6.6.=.=.&.J z z z z z J K &.6.6.8.,.P J J %.@.@.0 5 6 k w.q.q.] ' ' ",
"R R R ,.=.%.j 5 9 } ..#.@.Z L P w.w.6.=.&.%.o.o.o.o.o.z J &.6.7.8.8.P J Z Z @.@.0 5 6 j L R _ _ R R ",
"H H L L L B d 6 5 }  .@.@.Z L P w.w.=.=.&.%.o.o.o.o.o.o.o.&.=.6.t.8.P D Z Z C +.j 5 1 s B G H G H H ",
"H H G G B d 7 & 5 j  .@.C Z L P w.w.:.=.&.%.o. .o.o.o.o.o.%.>.=.t.,.P L V A $.@.j 5 * 7 f D D G G G ",
"H H H H L B d : 6 j @.@.Z B G R w.w.2.%.%.o. . . . .o.o.o.o.%.=.8.,.R L A A C C 0 6 6 d B G G H H H ",
"_ _ _ R P L d : 7 j C A Z B G Y 8.w.:.%.%.o. . ...O.-.o. .k %.=.8.8.R L V A C C d 7 7 f J P R Y ( ( ",
"` ` ' 0.8.P B > 7 d Z A V B G G 8.,.2.*.%.@. . ...#.-.o. .k &.:.8.8.R L V V A C d 7 7 k =.8.0.' ' ' ",
"` ` q.q.8.P B > : d C Z V B G Y 8.8.,.*.-.@.@. ...#.O.-. . .%.=.8.,.R G V B A d 7 : 6 k =.8.q.q.] ' ",
"` ` ] q.' P y > : d C Z B B G R 8.1.,.*.%.%.@.#.-.-.-.-.-.@.%.*.,.R W V V B B d 7 : : f =.t.q.q.] ] ",
"q.q.q.q.0.P B t : s j C B B G R 8.1.,.*.%.%.-.#.-.-.-.-.%.Z %.=.,.R R P L V C d : : : k =.t.q.q.q.] ",
"y.q.q.q.0.P B t : d k B B B G R ,.,.,.L Z @.@.@.-.-.-.@.k Z :.s.D.D.D.Z.r.,.B > : : : k w.t.t.q.` q.",
"y.y.9.9.8.P B s s d k Z B B G R ,.,.,.L Z Z @.@. .@.-.@.k Z p.*X5X5X5X8X;XZ.*.d 7 * : k 6.t.i.q.9.9.",
"y.y.e.e.e.=.k s s s j Z B B D P ,.,.R L Z Z @.@.@.@.@.Z d C a.1XwXgXgXwX5X=X2.k s 6 s z 6.e.i.i.9.9.",
"9.9.9.e.7.>.k s s s j Z B B J P ,.,.R L Z Z Z @.Z k @.Z f B a.<XwXwXwXqX1X=X4.@.s 6 s k &.7.7.7.` ` ",
"/ / / ^ 6.J h 6 6 s k Z B B J P ,.,.,.L J Z Z Z Z k Z Z C B 2.G.<X<X<X<XF.a.;.@.s 6 t d K K / ~ ~ ~ ",
"b b F F K z s * * s k Z B B J P ,.,.,.L J Z J Z J Z Z Z B B L w.t.t.t.8.=.*.@.Z d : : u l F F p p p ",
"b b b F K l s % : s k Z B B J P 8.8.,.L D J J J J Z Z J J B J P P P L J J B Z C d : % t D F F b p b ",
"Q Q ~ ^ ^ G f t : d B J B B J P 8.8.,.L V B J B B B B B J J L P ,.P L D B Z Z C d : % y F ~ / ~ ~ Q ",
") ) ) ` _ L f t t d Z *.J B J =.8.8.,.L B B B B B f f B J L =.,.w.8.P J J J Z k t - - y H ` ` ` ) ) ",
") ) ` ` 9.P B t t d J *.J B L =.8.8.R L B B B B B B B B B J =.,.w.w.=.*.*.*.Z C t - - y ^ q.u.u.{ { ",
"` ` ` 9.0.P f t : d Z J Z B J =.w.8.,.L B B B J B B B B f B L ,.w.w.=.%.J Z Z C : % - y P 9.y.u.u.{ ",
"` ` q.9.8.P f : : d Z Z k k %.*.w.w.,.L J B J J B J J B B B L =.w.w.:.%.@.@.C C 7 : : f P 9.q.q.q.q.",
"q.q.q.q.8.L d : : 6 j @. .k @.&.2.w.:.%.J J J %.J J J J J J %.=.w.w.:.%.@.@.Z j 6 : : f =.w.t.9.q.q.",
"q.t.t.t.w.*.j 6 6 j | @.@.@.-.-.:.:.:.%.J J %.%.%.%.J J J %.&.>.:.:.>.%.#.@.+.j j : 6 j :.a.f.t.9.9.",
"t.t.t.f.p.;.@.j 0 j +.#.#.#.#.-.:.:.>.-. .o.%.k o.%. .%.-.%.>.>.>.-.-.@.#.#.#.+.0 6 5 Z :.a.s.f.w.e.",
"w.w.w.w.2.;.@.0 0 } | |  .#.#.#.-.>.-. . . . .k  . .k  .-.%.-.-. . .@.#.#.#.+.+.0 9 9 +.;.4.p.w.w.w.",
"&.%.%.%.-.@.| 9 9 9 r r } } | X. . .X.h h h h h h g h h  . . .X.h } } } | | | r 9 8 9 } @.-.%.%.%.%.",
"k d j j j j 9 5 8 9 9 9 r 9 9 9 g g a 4 a g g g g a a a g h g a 4 4 9 9 9 r r 8 8 8 8 9 j h h j j j ",
"* * * 6 5 5 8 3 1 < 3 3 9 9 9 9 4 4 2 2 4 4 a a a a 2 2 2 2 2 2 2 2 4 4 9 9 8 8 8 8 9 8 1 1 1 1 2 6 ",
"& & & 1 5 5 1 1 < < 3 3 9 9 9 4 2 2 2 2 2 4 a a a 2 2 2 2 2 2 2 2 2 4 4 3 9 8 < < < 3 1 1 1 1 1 1 1 "
};
