/* XPM */
static char *_4e31291206e4c56e7df309e0022cc18xR3urLG8K5832tie[] = {
/* columns rows colors chars-per-pixel */
"50 50 227 2 ",
"   c #6D4B39",
".  c #70483C",
"X  c #745E3C",
"o  c #73533C",
"O  c #7B693E",
"+  c #7A4C4B",
"@  c #784D45",
"#  c #6D5045",
"$  c #735241",
"%  c #795144",
"&  c #795B43",
"*  c #7D524C",
"=  c #7A5D4B",
"-  c #755748",
";  c #6F4C5A",
":  c #754D55",
">  c #7B4D52",
",  c #744E5A",
"<  c #7A4F58",
"1  c #765354",
"2  c #7B5353",
"3  c #7C5B54",
"4  c #74515D",
"5  c #7C545B",
"6  c #7D5A5A",
"7  c #6B4F43",
"8  c #7E6446",
"9  c #7C6A42",
"0  c #7C6448",
"q  c #7E6058",
"w  c #745261",
"e  c #7C5662",
"r  c #7E5962",
"t  c #81554D",
"y  c #855A4E",
"u  c #8C5B4D",
"i  c #975E4B",
"p  c #985F4E",
"a  c #825553",
"s  c #835A56",
"d  c #8C5D54",
"f  c #81565B",
"g  c #855B5C",
"h  c #8B5D5C",
"j  c #895756",
"k  c #935E55",
"l  c #935E5A",
"z  c #82644A",
"x  c #836B4A",
"c  c #8A6E4D",
"v  c #84664A",
"b  c #9A644D",
"n  c #98664A",
"m  c #88724D",
"M  c #846255",
"N  c #8B6354",
"B  c #8E6A54",
"V  c #84625B",
"C  c #8C635C",
"Z  c #8B6A5B",
"A  c #866C56",
"S  c #936354",
"D  c #9B6453",
"F  c #946A55",
"G  c #9D6B55",
"H  c #93635C",
"J  c #9A655B",
"K  c #946A5C",
"L  c #9B6C5C",
"P  c #8D7353",
"I  c #8C7859",
"U  c #94735B",
"Y  c #9B745E",
"T  c #957B5C",
"R  c #9B775B",
"E  c #A16C4D",
"W  c #A26C55",
"Q  c #A46C5A",
"!  c #A06753",
"~  c #A47C56",
"^  c #A4725D",
"/  c #AC755D",
"(  c #A37B5B",
")  c #AC7B5D",
"_  c #A97754",
"`  c #B1785E",
"'  c #845C63",
"]  c #8B5E63",
"[  c #845D69",
"{  c #8C5F6A",
"}  c #815765",
"|  c #905F63",
" . c #8D6263",
".. c #8B6C63",
"X. c #8C626A",
"o. c #8B676A",
"O. c #936463",
"+. c #9A6662",
"@. c #956A63",
"#. c #9B6C63",
"$. c #92656A",
"%. c #946A6B",
"&. c #9C6D6A",
"*. c #957260",
"=. c #9C7363",
"-. c #967A63",
";. c #9B7A65",
":. c #95716E",
">. c #9C716C",
",. c #9A7C6C",
"<. c #9B6C70",
"1. c #9B7573",
"2. c #9A7875",
"3. c #A26D63",
"4. c #A16E6A",
"5. c #A37465",
"6. c #AB7663",
"7. c #A47A63",
"8. c #AC7963",
"9. c #A3736A",
"0. c #A87468",
"q. c #A67C6C",
"w. c #AA7A6C",
"e. c #B17661",
"r. c #B17C64",
"t. c #B07B69",
"y. c #A47A73",
"u. c #AB7B72",
"i. c #A37C7D",
"p. c #A37874",
"a. c #978E55",
"s. c #988F56",
"d. c #99845F",
"f. c #988D5C",
"g. c #969056",
"h. c #999059",
"j. c #A88458",
"k. c #B08B5D",
"l. c #9D8362",
"z. c #988960",
"x. c #9F8375",
"c. c #A58563",
"v. c #A48369",
"b. c #AD8C6A",
"n. c #AA8965",
"m. c #A69A6D",
"M. c #BC9465",
"N. c #BE996C",
"B. c #BB956A",
"V. c #A38B74",
"C. c #AC847B",
"Z. c #A98777",
"A. c #B58E76",
"S. c #B4857C",
"D. c #B28B7D",
"F. c #A99775",
"G. c #B39473",
"H. c #BC9A74",
"J. c #BB957A",
"K. c #BC9B7C",
"L. c #B3977D",
"P. c #BBBC76",
"I. c #BBB77D",
"U. c #BDBA7A",
"Y. c #B0A278",
"T. c #C1996C",
"R. c #C2976C",
"E. c #C29D74",
"W. c #C49E7B",
"Q. c #C99E7C",
"!. c #C5A173",
"~. c #CDA976",
"^. c #C5A37C",
"/. c #C9A57A",
"(. c #D0AA7B",
"). c #D4B37E",
"_. c #CEE67F",
"`. c #A68282",
"'. c #AC8782",
"]. c #B58C82",
"[. c #BB8D85",
"{. c #B59184",
"}. c #BA9385",
"|. c #B79686",
" X c #BAAA82",
".X c #B7A586",
"XX c #BAB282",
"oX c #BEA894",
"OX c #C79D86",
"+X c #CCAC86",
"@X c #C4BA8C",
"#X c #D5B284",
"$X c #DBB585",
"%X c #D4B28A",
"&X c #DBB78B",
"*X c #C7A493",
"=X c #D3AC98",
"-X c #D7B48E",
";X c #D7B9A4",
":X c #E5BCA9",
">X c #CEDC87",
",X c #CFDD88",
"<X c #D2DC8A",
"1X c #D4D68D",
"2X c #CDC697",
"3X c #D1C49A",
"4X c #D2CD99",
"5X c #DADD9C",
"6X c #D5D897",
"7X c #CDEC83",
"8X c #D2E584",
"9X c #D2EB86",
"0X c #D6E58B",
"qX c #D9E58F",
"wX c #D5E98C",
"eX c #D9E98D",
"rX c #CAF083",
"tX c #D6E293",
"yX c #D9E393",
"uX c #DAE19A",
"iX c #D4C1A4",
"pX c #D9CBA5",
"aX c #DCDAA3",
"sX c #DDD3A5",
"dX c #E3DFA9",
"fX c #EFC7B2",
"gX c #E7E3AD",
/* pixels */
"@ $     o I  XsXgXdXaX6XtXqXwX8X7X7X7X7X7X7X7XrXrXrX7X7X7X7X7X_.8X_.9XeX0X0XyX5XgXdXsX XU $     . . ",
"% % o o & T Y.3XsXaXaX5XtXtX0X8X7X7X7X7X7X7X7X7X7X7X7X7X9X7X7X7X8X8XwXeX0XtXuX5XdXsX3X.XT & $ $ % % ",
"N N v v B T F. X@X2X6X5X5XyXyX0X8X9X9X9X9X9X9X9X9X9X9X9X9X9X9XwXwX8X0XyXtXyX5X6X4X@X XF.T A N N N N ",
"q.q.7.v.l.d.d.z.m.XX2XaX5XuXyXyX0XwXwXwXwXwXwXwXwXwXwXwXwXeXeXqXqXqXyXyX5XuX5X4XXXm.d.l.l.v.v.q.q.q.",
"J.J.J.J.G.l.P 9 I F.2XaXaX6X6X1X<X<X<X<X<X<X<X,X>X>X>X<X<X<X<X<X1X1X1X1X6X5X5X2XY.I 9 P v.G.J.J.J.J.",
"OXW.W.^.H.c.x X x F.3XsX4X@XI.U.U.P.P.P.P.P.P.P.P.P.P.P.P.P.P.U.U.U.I.I.@X4XpX3Xm.m X x v.K.OXW.OXOX",
"Q.W.W.^.H.n.c X m F.iXpX@Xm.f.a.h.s.s.s.a.s.g.g.g.a.a.a.a.a.s.h.f.f.f.f.m.@XpX3XF.m X c c.H.W.W.W.Q.",
"E.E.E.E.H.n.P 8 I |.iX;XL.I 9 O 9 O O O O O O O 9 O O O O O 9 9 9 9 9 9 I .XiXiXL.I 8 P c.G.E.W.E.E.",
"R.T.T.E.H.n.P 8 A V.oXoXV.I x 8 x 8 8 8 8 z 8 8 z 8 8 8 z 8 8 8 8 8 8 0 I V..X*XV.m & c b.H.E.E.T.T.",
"M.M.N.E.N.n.P & = ..x.V.V.,.-.-.-.-.-.-.;.;.=.=.*.*.*.=.;.;.-.-.T -.-.-.,.V.V.x.Z = & B b.H.E.N.B.M.",
"M.M.T.!.E.b.P & 7 - 3 ..,.Z.D.D.C.D.D.].[.].D.S.C.C.C.D.].}.].D.Z.D.D.{.Z.,.Z 3 - $ & F b.W.E.N.M.M.",
"T.T.!./.^.G.U = 7 # 1 V >.'.}.}.D.].].[.[.[.].S.S.S.S.].[.}.[.].D.D.{.|.'.1.V 1 $ $ = U G././.!.N.N.",
"~.~.(.#X+XH.T = - 6 o.:.2.i.C.u.q.w.w.u.u.u.u.w.u.w.u.u.u.u.u.q.q.q.y.C.C.2.:...3 = = Y J.+X%X(.~.~.",
"$X$X&X&X%XK.-.M q :.i.`.i.p.>.#.#.K J K J L #.3.3.3.3.#.#.L L K L K @.>.p.i.`.`...V M ;.K.%X&X&X$X$X",
"$X#X#X%X+XG.-.M V :.`.'.i.>.@.H S d d u k k J J J J J S k d d d S S H O.>.i.`.`.:.V M -.K.+X%X#X#X).",
"!.!.!.^.H.b.U 3 3 o.2.i.1.%.H N k u u u u k S J J J J S u u u d d S H C %.2.i.2.o.6 3 *.A.K.W.^.!.!.",
"k.k.k.n.n.;.Z 6 6 ' o.%.%.@.H N S S S d d S J J J J J S S k k k k S H H @.%.%.X.' 6 6 Z ;.b.b.b.k.k.",
"j.~ ~ ( R U M 1 5 r ' X. .C H H S S S S S H H H H H H H H S S S K K K H C  . . .r 1 1 g *.;.7.( j.j.",
"~ ~ ~ ( Y K s 1 : 5 ' X. .C C K J L L K K J H l l H l H H K J L L L J C C  . .' ' 1 1 s K =.R ( ~ ~ ",
") ) ) 7.5.K g 1 : r { X. . .H @.#.#.#.#.+.O.H l h l l H H J #.#.#.#.K C C  .X.o.5 1 1 s @.7.7.7.) ) ",
") ) 7.7.9.@.g : : } X.$.$. .H K 5.5.5.#.#.O.H h h h h H O.#.#.5.5.=.@.C C  . .X.5 : : s @.5.7.8.) ) ",
"G G L 5.=.O.s : : r { $.$. .H K 9.9.9.#.+.O.| h h h h l O.+.&.9.9.=.#.H C  . . .5 > > j J =.^ ^ W W ",
"D D D L #.O.s > : 5 ] X. .C K K 9.9.&.+.O.O.| ] h ] ] | O.O.+.&.0.=.#.H C C  .' f > > j H L G G b b ",
"p p S D J H s > > 5 '  .C H K L 9.9.&.+.O.O.| ] ] ] ] | O.O.&.&.9.=.#.K C C  .] f > > j H J D b i i ",
"b D D L L K j 2 2 f g  .C C F L 9.9.>.@.O. .] ] ] ] ] O.O. .O.&.9.=.*.K C N C g f > > j J L W ! b b ",
"Q Q Q ^ ^ J d a a s ]  .C N F L 5.9.=.@. . .] ] { ] $.O.] h O.&.9.5.*.K C C C h f 2 a j J Q Q Q W W ",
"/ / / 6.6.L N a a s C C C N F F 5.=.=.@. . .] ] { ] X. .h h O.&.9.5.=.K Z C N h s 2 a h 3.0.6./ / / ",
"` ` e.6.6.L N t a s N C C N S F 5.5.=.%.O. . .] { ]  . . .h O.&.=.=.U F N N N g 2 2 a h 3.6.6.6./ / ",
"e./ / 6./ L d t 2 s g C N N B F 7.7.=.@.O.O. . .$.X. . . .C H K Y Y F B N N N M * * t d 3.6.8.r./ / ",
"e./ / 6.6.L d t * 3 g C N N B U 7.7.=.@.O.O.O. .$.$.O. . .C @.#.=.Y Y U F N M s * % * d 3.6.8.8.8./ ",
"e.e.e.6.6.L d t 2 6 g C N N B U =.=.=.K C  . . .X.X. . .C C =.q.A.A.A.b.v.=.N y * % t d 3.6.8.8.8.8.",
"r.e.8.6.5.L d * 2 s g C N N B U Y =.*.K C C  . .]  . . .g C q.D.=X=X=X*X}.Z.@.M * * * C 5.w.8.8.8.8.",
"8.8.6.5.5.@.C s 2 s V C C N F U =.=.Y K C C C C  .h C h s C u.OX:XfXfX:X=X].:.g 2 1 2 C #.q.w.6.6.8.",
"^ ^ 5.5.=.@.g 2 5 6 V C C N F K =.=.Y K H C C C h h C C d C y.OX:X:X:X;X*X].1. .5 1 2 h +.=.5.5.^ ^ ",
"G G L L #.H s 1 1 6 g C N N F K =.5.L K H H H C H h H C h C 9.S.OXOXOX}.].y.%. .5 1 2 s H J L L G G ",
"n n D F K N y + * 2 g C C N H L 5.5.#.K K H H H O.H H H H C L 9.w.w.q.=.&.@. . .6 2 * a N D D D n n ",
"n n b G K N t @ * a h C C N H L 5.5.3.J H H H H H H l H H l J L L L K S C C  . .s * * y S D D b n n ",
"E E W L L S y % * s C H H N H L 5.5.3.J l H H l l l l H H J J #.3.L J S C C  .C a * % y S G G W G G ",
"_ _ _ / ^ J d t * s H O.H H K #.0.5.3.J l l l l l l l l l J 3.3.0.5.#.K J O.C h a + @ u J / ) / _ _ ",
"/ _ / 8.5.L N t t d O.%.O.H J #.0.0.3.J l l l l l l k k l J 3.3.0.0.5.#.#.@.O.h a @ @ u L 8.r.8.) ) ",
"` _ ) 8.6.L d * * s C O.C C O.#.9.0.3.J l l J J l l l l l l +.3.9.9.#.#.O.O. .h a + t u L 6.r.r.8.) ",
"` 8.8.8.7.L d * * s ]  .h h O.+.9.9.4.+.H H J J l H H H l H +.4.9.9.&.O.O. . .g s * * d L 6.8.r.8.8.",
"r.8.8.6.5.@.d * > s g  .] ] O.O.4.9.&.+.H H O.+.O.H O.H H H +.+.4.&.&.O.O. .] g f 2 * d #.w.w.8.8.8.",
"t.w.w.w.9.@.h 2 1 f ' ] ]  .$.%.<.&.&.O.O.O.O.O.O.O.O.O.O.O.O.O.&.&.%.$. . .] ' f 1 2 h &.u.w.w.0.6.",
"w.w.w.y.9.%. .g 5 ' ' X.X.X.X.$.<.&.%.O.]  . .] ] ]  .O.$.%.%.%.$.$.$. .X.X.X.[ 5 5 5  .>.y.u.u.0.0.",
"0.0.9.9.>.%. .' r r ' [ [ X.X.X.$.$.$.] ] ] ] g ] h h ]  . .$. .]  . .X.X.X.X.[ r 5 5 ] %.p.p.9.4.4.",
"O.O.O.$. . .' 5 5 e r r ' ' [ [ ' ' ' g f g g g g f f f g ' ' g f g ' ' ' [ [ r e 5 5 ' X.$.$.O.O.J ",
"j s s g g 6 5 1 4 4 4 e e r r r 5 5 5 1 5 5 5 5 5 1 : 1 5 5 5 5 < 5 5 5 e e e w w 4 , 5 ' g g s j j ",
"+ + + 2 5 5 4 , ; ; , , 4 w 4 , : : : : : : 5 5 5 : : : : : : : : , , , 4 4 w 4 4 4 4 , : : > 2 > > ",
"+ + + > 1 4 , , ; ; , , 4 w 4 , , : : : : , 5 5 5 , : : : : : : : , , , 4 4 w w 4 , , : : : > > > > "
};
