/* XPM */
static char *ea69f359733f45fc9282aa76646f7d2bxp3dugSFcczjnuxg[] = {
/* columns rows colors chars-per-pixel */
"50 50 236 2 ",
"   c #020500",
".  c #060A00",
"X  c #0A0D01",
"o  c #180600",
"O  c #091200",
"+  c #121401",
"@  c #131901",
"#  c #181B0B",
"$  c #2A0100",
"%  c #340100",
"&  c #3B0700",
"*  c #391C00",
"=  c #002300",
"-  c #042A01",
";  c #1B210C",
":  c #003200",
">  c #1E3E0B",
",  c #163500",
"<  c #3A2807",
"1  c #2E2E11",
"2  c #460600",
"3  c #591B06",
"4  c #6F160C",
"5  c #462C11",
"6  c #462F11",
"7  c #6B2311",
"8  c #004601",
"9  c #084803",
"0  c #144406",
"q  c #18531A",
"w  c #174F12",
"e  c #374218",
"r  c #394318",
"t  c #394715",
"y  c #30480E",
"u  c #0A5B23",
"i  c #3A4024",
"p  c #036C2A",
"a  c #366C34",
"s  c #424225",
"d  c #5C5529",
"f  c #754729",
"g  c #4F652F",
"h  c #616630",
"j  c #5D5E5A",
"k  c #595A54",
"l  c #50524F",
"z  c #5D6A42",
"x  c #5F6157",
"c  c #636E48",
"v  c #61625E",
"b  c #686C57",
"n  c #6D774C",
"m  c #5F6061",
"M  c #626362",
"N  c #6A6A6A",
"B  c #79776D",
"V  c #79797A",
"C  c #767873",
"Z  c #8B2A1B",
"A  c #953626",
"S  c #AF3029",
"D  c #84180C",
"F  c #84562E",
"G  c #AF5A56",
"H  c #BA5C50",
"J  c #996D53",
"K  c #97734E",
"L  c #BA664E",
"P  c #BB6456",
"I  c #A76C4D",
"U  c #BF6968",
"Y  c #987764",
"T  c #C95E59",
"R  c #D95A56",
"E  c #D7584F",
"W  c #ED4B4E",
"Q  c #F44C4E",
"!  c #ED524E",
"~  c #F4514D",
"^  c #EA4C52",
"/  c #F44B54",
"(  c #E35855",
")  c #E95555",
"_  c #F25452",
"`  c #F1545A",
"'  c #CA6658",
"]  c #DD615E",
"[  c #D25F62",
"{  c #E45D61",
"}  c #CB6966",
"|  c #EE6366",
" . c #34B46D",
".. c #568B50",
"X. c #729051",
"o. c #41A25B",
"O. c #67A05B",
"+. c #7C8977",
"@. c #718F6B",
"#. c #59B867",
"$. c #4BBA76",
"%. c #4ABF78",
"&. c #53B370",
"*. c #69A769",
"=. c #6FAD6B",
"-. c #08DD6E",
";. c #19D76D",
":. c #0BDB73",
">. c #09DD76",
",. c #12DC73",
"<. c #17D975",
"1. c #1CCF74",
"2. c #28CD76",
"3. c #38C976",
"4. c #26D477",
"5. c #2FD069",
"6. c #0CE277",
"7. c #13E177",
"8. c #42C569",
"9. c #46CA7A",
"0. c #57C77B",
"q. c #88874F",
"w. c #87955C",
"e. c #929D6B",
"r. c #999F63",
"t. c #949F71",
"y. c #959F7A",
"u. c #8D9471",
"i. c #A59468",
"p. c #93A06A",
"a. c #95A071",
"s. c #9BA575",
"d. c #86B46C",
"f. c #A5B27E",
"g. c #BCD37C",
"h. c #B4C776",
"j. c #C5CE7E",
"k. c #C2D97D",
"l. c #63BA83",
"z. c #33DB85",
"x. c #4DCA87",
"c. c #66C88F",
"v. c #8D9287",
"b. c #9FA09A",
"n. c #ACB295",
"m. c #B4B6AB",
"M. c #B5B5B5",
"N. c #BBBCB4",
"B. c #BCBCBA",
"V. c #AEADAB",
"C. c #C58384",
"Z. c #CCBA99",
"A. c #F5B8AB",
"S. c #E8B8B4",
"D. c #A9C88A",
"F. c #BCCD85",
"G. c #BECE8A",
"H. c #B4C48C",
"J. c #BDD484",
"K. c #BDDE85",
"L. c #BDDB8B",
"P. c #BAD38A",
"I. c #BCCB97",
"U. c #BCD595",
"Y. c #BDDC93",
"T. c #BAE084",
"R. c #AFC8B0",
"E. c #A6EBBF",
"W. c #C4CD8B",
"Q. c #C0CD85",
"!. c #C4D484",
"~. c #CBD785",
"^. c #C6DA85",
"/. c #C9D984",
"(. c #C4D48C",
"). c #CAD68B",
"_. c #C6D989",
"`. c #C9DB8A",
"'. c #D0D38A",
"]. c #D2DD8D",
"[. c #C2C895",
"{. c #C4D592",
"}. c #CAD592",
"|. c #C5D991",
" X c #CADB93",
".X c #C6D59A",
"XX c #C3DA9A",
"oX c #CBDD9B",
"OX c #CCD49C",
"+X c #D1DE9D",
"@X c #D2DB93",
"#X c #CCE28B",
"$X c #CDE194",
"%X c #C9E498",
"&X c #D2E29D",
"*X c #D8E89F",
"=X c #CBDCA2",
"-X c #C9D5A3",
";X c #D3D4A4",
":X c #D7DAA8",
">X c #C4C3BC",
",X c #CED2AF",
"<X c #FAC7BF",
"1X c #E5DEB0",
"2X c #CBE2A3",
"3X c #CFE8A7",
"4X c #D5E3A2",
"5X c #D9E5A5",
"6X c #D3E2A9",
"7X c #D8E9AA",
"8X c #D8E5B4",
"9X c #ECE3BA",
"0X c #BAEDCC",
"qX c #B4FDCE",
"wX c #B2FFD0",
"eX c #DDDDD9",
"rX c #CFD0C9",
"tX c #FFDED9",
"yX c #E7D5D1",
"uX c #D8F8DE",
"iX c #D6ECCC",
"pX c #E7E9DD",
"aX c #FBE4D8",
"sX c #EDECCC",
"dX c #EAEAE5",
"fX c #E8E8E6",
"gX c #EBF3E7",
"hX c #FEF2EC",
"jX c #F7F4EA",
"kX c #F6EDF5",
"lX c #EEF4F5",
"zX c #FCF6F4",
"xX c #FDFAF6",
"cX c #FDFBFB",
"vX c #F6F8F9",
"bX c #F6EEE8",
/* pixels */
"_._._.^.^.^._._.!.#X(.{.sX+.  n.iX8X=X6X8XI..XoX{. X(.$X`.J.#X^.F.).`.j.].`.k.k././.)._.^.^.).).)._.",
"_._._.^.^.^._._.^.`. Xf.b b B b z z z h n.-XH.[.}.(.}.).!.(._. X X(.].j.!.^.g.#X/./._._.^.^.).)._._.",
"^.^._.^.^.^._._.!._.&Xw.. u.pX;       O +.sXsX;X:X1X:X;X;XOXOX{..X(.`.`.!.`.#X/./.^._.L.K.K._.)._._.",
"^.^._.^.^.^._._.`.h.*Xs.. B jXm.rXrXrXR.b ; < 5 5 * < i.9X;X:X;XOX2X(.`. X_.`.g./.^._.L.T.K._.)._._.",
"^.^._._.^._._._.`.J.*Xw.X V pXjXcXkXcXxXB o $ & 2 % & J Z.n.Z.[.H.H.G.|.XXP.J.$X_.^._.L.K.^.).'.)._.",
"^._._.^.^._._._.`.J.&Xa.X k N.fXcXkXfXdXyXS.C.G P } G 7 % $ $ o o @ p.5XoX|._._.~.)._.L.K.^.).'.)._.",
"^.^._.^.^.^._.|. X(. Xs.. l B.fXkXkXxXbXaX<XU [ { ( R A 4 4 4 4 3 & f i.[..X XJ.).)._.L.T.K.).)._._.",
"^.^._.^.^.^._.|.(.$X+Xe.. m B.eXcXcXzXpXaX<X} R ` W ) ( R ] ] R ' P 2 & Z.8X{.{.).)._.L.T.K._._._._.",
"^.^.^.^.^.^._.|.|.(.&Xt.  m M.fXcXzXjXbXaXA.} R ) ~ ! ! ) ) ) ) ^ | D 7 f n OX X).).)._.K.K.^._._._.",
"^.^.^.^.^._._.|.|.(.&Xt.  m M.fXcXjXjXbXaXA.' R _ ~ ~ ~ ! ! W W / ` S A % < ;XoX).).).).^.K.^._._._.",
"^.^.^.^.^._._.|._.(.&Xt.  M M.fXcXzXxXhXaXA.T ( W Q Q ~ _ _ ~ / / ` S A % < ;XoX).'.'.)./.^._._._._.",
"^.^.^.^.^.^._.|._.(.4Xt.  M M.fXcXvXxXhXtXA.T R ) _ _ _ _ _ W W W ` S Z 2 6 OXXX}.).'.'./.^._._._._.",
"^.^.^.^.^.^._.|._.(.4Xt.  m M.fXvXlXxXhXtXA.P T T E R R ( ( ) ) ( E S Z % 5 ;X{.|._.).).^.^._._._._.",
"^.^.^.^.^.^._.|._.(.4Xa.  M M.fXvXvXcXjXaX,XY Y J J I I L L ' ' L H A A % 6 :XU.Y._.).).^.^._._._._.",
"^.^.^.^.^.^._.|._.(.&Xa.  M M.fXcXxXcXgXpX,X=.*.*.*.O.O.X.q.q.K K K F f $ < =XY.Y.L.).~././._._._._.",
"^.^.^.^.^.^._._._.(.&Xa.  M M.fXzXxXxXdXuX0Xl.%.9.3.8.8.#.#.=.=.d.X.h d o 1 6XU.L._.).)._._.`._._._.",
"^.^.^.^.^.^._._.`.F. Xs.  N M.fXcXvXhXbXgX0Xl.3.2.<.1.4.5.5.5.5.8.#.#.*.= > =X{.(.~.~.~._._._._._.^.",
"^.^.^.^.^.^.^._.(. X5Xs.  M M.dXvXvXxXzXdX0Xx.2.<.>.:.,.<.<.-.,.;.5.3.$.: > =X}.~.~.~._._._._.(._._.",
"^.^.^.^.^.^._._.(.(.+Xe.  M V.eXvXlXcXgXiX0Xx.2.:.-.-.:.,.7.6.6.,.;.3.%.: > =X}.~./.~._._._.(.)._._.",
"^.^.^.^.^.^._._.`.(.4Xe.  v >XfXvXlXcXgXuXwX9.4.,.-.6.:.>.>.>.>.6.;.2.%.: > =X}.).~._._._._.).)._._.",
"_.^.^.^.^.^._._. XF.5Xt.  j m.v.b.v.v.+.R.wX .2.1.<.<.:.:.7.6.6.6.,.4.%.: > =X}.).^.^._.L._.).).)._.",
"_.^._.^.^.^._._.).F.+Xt.X v b.X   O   - @.qXc.x.x.z.4.z.4.<.,.:.7.;.2.%.: > =X}._.^._._._._.).).)._.",
"`._._./.^.^._._.(.(.5Xe.. v B.# s -Xm.n.@.a q u p p p  .3.2.4.4.4.2.3.$.: > =X|._._._._._._.).~.)._.",
"_.`._./.^.^._._.`.`.+Xe.X k B.+ 1 sX-X8Xn O = = = : : o.0.9.9.3.3.3.%.&.: > 2X|._._.(._._._.).~._._.",
"_._.^._.^.^.(._. X(.4Xt.  j B.+ s :X-XI.I.U.H.H.D.D.D.a : 8 8 8 8 8 &.=.= , XX|._._.).)._._.^.`._._.",
"_._.^.^.^.^._._.`.F.4Xe.  v >X+ s 8X-X-X.XoX}.}. X XU.X.0 0 0 w 0 q ....y g %XL._._.).)._._.^.^.^._.",
"_.^.^.^.^.^._._.`.G.4Xe.  v >X+ r :X{..X{.oX(.}. X}.oX XXX3X2XXX6X2X0 - D.2XY.P._._.).}._._.^.^.^.^.",
"^.^.^.^.^.^._.{. XG.4Xa.  x B.+ t :X{. X|. X(.(.(.Q.F.). X@X@X(.W.7XX.g XX|.P.%X_._.).}.|._.^.^.^.^.",
"_._.^.^.^.^._.{. XF.4Xs.  k N.@ t &X(.}.|.$X|.|.$X$X`.`.!.j.~.).W.W.7X3X XP.%Xg._._.).}.|._.^.^.^.^.",
"_._.^.^.^.^._.{. XG.4Xa.  k N.+ y $X(.).(. X(._.J.J.!.^.`.`.~.!.@XW.|.P.(.`.#X^.^._.).}.|._.^.^.^.^.",
"_._.^.^.^.^._.{. X(.4Xe.  v >X+ t 2X{.}.).@X!.^.^.^.`.^.^.!.!.`._. XL._.).`.!.^.^._.).{.|._._./.^._.",
"_._.^.^.^.^._.{.(.(.5Xe.X C eX; t 2X{.}.).]././.^.k.^.^.`.`.J.`.L._.P.$X).`.`.^.^._.(.{._._._._.^._.",
"`.`.^.^.^.^._._.{.{.4Xe.  V fX; e 6X{. X).`.^.^.^.^._._._._._._._._._._._._.^.^.^._._._._._._.^._._.",
"`.`.^.^.^.^._._.|.{.4Xe.  V fX# e 6X{.|._.`.^.^.^._._._._._._.^._._._._._._._.^._._._._._._._._._._.",
"(.(.^.^.^.^._._. X{.4Xe.  V dX; e 6X{.|._.`.^.^.^._._._._._._.^._._._._._._._._._._._._._._._._._._.",
"(.(.^.^.^.^._._. X(.4Xe.  V dX; e 6X{.|._.`.^.^.^._._._._._._.^._._._._._._._._._._._._._._._._._._.",
"(.^.^.^.^.^._._. X(.&Xe.. V fX; e 6X{.|._.`.^.^.^._._._._._._.^._._._._._._._._.^.^._._._._._._._._.",
"_.^.^.^.^.^._._. X(.oXe.. C eX# e 6X{.|._.`.^.^.^._._._._._._._._._._._._._.^.^._.^.^._._._._.^._._.",
"_.^.^.^.^.^._._.|.(.+Xp.. M rX@ e 6X{.|._.`.^.^.^._._._._._._._._._._._._._._.^._._._._._._._._._._.",
"_.^.^.^.^.^._._.(.{.&Xp.  k B.+ e 6X{.|._.`.^.^.^._._._._._._._._._.^._._._._.^._._._._._._._._._.^.",
"(._.^.^.^.^.^._. X(.&Xe.. j N.@ r 6X{.{._.`.^.^.^._._._._._._.^._.^._._._._.^.^._._._._._._._._._._.",
"(._.^.^.^.^.^._. X(.&Xe.. j N.+ r 6X{.{._.`.^.^.^._._._._._._.^._.^.^._._._._._._._._.^._._._._._._.",
"(._.^.^.^.^.^._. X(.&Xe.. j N.@ r 6X{.{._.`.^.^.^._._._._._._.^._._._._._._._._._._._.^.^.^._._.^._.",
"(._.^.^.^.^.^._. X(.*Xp.. v N.@ r 6X{.{._.`.^.^._._._._._._._.^._._._._._._._._._._._._.^._._._._._.",
"(._.^.^.^.^.^._. X(.*Xe.. j m.+ r 6X{.{._.`.^.^._._._._._._._.^._._._._._._._._._._._._._._._._._._.",
"(._.^.^.^.^.^._. X(.&Xe.  k m.X r 6X{.{._.`.^.^._._._._._._._.^._._._._._._._._._._._._._._._._._._.",
").`.^.^.^.^.^.^.`.(.&Xe.  k m.X r 6X{.{._.`.^.^.^._._._._._._.^._._._._._._.^._._._._._._._._._._._.",
").`.^.^.^.^.^.^._.(.*Xp.X x m.+ t 4X{._._.`.^.^._._._._._._._.^._._.^.^._.^.^._._._.^.^._._._._._._.",
"_._._.^.^.^.^.^.(.!.&XI.n.c i y.H.F.(._.!.`.`.`._._._._._._._.^._._._._._._._._._._._._._._._._._._.",
"`.`.`.`.`.`.`.`.`.&X(.G.8Xc @ I..X X$X$X_.`.`.!.`.`.`.`.`.`.`.`.`.`.`.`.`.`.`.`.`.`.`.`.`.`.`.`.`.`."
};
