/* XPM */
static const char *ZHJhcGVhdSslMjgxJTI5[] = {
/* columns rows colors chars-per-pixel */
"50 50 248 2 ",
"   c #020400",
".  c #030900",
"X  c #0C0900",
"o  c #140401",
"O  c #001300",
"+  c #071700",
"@  c #131500",
"#  c #1A1E0B",
"$  c #171903",
"%  c #240000",
"&  c #2B0000",
"*  c #340001",
"=  c #3A0110",
"-  c #002301",
";  c #002D00",
":  c #1C2807",
">  c #003B05",
",  c #1C3A04",
"<  c #282A0E",
"1  c #382905",
"2  c #2E2D14",
"3  c #283512",
"4  c #31340E",
"5  c #3A3224",
"6  c #420200",
"7  c #400900",
"8  c #5E1707",
"9  c #510600",
"0  c #781819",
"q  c #423204",
"w  c #433E12",
"e  c #6F230C",
"r  c #13470D",
"t  c #37410D",
"y  c #374407",
"u  c #2C490F",
"i  c #155829",
"p  c #3D4A25",
"a  c #076830",
"s  c #3D702E",
"d  c #4B5F24",
"f  c #6B4E2D",
"g  c #576D2C",
"h  c #696B2E",
"j  c #5C5B5D",
"k  c #585757",
"l  c #5E6150",
"z  c #666C4A",
"x  c #6C7053",
"c  c #5E5E60",
"v  c #605F63",
"b  c #626164",
"n  c #6C6D68",
"m  c #76767B",
"M  c #74736E",
"N  c #8B1411",
"B  c #98291C",
"V  c #9D3C19",
"C  c #9A1F21",
"Z  c #982D29",
"A  c #A8282B",
"S  c #B32815",
"D  c #C52B27",
"F  c #816533",
"G  c #C0583D",
"H  c #FA493F",
"J  c #BD5854",
"K  c #947249",
"L  c #B96657",
"P  c #A7684C",
"I  c #8F7267",
"U  c #D65B56",
"Y  c #CD5C4E",
"T  c #F84A47",
"R  c #E4544C",
"E  c #EC5447",
"W  c #F4524A",
"Q  c #EE4F59",
"!  c #FA4B52",
"~  c #EC5353",
"^  c #EE525C",
"/  c #E45757",
"(  c #FA5256",
")  c #EC4745",
"_  c #C66557",
"`  c #D4655A",
"'  c #CD674E",
"]  c #E56159",
"[  c #FD5C62",
"{  c #68843A",
"}  c #29B56E",
"|  c #56904A",
" . c #759759",
".. c #7A874F",
"X. c #5EAD5E",
"o. c #6AA15E",
"O. c #439E61",
"+. c #7B8D77",
"@. c #48BC6B",
"#. c #57B665",
"$. c #51B06B",
"%. c #6CB065",
"&. c #04D96A",
"*. c #17D96A",
"=. c #0CDE74",
"-. c #06DD78",
";. c #18DB76",
":. c #0CCE6E",
">. c #37C669",
",. c #26D66B",
"<. c #2ACC79",
"1. c #37C976",
"2. c #25D776",
"3. c #31D174",
"4. c #0CE273",
"5. c #07E378",
"6. c #13E279",
"7. c #0FE16D",
"8. c #53C15E",
"9. c #49C36F",
"0. c #74C17B",
"q. c #8D995A",
"w. c #8C9855",
"e. c #92995A",
"r. c #898E4B",
"t. c #94A55D",
"y. c #A5BD5D",
"u. c #8F9D61",
"i. c #929F61",
"p. c #929B6E",
"a. c #83837F",
"s. c #81856C",
"d. c #AE8C6A",
"f. c #99A667",
"g. c #AABC74",
"h. c #AFCB5C",
"j. c #B6CC5D",
"k. c #B6D15E",
"l. c #AFC563",
"z. c #AAC86C",
"x. c #B4CB65",
"c. c #BACE65",
"v. c #B5CB6B",
"b. c #BACD6E",
"n. c #B2C668",
"m. c #ACD769",
"M. c #BCD466",
"N. c #B5D46C",
"B. c #BED46D",
"V. c #BCD96C",
"C. c #B5D96A",
"Z. c #BBCD74",
"A. c #BBCC7B",
"S. c #B6C675",
"D. c #BED473",
"F. c #BBD973",
"G. c #BDD37A",
"H. c #BBD97B",
"J. c #B4D778",
"K. c #ABCB79",
"L. c #B8E169",
"P. c #9CCB65",
"I. c #C4CC6C",
"U. c #C6CC68",
"Y. c #C1D56D",
"T. c #CAD16C",
"R. c #C2DA6D",
"E. c #C8D767",
"W. c #C4CE75",
"Q. c #C5CC7A",
"!. c #C1D571",
"~. c #CAD474",
"^. c #C2D973",
"/. c #CADA72",
"(. c #C3D57B",
"). c #C4D97B",
"_. c #CBDB7A",
"`. c #CCD17D",
"'. c #D2D878",
"]. c #D1D174",
"[. c #CBE17C",
"{. c #C5CD5D",
"}. c #719080",
"|. c #34DA82",
" X c #11E282",
".X c #2CE184",
"XX c #4ACB83",
"oX c #49D389",
"OX c #929194",
"+X c #AAB48D",
"@X c #B5B3AA",
"#X c #B5B5B3",
"$X c #BAB8B6",
"%X c #B1ADAA",
"&X c #AB99A5",
"*X c #C9AF92",
"=X c #CDBBB5",
"-X c #F6B4AD",
";X c #EEB1B0",
":X c #B6CE86",
">X c #BED482",
",X c #BDD784",
"<X c #B0C98C",
"1X c #ACD0B6",
"2X c #C9CE83",
"3X c #C3D481",
"4X c #C3DA84",
"5X c #CBDC84",
"6X c #CCDC8B",
"7X c #C7D689",
"8X c #D0DC87",
"9X c #CCDD93",
"0X c #CCD799",
"qX c #D5DA9C",
"wX c #C7C394",
"eX c #C8E289",
"rX c #D4E28B",
"tX c #CBE592",
"yX c #E0E19B",
"uX c #C5C3BE",
"iX c #D4DAB5",
"pX c #D5E6A3",
"aX c #ECD2AF",
"sX c #B1F7CC",
"dX c #BEE1C1",
"fX c #C4C4C2",
"gX c #D2D8D3",
"hX c #FDDFDD",
"jX c #ECD4C8",
"kX c #C6F2CF",
"lX c #E5E5DD",
"zX c #FAE3DB",
"xX c #E5EACA",
"cX c #DEF5E3",
"vX c #EAEAE4",
"bX c #EDEDEC",
"nX c #E6E7E5",
"mX c #F5EAE7",
"MX c #EDF5EB",
"NX c #F3F6ED",
"BX c #EEFDFB",
"VX c #FDF4F4",
"CX c #F6FBF4",
"ZX c #FBFDF3",
"AX c #FCF4FE",
"SX c #FDFCFB",
"DX c #F5F7F9",
"FX c #F1EDF2",
/* pixels */
"y.l.N.^.^.!.D.!.!.!.^.A.xX+.  +XyXrX4XtXtXS.).!.~.~.W.5XJ.P.C.h.k.R.'.U./.~.G.).~.T.T.Y.V.B.!.).!.!.",
"v.N.!.^.D.B.!.!.B.^._.g.z n M z h h g d f.0XS.S.(.Z.Q.3XJ.z.N.Y.Y.c.~.I.T.~.Z.5X!.T.Y.V.F.F.!.!.!.D.",
"D.D.^.Y.B.B.!.^.^.D._.w.. a.NX# . . . O s.iXqX0X7X6X7X7X3XD.Y./.~.I.~._.c.Y.^.D.F.F.F.N.N.F.~.I.!.!.",
"n.v.B.Y.!.D.!.!.).v.5Xt.X n lXuXgXgXgXfXn 2 1 q q 1 1 e.yX2X2X`.2X6XZ.!.^.B.^.c.D.F.J.z.z.B.~.T.!.!.",
"l.v.B.^.!.!.!.D.).n.rXw.. a.lXbXNXNXSXVXI o & * 6 6 6 P *X*X*X+Xg.K.K.J.F.B.Y.'.W.).G.v.v.Y.T.T.Y.!.",
"D.D.Y.^.!.D.!.!.D.G.5Xw.. b #XlXSXmXmXmXjX=Xd.L Y ` J 0 6 * % o X . t.tX,X).T.U.I.(.G.G.!.~.T.I.Y.!.",
"^.^.^.Y.D.D.!.!.eXn.Z.f.  k fXnXbXNXSXnXlXjXL _ ] R U A N 0 8 8 8 * F e.g.>X_.T.Y.D.H.H.(.~.T.T.Y.B.",
"N.B.B.B.!.D.!.!.Z.G.Z.w.. b #XnXDXDXDXbXlXjX_ ] W T ~ / / ] ` Y U ` 9 % wXqXb.R.!.F.J.F.D.!.!.!.B.B.",
"l.x.B.Y.!.D.!.!.(.G.5Xq.  v #XnXAXAXAXVXmX-X` E T T E R E E E W ) [ N e f z (.R.B.B.V.F.!.!.D.D.D.!.",
"x.v.B.Y.!.D.!.!.(.G.5Xq.  b #XnXSXAXAXVXzX-XU E T T E E W T H T ! ! D Z % 2 5XY.Y.Y.B.B.!.!.G.G.D.!.",
"D.B.B.B.!.!.!.!.(.G.5Xq.  b #XnXSXCXCXVXzX-XU W T T W ~ ~ ( ! ! ( T D Z & 5 6XY.T.T.T.T.~.~.J.F.D.!.",
"D.D.B.B.!.!.!.!.(.G.5Xq.  b #XnXZXNXCXZXzX-XU ~ ( ( ( ^ ^ Q ! ! ) W D C = 5 A./.T.T.T.T.~.~.G.F.D.B.",
"D.D.B.B.!.!.!.!.(.G.5Xw.  b #XnXCXNXDXVXhX;XJ U R ~ Q ^ ^ ^ ( W R R D A & 2 ,XL.B.!.D.D.!.!.D.F.D.!.",
"D.B.B.B.!.!.!.!.(.G.5Xw.  b #XvXCXNXDXVXzX=XI P P P L L _ _ ' ' ' G S B * 5 eXm.D.!.G.G.D.!.B.B.Y.!.",
"n.v.B.Y.!.D.!.!.(.G.5Xq.  b #XvXCXCXCXNXlXiXo.X.#.X.o. . ...r.K K K V B & 2 H.L.~.Q.(.(.(.~.E.E.Y.!.",
"l.x.B.Y.!.D.!.!.(.G.5Xq.  b #XvXNXNXCXMXlXkX9.1.,.,.>.9.@.#.X.%.%. .h f o 2 eXC.~.Q.Q.(.!.Y.Y.Y.B.B.",
"Z.D.Y.B.B.!.^.!.).Z.3Xf.  b $XlXZXMXZXmXmXkX@.2.&.4.*.2.,.,.,.3.>.9.8.X.+ < 4XV.Y.~.!.D.B.B.D.D.l.l.",
"G.!.Y.B.B.B.M.v.Z.).rXf.  b #XbXCXSXNXZXzXdXoX:.5.5.&.=.4.4.4.=.;.,.,.>.+ < 4XV.Y.T.D.F.V.V.G.G.l.l.",
"!.!.Y.Y.Y.B.c.l.!.(.3Xq.. b %XlXDXbXBXMXgXkXoX;.-.&.&.&.4.4.=.=.;.*.*.>.- 2 7X^.T.T.D.F.V.V.D.G.D.D.",
"!.D.B.Y.^.Y.M.x.).G.7Xq.  j uXFXAXDXBXBXcXsX1.;.4.4.6.=.4.6.=.=.5.4.7.>.- 2 6X^.T.T.D.F.V.B.!.!.!.!.",
"(.!.Y.Y.Y.B.B.B.).Z.6Xf.  j @XOX&XOXOX}.1XsX<.6.&.&.5.&.-.5. X X5.5.7.>.- 3 6X^.T.!.F.F.V.B.!.!.!.B.",
"(.!.B.Y.B.B.B.!.).Z.5Xi.. b &Xo o   . O +.kXXX|.|..X;. X-.-.-.-.5.=.;.>.- 3 6X^.~.!.F.F.B.Y.~.!.^.^.",
"(.B.c.M.B.B.B.D.!.).6Xq.  j $X$ 4 0X+X+X..p i i i a a } <. X6.6.;.2.2.@.- 3 7X!.!.!.F.F.Y.Y.T.T.!.D.",
"G.v.x.M.Y.^.B.D.Z.(.3Xi.X j $X@ 4 pX:XpXh . O + O - - O.XXoX<.<.1.1.9.$.- 3 7X^.!.D.D.D.Y.T.T.Y.Y.!.",
"G.D.B.B.B.Y.Y.!.(.G.6Xi.. j $X@ w qX:X:XA.S.z.z.g.K.<Xs ; r > > > > #.0.O : >XD.D.D.!.Y.~.T.Y.Y.Y.!.",
"G.D.B.Y.B.Y.Y.!.G.G.6Xq.  v uX$ w qX,X,X).).F.F.).).,X{ , , 3 u r r | | u d eXN.D.D.!.Y.~.T.Y.B.Y.!.",
"G.D.B.Y.B.Y.Y.!.!.(.6Xq.  v uX@ 4 6XJ.,XH.H.J.J.(.Z.4X,X>XtXtX,XqXpXu O <X7Xv.M.N.D.!.~.~.T.M.M.B.!.",
"G.D.B.Y.B.Y.Y.!.(.G.6Xe.  j =X@ y tXJ.H.G.G.J.J.W.b.b.F.^.!.^.b.Q.7X..g :X3X[.R.N.D.!.!.~.~.B.M.B.!.",
"G.D.B.Y.B.B.^.!.!.Z.6Xf.. j =X$ y 6XQ.(.2X`.(.~.].'./.^.c.j.V.^.I.2X6X4X6X(.Y.j.B.D.Y.~.W.~.B.V.B.!.",
"G.D.Y.Y.B.B.B.D.(.Z.6Xi.. k $X@ y 6XQ.Q.`.].W.~.I.T.B.Y././.R.N._.Z.G.G.v.!.E.E.B.D.B.Y.(.(.B.M.B.D.",
"!.!.Y.Y.B.B.B.D.(.(.6Xq.  b fX@ y tX(.`.`.~.B.V.Y.^.V.N.Y.!.G.H.F.F.N.^.)./.{.E.B.B.B.!.(.(.M.k.B.D.",
"!.!.Y.Y.B.B.B.D.G.3X6Xw.. m gX< y 4XA.!.~.!.B.V.^.V.F.B.^._.G.H.N.F.N.^.^.Y./.E.B.B.B.!.).~.c.h.B.D.",
"G.!.B.c.c.B.Y.D.G.(.4Xq.. m bX# t 9XA.!.!.!.B.D.D.D.B.B.Y.!.!.D.D.D.D.D.Y.Y.Y.Y.Y.!.D.!.!.!.B.B.!.!.",
"D.!.B.c.M.B.Y.D.(.(.6Xu.. m bX# t 9XG.!.Y.Y.B.!.!.!.Y.Y.Y.Y.!.!.!.!.!.!.Y.Y.!.!.!.!.!.!.!.B.B.B.!.!.",
"D.!.Y.M.M.B.Y.D.(.G.6Xu.  m bX$ t 9XG.!.Y.Y.B.!.!.!.Y.Y.Y.Y.!.!.!.!.!.!.!.!.D.!.!.!.!.!.!.!.B.B.!.!.",
"D.!.Y.M.B.Y.Y.D.(.Z.5Xq.  m bX# t 9XG.!.Y.Y.B.!.!.!.Y.Y.Y.Y.!.!.!.!.!.!.!.!.D.!.!.!.!.!.!.!.!.!.!.!.",
"!.!.Y.Y.B.Y.Y.D.(.Z.6Xi.. m bX: t 9XG.!.!.Y.B.!.!.!.Y.Y.Y.Y.!.!.!.Y.!.!.!.!.!.!.!.!.!.!.!.!.!.!.!.!.",
"!.!.Y.Y.Y.Y.B.D.(.Z.6Xu.. M gX# t 9XG.!.Y.Y.B.!.!.!.Y.Y.Y.Y.!.!.!.Y.!.!.Y.!.!.!.B.B.!.!.!.!.!.!.!.!.",
"!.!.Y.Y.Y.Y.B.D.(.Z.6Xq.  b fX@ t 9XG.!.Y.Y.B.!.!.!.Y.Y.Y.B.D.!.!.!.!.!.Y.Y.!.!.B.B.B.!.Y.Y.!.!.D.D.",
"!.!.B.Y.Y.B.B.!.(.G.5Xq.. j $X@ t 9XG.!.!.Y.B.!.!.!.Y.Y.Y.B.D.!.!.!.!.!.Y.Y.!.!.B.B.B.!.!.Y.!.!.!.!.",
"!.!.Y.Y.B.Y.B.B.!.G.rXq.. c $X@ t 9XZ.!.Y.Y.D.!.!.D.B.B.Y.Y.!.!.!.!.!.!.!.!.!.!.!.!.!.!.Y.!.!.!.!.!.",
"!.!.Y.Y.Y.Y.Y.!.(.G.8Xq.. j $X@ t 9XG.!.Y.Y.D.!.!.D.B.Y.Y.Y.!.!.!.!.!.!.!.!.!.!.!.!.!.!.Y.Y.!.!.B.B.",
"~.Y.Y.Y.Y.B.B.^.!.G.5Xq.. b $X@ t 9XZ.!.Y.Y.D.!.!.!.Y.Y.Y.Y.!.!.!.!.Y.Y.D.!.!.!.!.!.!.!.!.!.!.!.l.l.",
"^.Y.Y.Y.B.x.c.!.!.G.5Xq.. j $X@ t 9XG.!.Y.Y.D.!.!.!.Y.Y.Y.Y.!.!.!.!.Y.Y.!.!.!.!.!.!.!.!.!.!.!.!.x.x.",
").!.Y.Y.B.x.x.B.!.!.8Xe.  j $X@ t 9XG.!.Y.Y.D.!.!.!.Y.Y.Y.Y.!.!.!.!.Y.Y.!.!.Y.Y.Y.Y.!.!.!.Y.Y.Y.D.D.",
"^.!.Y.Y.Y.c.B.!.).!.8Xq.  k @X@ t 9XG.!.Y.Y.D.!.!.!.Y.Y.Y.Y.!.!.!.!.!.!.!.!.Y.Y.Y.Y.!.!.!.!.Y.Y.D.D.",
"~.~.Y.Y.Y.Y.Y.!.^.Z.).w.  k @X@ t 9XG.!.Y.Y.D.!.!.!.Y.Y.Y.Y.!.!.!.!.!.!.!.!.!.!.!.!.D.D.!.!.!.!.^.^.",
"!.!.Y.Y.Y.!.!.D.!.n.!.r.. l @X@ y 6XG.!.!.!.D.!.!.!.Y.Y.Y.Y.!.!.D.D.D.!.!.!.!.!.!.!.!.!.!.!.!.!.!.!.",
"Y.Y.!.!.!.!.!.!.B.x.5XS.f.z p p.S.n.n.Z.!.!.!.!.!.!.!.!.!.!.!.!.F.N.x.x.!.^.!.^.!.!.!.!.!.!.!.!.!.!.",
"Y.Y.!.!.!.!.!.!.!._.v.S.pXg + <X>XZ.Z.G.).^.^.).!.!.!.!.!.!.!.!.F.N.x.x.!.^.!.^.!.!.!.!.!.!.!.!.!.!."
};
